<svg width="21" height="20" viewBox="0 0 21 20" fill="none" xmlns="http://www.w3.org/2000/svg">
<path d="M3.32719 11.375C3.24197 10.9217 3.20009 10.4613 3.20222 10C3.20123 8.44887 3.68166 6.93573 4.57727 5.66933C5.47289 4.40285 6.73944 3.44566 8.20222 2.92969V8.55469L3.32719 11.375Z" fill="black" fill-opacity="0.1"/>
<path d="M11.3271 10V2.5C11.3271 2.15482 11.0473 1.875 10.7021 1.875C10.357 1.875 10.0771 2.15482 10.0771 2.5V10C10.0771 10.3452 10.357 10.625 10.7021 10.625C11.0473 10.625 11.3271 10.3452 11.3271 10Z" fill="#1C1C1C"/>
<path d="M3.89782 13.2085L3.89735 13.2088C3.75382 13.2917 3.64909 13.4282 3.60622 13.5884C3.59211 13.6411 3.58496 13.6954 3.58496 13.75C3.58496 13.7566 3.58507 13.7632 3.58528 13.7698C3.58854 13.8728 3.61722 13.9734 3.66876 14.0626C3.78042 14.2559 3.98671 14.375 4.20996 14.375C4.21967 14.375 4.22938 14.3748 4.23907 14.3743C4.33886 14.3697 4.43607 14.3412 4.52257 14.2912L4.52304 14.2909L17.5069 6.7912C17.7003 6.67954 17.8193 6.47325 17.8193 6.25C17.8193 6.24029 17.8191 6.23058 17.8187 6.22089C17.814 6.1211 17.7855 6.02389 17.7355 5.93739C17.6526 5.79386 17.5161 5.68913 17.356 5.64626C17.3033 5.63215 17.2489 5.625 17.1943 5.625C17.1877 5.625 17.1811 5.6251 17.1745 5.62531C17.0715 5.62858 16.971 5.65726 16.8817 5.7088L3.89782 13.2085Z" fill="#1C1C1C"/>
<path fill-rule="evenodd" clip-rule="evenodd" d="M8.51518 9.09568L3.64018 11.916C3.4967 11.999 3.32613 12.0216 3.16598 11.9788C3.00583 11.9361 2.86922 11.8315 2.78621 11.688C2.75081 11.6268 2.72605 11.56 2.71298 11.4905C2.71298 11.4905 2.57375 10.7503 2.57721 9.99712C2.57721 9.99712 2.57556 7.41738 4.06697 5.30843C4.06697 5.30843 5.55838 3.19949 7.99431 2.34028C8.15063 2.28514 8.32245 2.29436 8.47197 2.36591C8.6215 2.43745 8.73648 2.56547 8.79161 2.72179C8.81517 2.78857 8.82721 2.85887 8.82721 2.92969V8.55469C8.82721 8.77778 8.70829 8.98396 8.51518 9.09568ZM3.83509 10.3591L7.57721 8.19421V3.87232C7.57721 3.87232 6.08347 4.6219 5.08756 6.03017C5.08756 6.03017 3.82581 7.81436 3.8272 10.0029C3.8272 10.0029 3.82638 10.1814 3.83509 10.3591Z" fill="#1C1C1C"/>
<path d="M7.30146 15.9755C5.70327 15.0662 4.77239 13.4805 4.77239 13.4805C4.68847 13.3375 4.55121 13.2338 4.39079 13.192C4.3394 13.1786 4.28651 13.1719 4.2334 13.1719C4.22532 13.1719 4.21725 13.172 4.20918 13.1723C4.10622 13.1763 4.00585 13.2057 3.91699 13.2579C3.72582 13.3701 3.6084 13.5752 3.6084 13.7969L3.6084 13.7987C3.60872 13.9093 3.6384 14.0179 3.69441 14.1133C4.79453 15.9873 6.68331 17.062 6.68331 17.062C8.57208 18.1366 10.7451 18.1249 10.7451 18.1249C12.9182 18.1132 14.7953 17.0182 14.7953 17.0182C16.6723 15.9232 17.7522 14.0374 17.7522 14.0374C18.832 12.1516 18.8263 9.97854 18.8263 9.97854C18.8205 7.80546 17.7307 5.92538 17.7307 5.92538C16.641 4.04531 14.7581 2.96028 14.7581 2.96028C12.8753 1.87525 10.7022 1.875 10.7022 1.875C10.664 1.875 10.626 1.87849 10.5885 1.88542C10.2922 1.94022 10.0772 2.19861 10.0771 2.49993C10.0771 2.50996 10.0774 2.51998 10.0779 2.52995C10.0853 2.68515 10.1503 2.83201 10.2602 2.94189C10.3774 3.05911 10.5363 3.12498 10.7021 3.125H10.7024C12.541 3.12528 14.134 4.04331 14.134 4.04331C15.7272 4.96141 16.6493 6.55225 16.6493 6.55225C17.5714 8.14308 17.5763 9.98184 17.5763 9.98184C17.5811 11.8206 16.6674 13.4163 16.6674 13.4163C15.7537 15.012 14.1654 15.9385 14.1654 15.9385C12.5771 16.865 10.7384 16.8749 10.7384 16.8749C8.89965 16.8848 7.30146 15.9755 7.30146 15.9755Z" fill="#1C1C1C"/>
</svg>
