<svg width="21" height="20" viewBox="0 0 21 20" fill="none" xmlns="http://www.w3.org/2000/svg">
<path d="M7.99127 8.125H3.20215V5C3.20215 4.83421 3.26807 4.67529 3.38525 4.55803C3.50244 4.44084 3.66144 4.375 3.82715 4.375H7.99127C8.12631 4.37553 8.25769 4.41933 8.36618 4.49997L10.7021 6.25L8.36618 8.00003C8.25769 8.08067 8.12631 8.12447 7.99127 8.125Z" fill="black" fill-opacity="0.1"/>
<path d="M3.82715 15.625V8.125C3.82715 7.77982 3.54733 7.5 3.20215 7.5C2.85697 7.5 2.57715 7.77982 2.57715 8.125V15.625C2.57715 16.1428 2.94327 16.5089 2.94327 16.5089C3.30938 16.875 3.82715 16.875 3.82715 16.875H17.5771C18.0949 16.875 18.461 16.5089 18.461 16.5089C18.8271 16.1428 18.8271 15.625 18.8271 15.625V6.875C18.8271 6.35723 18.461 5.99112 18.461 5.99112C18.0949 5.625 17.5771 5.625 17.5771 5.625H10.7021C10.357 5.625 10.0771 5.90482 10.0771 6.25C10.0771 6.59518 10.357 6.875 10.7021 6.875H17.5771V15.625H3.82715Z" fill="#1C1C1C"/>
<path fill-rule="evenodd" clip-rule="evenodd" d="M8.73915 8.50154C8.73915 8.50154 8.40756 8.74811 7.9944 8.74999L7.9938 8.74999L7.99121 8.75H3.20215C2.85697 8.75 2.57715 8.47018 2.57715 8.125V5C2.57715 5 2.57715 4.48223 2.94327 4.11612C2.94327 4.11612 3.30938 3.75 3.82715 3.75L7.99378 3.75001C7.99378 3.75001 8.40731 3.75171 8.74094 3.9998L11.0769 5.7498C11.1245 5.78544 11.1667 5.82769 11.2023 5.87527C11.3017 6.00793 11.3443 6.17464 11.3208 6.33872C11.2973 6.5028 11.2095 6.65082 11.0769 6.7502L8.73915 8.50154ZM7.98891 7.5C7.98891 7.5 7.99132 7.49991 7.99327 7.49846L9.65974 6.25L7.99148 5.0002C7.99148 5.0002 7.99121 5.00001 7.98864 4.99999L3.82715 5V7.5H7.98891Z" fill="#1C1C1C"/>
</svg>
