<svg width="21" height="20" viewBox="0 0 21 20" fill="none" xmlns="http://www.w3.org/2000/svg">
<path d="M18.2021 4.375H13.2021C12.5391 4.375 11.9032 4.63837 11.4344 5.10727C10.9656 5.57602 10.7021 6.21201 10.7021 6.875C10.7021 6.21201 10.4387 5.57602 9.96992 5.10727C9.50109 4.63837 8.86518 4.375 8.20215 4.375H3.20215C3.0364 4.375 2.8774 4.44092 2.76022 4.55811C2.64299 4.67529 2.57715 4.83429 2.57715 5V15C2.57715 15.1657 2.64299 15.3247 2.76022 15.4419C2.8774 15.5591 3.0364 15.625 3.20215 15.625H8.20215C8.86518 15.625 9.50109 15.8884 9.96992 16.3573C10.4387 16.826 10.7021 17.462 10.7021 18.125C10.7021 17.462 10.9656 16.826 11.4344 16.3573C11.9032 15.8884 12.5391 15.625 13.2021 15.625H18.2021C18.3679 15.625 18.5269 15.5591 18.6441 15.4419C18.7613 15.3247 18.8271 15.1657 18.8271 15V5C18.8271 4.83429 18.7613 4.67529 18.6441 4.55811C18.5269 4.44092 18.3679 4.375 18.2021 4.375Z" fill="black" fill-opacity="0.1"/>
<path d="M10.9924 15.9153C10.0771 16.8306 10.0771 18.125 10.0771 18.125C10.0771 18.4702 10.357 18.75 10.7021 18.75C11.0473 18.75 11.3271 18.4702 11.3271 18.125C11.3271 17.3483 11.8763 16.7992 11.8763 16.7992C12.4255 16.25 13.2021 16.25 13.2021 16.25H18.2021C18.7199 16.25 19.086 15.8839 19.086 15.8839C19.4521 15.5178 19.4521 15 19.4521 15V5C19.4521 4.48223 19.086 4.11612 19.086 4.11612C18.7199 3.75 18.2021 3.75 18.2021 3.75H13.2021C11.9077 3.75 10.9924 4.66529 10.9924 4.66529C10.0771 5.58058 10.0771 6.875 10.0771 6.875C10.0771 7.22018 10.357 7.5 10.7021 7.5C10.8679 7.5 11.0269 7.43415 11.1441 7.31694C11.2613 7.19973 11.3271 7.04076 11.3271 6.875C11.3271 6.09835 11.8763 5.54917 11.8763 5.54917C12.4255 5 13.2021 5 13.2021 5H18.2021V15H13.2021C11.9077 15 10.9924 15.9153 10.9924 15.9153Z" fill="#1C1C1C"/>
<path fill-rule="evenodd" clip-rule="evenodd" d="M1.95215 5C1.95215 5 1.95215 4.48223 2.31826 4.11612C2.31826 4.11612 2.68438 3.75 3.20215 3.75H8.20215C8.20215 3.75 9.49657 3.75 10.4119 4.66529C10.4119 4.66529 11.3271 5.58058 11.3271 6.875V18.125C11.3271 18.4702 11.0473 18.75 10.7021 18.75C10.357 18.75 10.0771 18.4702 10.0771 18.125C10.0771 18.125 10.0771 17.3483 9.52797 16.7992C9.52797 16.7992 8.9788 16.25 8.20215 16.25H3.20215C3.20215 16.25 2.68438 16.25 2.31827 15.8839C2.31827 15.8839 1.95215 15.5178 1.95215 15V5ZM10.0771 6.875V15.6209C10.0771 15.6209 9.26823 15 8.20215 15H3.20215V5H8.20215C8.20215 5 8.9788 5 9.52797 5.54917C9.52797 5.54917 10.0771 6.09835 10.0771 6.875Z" fill="#1C1C1C"/>
</svg>
