<svg width="21" height="21" viewBox="0 0 21 21" fill="none" xmlns="http://www.w3.org/2000/svg">
<path d="M11.8125 17.7188V3.28125C11.8125 3.10717 11.7434 2.94031 11.6203 2.81718C11.4972 2.69413 11.3303 2.625 11.1562 2.625H3.28125C3.1072 2.625 2.94028 2.69413 2.81721 2.81718C2.69414 2.94031 2.625 3.10717 2.625 3.28125V17.7188" fill="black" fill-opacity="0.1"/>
<path d="M1.3125 18.375H19.6875C20.0499 18.375 20.3438 18.0812 20.3438 17.7188C20.3438 17.3563 20.0499 17.0625 19.6875 17.0625H1.3125C0.950063 17.0625 0.65625 17.3563 0.65625 17.7188C0.65625 18.0812 0.950063 18.375 1.3125 18.375Z" fill="#1C1C1C"/>
<path d="M1.96875 3.28125V17.7188C1.96875 18.0812 2.26256 18.375 2.625 18.375C2.98744 18.375 3.28125 18.0812 3.28125 17.7188V3.28125H11.1562V17.7188C11.1562 18.0812 11.4501 18.375 11.8125 18.375C12.1749 18.375 12.4688 18.0812 12.4688 17.7188V3.28125C12.4688 2.73759 12.0843 2.35317 12.0843 2.35317C11.6999 1.96875 11.1562 1.96875 11.1562 1.96875H3.28125C2.73759 1.96875 2.35317 2.35317 2.35317 2.35317C1.96875 2.73759 1.96875 3.28125 1.96875 3.28125Z" fill="#1C1C1C"/>
<path d="M17.7188 7.21875H11.8125C11.4501 7.21875 11.1562 7.51256 11.1562 7.875C11.1562 8.23744 11.4501 8.53125 11.8125 8.53125H17.7188V17.7188C17.7188 18.0812 18.0126 18.375 18.375 18.375C18.7374 18.375 19.0312 18.0812 19.0312 17.7188V8.53125C19.0312 7.98759 18.6468 7.60317 18.6468 7.60317C18.2624 7.21875 17.7188 7.21875 17.7188 7.21875Z" fill="#1C1C1C"/>
<path d="M5.25 6.5625H7.875C8.23744 6.5625 8.53125 6.26869 8.53125 5.90625C8.53125 5.54381 8.23744 5.25 7.875 5.25H5.25C4.88756 5.25 4.59375 5.54381 4.59375 5.90625C4.59375 6.26869 4.88756 6.5625 5.25 6.5625Z" fill="#1C1C1C"/>
<path d="M6.5625 11.8125H9.1875C9.54994 11.8125 9.84375 11.5187 9.84375 11.1562C9.84375 10.7938 9.54994 10.5 9.1875 10.5H6.5625C6.20006 10.5 5.90625 10.7938 5.90625 11.1562C5.90625 11.5187 6.20006 11.8125 6.5625 11.8125Z" fill="#1C1C1C"/>
<path d="M5.25 15.0938H7.875C8.23744 15.0938 8.53125 14.7999 8.53125 14.4375C8.53125 14.0751 8.23744 13.7812 7.875 13.7812H5.25C4.88756 13.7812 4.59375 14.0751 4.59375 14.4375C4.59375 14.7999 4.88756 15.0938 5.25 15.0938Z" fill="#1C1C1C"/>
<path d="M13.7812 14.4375C13.7812 14.7999 14.0751 15.0938 14.4375 15.0938H15.75C16.1124 15.0938 16.4062 14.7999 16.4062 14.4375C16.4062 14.0751 16.1124 13.7812 15.75 13.7812H14.4375C14.0751 13.7812 13.7812 14.0751 13.7812 14.4375Z" fill="#1C1C1C"/>
<path d="M13.7812 11.1562C13.7812 11.5187 14.0751 11.8125 14.4375 11.8125H15.75C16.1124 11.8125 16.4062 11.5187 16.4062 11.1562C16.4062 10.7938 16.1124 10.5 15.75 10.5H14.4375C14.0751 10.5 13.7812 10.7938 13.7812 11.1562Z" fill="#1C1C1C"/>
</svg>
