<svg width="21" height="20" viewBox="0 0 21 20" fill="none" xmlns="http://www.w3.org/2000/svg">
<path d="M13.8271 10.9375C13.8271 12.6634 12.4281 14.0625 10.7021 14.0625C8.97623 14.0625 7.57715 12.6634 7.57715 10.9375C7.57715 9.21158 8.97623 7.8125 10.7021 7.8125C12.4281 7.8125 13.8271 9.21158 13.8271 10.9375Z" fill="black" fill-opacity="0.1"/>
<path d="M7.88965 6.5625C7.88965 7.94327 6.77042 9.0625 5.38965 9.0625C4.00888 9.0625 2.88965 7.94327 2.88965 6.5625C2.88965 5.18173 4.00888 4.0625 5.38965 4.0625C6.77042 4.0625 7.88965 5.18173 7.88965 6.5625Z" fill="black" fill-opacity="0.1"/>
<path d="M18.5146 6.5625C18.5146 7.94327 17.3954 9.0625 16.0146 9.0625C14.6339 9.0625 13.5146 7.94327 13.5146 6.5625C13.5146 5.18173 14.6339 4.0625 16.0146 4.0625C17.3954 4.0625 18.5146 5.18173 18.5146 6.5625Z" fill="black" fill-opacity="0.1"/>
<path fill-rule="evenodd" clip-rule="evenodd" d="M10.7021 7.1875C10.7021 7.1875 12.2554 7.1875 13.3538 8.28585C13.3538 8.28585 14.4521 9.3842 14.4521 10.9375C14.4521 10.9375 14.4521 12.4908 13.3538 13.5892C13.3538 13.5892 12.2554 14.6875 10.7021 14.6875C10.7021 14.6875 9.14885 14.6875 8.0505 13.5892C8.0505 13.5892 6.95215 12.4908 6.95215 10.9375C6.95215 10.9375 6.95215 9.3842 8.0505 8.28585C8.0505 8.28585 9.14885 7.1875 10.7021 7.1875ZM10.7021 8.4375C10.7021 8.4375 9.66661 8.4375 8.93438 9.16973C8.93438 9.16973 8.20215 9.90197 8.20215 10.9375C8.20215 10.9375 8.20215 11.973 8.93438 12.7053C8.93438 12.7053 9.66661 13.4375 10.7021 13.4375C10.7021 13.4375 11.7377 13.4375 12.4699 12.7053C12.4699 12.7053 13.2021 11.973 13.2021 10.9375C13.2021 10.9375 13.2021 9.90197 12.4699 9.16973C12.4699 9.16973 11.7377 8.4375 10.7021 8.4375Z" fill="#1C1C1C"/>
<path d="M19.2639 11.3114L19.2641 11.3117C19.3633 11.4444 19.5112 11.5324 19.6753 11.5561C19.7049 11.5604 19.7348 11.5625 19.7647 11.5625L19.7658 11.5625C19.9003 11.5623 20.0311 11.5187 20.1389 11.4381C20.2968 11.3201 20.3897 11.1346 20.3897 10.9375L20.3897 10.9304C20.3882 10.7979 20.3446 10.6694 20.2653 10.5633L20.2648 10.5626C19.5136 9.55781 18.3914 8.99671 18.3914 8.99671C17.2688 8.43541 16.0137 8.43751 16.0137 8.43751L16.0147 8.43751C16.3599 8.43751 16.6397 8.71733 16.6397 9.06251C16.6397 9.40714 16.3607 9.68674 16.0161 9.68751L19.2639 11.3114Z" fill="#1C1C1C"/>
<path d="M3.57201 10.1147C4.42969 9.6859 5.3886 9.68751 5.3886 9.68751L5.38948 9.68751H5.38965C5.39931 9.68751 5.40897 9.68728 5.41863 9.68684C5.57384 9.67963 5.7208 9.61487 5.83085 9.50519C5.94826 9.38817 6.01437 9.22931 6.01465 9.06355L6.01465 9.06269V9.06251C6.01465 9.02471 6.01122 8.98699 6.0044 8.94981C5.95007 8.65343 5.69201 8.43801 5.39069 8.43751L5.38965 8.43751C4.13513 8.43564 3.013 8.99671 3.013 8.99671C1.8908 9.55781 1.13955 10.5626 1.13955 10.5626L1.1391 10.5632C1.05828 10.6714 1.01465 10.8026 1.01465 10.9375L1.01468 10.9441C1.01497 10.9718 1.01711 10.9995 1.02108 11.0269C1.0448 11.191 1.13271 11.3389 1.26549 11.4381C1.37352 11.5189 1.50477 11.5625 1.63965 11.5625C1.648 11.5625 1.65636 11.5623 1.66471 11.562C1.85285 11.5545 2.02755 11.4625 2.14028 11.3117C2.71434 10.5436 3.57201 10.1147 3.57201 10.1147Z" fill="#1C1C1C"/>
<path d="M13.0238 15.3549C14.0888 16.02 14.64 17.1481 14.64 17.1481L14.6403 17.1488L14.6405 17.1492C14.7453 17.3638 14.9633 17.5 15.2021 17.5L15.2193 17.4997C15.3085 17.4973 15.3962 17.4757 15.4764 17.4366C15.691 17.3318 15.8271 17.1138 15.8271 16.875L15.8269 16.8578C15.8245 16.7686 15.8029 16.6809 15.7638 16.6007L15.7635 16.6002C15.0551 15.1498 13.686 14.2947 13.686 14.2947C12.3166 13.4395 10.7021 13.4395 10.7021 13.4395C9.08766 13.4395 7.71829 14.2947 7.71829 14.2947C6.34916 15.1498 5.64077 16.6002 5.64077 16.6002L5.64055 16.6007C5.59882 16.6861 5.57715 16.7799 5.57715 16.875L5.5772 16.8831C5.57807 16.9495 5.58951 17.0154 5.61111 17.0782C5.665 17.2349 5.77896 17.3638 5.92791 17.4366C6.01332 17.4783 6.10711 17.5 6.20215 17.5L6.2165 17.4998C6.45012 17.4944 6.66124 17.3592 6.76377 17.1492C7.31497 16.0204 8.38045 15.3549 8.38045 15.3549C9.44593 14.6895 10.7021 14.6895 10.7021 14.6895C11.9584 14.6895 13.0238 15.3549 13.0238 15.3549Z" fill="#1C1C1C"/>
<path d="M6.75349 5.27872C7.12656 5.67581 7.22872 6.211 7.22872 6.211C7.2598 6.37382 7.35428 6.51762 7.49139 6.61078C7.595 6.68117 7.71737 6.71881 7.84263 6.71881L7.84668 6.7188C7.88465 6.71855 7.92252 6.71485 7.95982 6.70773C8.25449 6.65148 8.46763 6.3938 8.46763 6.09381L8.46762 6.09029C8.46741 6.05214 8.4637 6.01409 8.45655 5.97662C8.28628 5.08464 7.6645 4.42282 7.6645 4.42282C7.04272 3.761 6.16308 3.53547 6.16308 3.53547C5.28345 3.30994 4.41994 3.59095 4.41994 3.59095C3.55642 3.87196 2.97798 4.57198 2.97798 4.57198C2.39955 5.272 2.28635 6.173 2.28635 6.173C2.17314 7.074 2.56044 7.89536 2.56044 7.89536C2.94773 8.71671 3.71489 9.2026 3.71489 9.2026C4.48179 9.68831 5.38951 9.68756 5.38951 9.68756L5.39014 9.68756C5.5559 9.68739 5.7148 9.62138 5.8319 9.50405C5.94883 9.38688 6.01451 9.2281 6.01451 9.06256L6.01451 9.06193C6.01416 8.717 5.73444 8.43756 5.38951 8.43756L5.38887 8.43756C4.84402 8.43811 4.38372 8.14658 4.38372 8.14658C3.92343 7.85505 3.69105 7.36224 3.69105 7.36224C3.45867 6.86943 3.5266 6.32883 3.5266 6.32883C3.59452 5.78823 3.94158 5.36821 3.94158 5.36821C4.28864 4.9482 4.80675 4.7796 4.80675 4.7796C5.32486 4.61099 5.85264 4.74631 5.85264 4.74631C6.38042 4.88163 6.75349 5.27872 6.75349 5.27872Z" fill="#1C1C1C"/>
<path d="M17.0204 8.14658C16.5601 8.43811 16.0153 8.43756 16.0153 8.43756L16.0146 8.43756C16.0048 8.43756 15.995 8.43779 15.9853 8.43825L15.3903 9.09195C15.3976 9.24716 15.4625 9.39407 15.5723 9.50405C15.6893 9.62138 15.8483 9.68739 16.014 9.68756L16.0146 9.68756C16.9224 9.68831 17.6893 9.2026 17.6893 9.2026C18.4564 8.71671 18.8437 7.89536 18.8437 7.89536C19.231 7.074 19.1178 6.173 19.1178 6.173C19.0046 5.272 18.4262 4.57198 18.4262 4.57198C17.8477 3.87196 16.9842 3.59095 16.9842 3.59095C16.1207 3.30994 15.2411 3.53547 15.2411 3.53547C14.3614 3.761 13.7397 4.42282 13.7397 4.42282C13.1179 5.08464 12.9476 5.97662 12.9476 5.97662C12.9402 6.01525 12.9365 6.05449 12.9365 6.09381C12.9365 6.11259 12.9374 6.13136 12.9391 6.15007C12.9642 6.42788 13.1703 6.65542 13.4443 6.70773C13.483 6.7151 13.5222 6.71881 13.5615 6.71881C13.5803 6.71881 13.5991 6.71796 13.6178 6.71627C13.8956 6.69116 14.1231 6.485 14.1754 6.211C14.2776 5.67581 14.6507 5.27872 14.6507 5.27872C15.0237 4.88163 15.5515 4.74631 15.5515 4.74631C16.0793 4.61099 16.5974 4.7796 16.5974 4.7796C17.1155 4.9482 17.4626 5.36821 17.4626 5.36821C17.8096 5.78822 17.8776 6.32883 17.8776 6.32883C17.9455 6.86943 17.7131 7.36224 17.7131 7.36224C17.4807 7.85505 17.0204 8.14658 17.0204 8.14658Z" fill="#1C1C1C"/>
</svg>
