<svg width="21" height="20" viewBox="0 0 21 20" fill="none" xmlns="http://www.w3.org/2000/svg">
<path d="M12.4854 3.125H16.8604V16.25H12.4854V3.125Z" fill="black" fill-opacity="0.1"/>
<path d="M18.1104 15.625H2.48535C2.14017 15.625 1.86035 15.9048 1.86035 16.25C1.86035 16.5952 2.14017 16.875 2.48535 16.875H18.1104C18.4555 16.875 18.7354 16.5952 18.7354 16.25C18.7354 15.9048 18.4555 15.625 18.1104 15.625Z" fill="#1C1C1C"/>
<path d="M8.73535 7.5H12.4854C12.8305 7.5 13.1104 7.22018 13.1104 6.875C13.1104 6.52982 12.8305 6.25 12.4854 6.25H8.11035C7.76517 6.25 7.48535 6.52982 7.48535 6.875V16.25C7.48535 16.5952 7.76517 16.875 8.11035 16.875C8.45553 16.875 8.73535 16.5952 8.73535 16.25V7.5Z" fill="#1C1C1C"/>
<path fill-rule="evenodd" clip-rule="evenodd" d="M11.8604 16.25V3.125C11.8604 2.77982 12.1402 2.5 12.4854 2.5H16.8604C17.2055 2.5 17.4854 2.77982 17.4854 3.125V16.25C17.4854 16.5952 17.2055 16.875 16.8604 16.875H12.4854C12.1402 16.875 11.8604 16.5952 11.8604 16.25ZM16.2354 15.625H13.1104V3.75H16.2354V15.625Z" fill="#1C1C1C"/>
<path d="M4.36035 11.25H8.11035C8.45553 11.25 8.73535 10.9702 8.73535 10.625C8.73535 10.2798 8.45553 10 8.11035 10H3.73535C3.39017 10 3.11035 10.2798 3.11035 10.625V16.25C3.11035 16.5952 3.39017 16.875 3.73535 16.875C4.08053 16.875 4.36035 16.5952 4.36035 16.25V11.25Z" fill="#1C1C1C"/>
</svg>
