<svg width="21" height="20" viewBox="0 0 21 20" fill="none" xmlns="http://www.w3.org/2000/svg">
<path d="M13.5068 6.25781C13.7211 6.85691 13.8295 7.48874 13.8271 8.12499V8.12499C13.8271 9.61684 13.2345 11.0476 12.1796 12.1025C11.1247 13.1574 9.69399 13.75 8.20214 13.75H7.89746C8.28526 14.8469 9.00368 15.7966 9.95374 16.4682C10.9038 17.1398 12.0387 17.5003 13.2021 17.5H18.3584C18.4827 17.5 18.602 17.4506 18.6898 17.3627C18.7778 17.2748 18.8271 17.1556 18.8271 17.0312V11.875C18.8292 10.4353 18.2783 9.04973 17.2882 8.00443C16.2982 6.95914 14.9445 6.3339 13.5068 6.25781Z" fill="black" fill-opacity="0.1"/>
<path fill-rule="evenodd" clip-rule="evenodd" d="M10.5939 2.35075C10.5939 2.35075 9.44535 1.875 8.20215 1.875H8.20169C8.20169 1.875 6.95874 1.87509 5.81038 2.35075C5.81038 2.35075 4.66181 2.82651 3.78273 3.70558C3.78273 3.70558 2.90365 4.58466 2.4279 5.73323C2.4279 5.73323 1.95215 6.8818 1.95215 8.125V13.2812C1.95215 13.2812 1.95215 13.7343 2.2725 14.0546C2.2725 14.0546 2.59285 14.375 3.0459 14.375H8.20215C8.20215 14.375 9.44535 14.375 10.5939 13.8992C10.5939 13.8992 11.7425 13.4235 12.6216 12.5444C12.6216 12.5444 13.5006 11.6653 13.9764 10.5168C13.9764 10.5168 14.4521 9.3682 14.4521 8.125C14.4521 8.125 14.4521 6.8818 13.9764 5.73323C13.9764 5.73323 13.5006 4.58466 12.6216 3.70558C12.6216 3.70558 11.7425 2.82651 10.5939 2.35075ZM13.2021 8.125C13.2021 8.125 13.2021 7.13044 12.8215 6.21158C12.8215 6.21158 12.4409 5.29273 11.7377 4.58947C11.7377 4.58947 11.0344 3.8862 10.1156 3.5056C10.1156 3.5056 9.1969 3.12508 8.20256 3.125L8.20215 3.125C8.20215 3.125 7.20759 3.125 6.28873 3.5056C6.28873 3.5056 5.36988 3.8862 4.66661 4.58947C4.66661 4.58947 3.96335 5.29273 3.58275 6.21158C3.58275 6.21158 3.20215 7.13044 3.20215 8.125L3.20215 13.125H8.20215C8.20215 13.125 9.19671 13.125 10.1156 12.7444C10.1156 12.7444 11.0344 12.3638 11.7377 11.6605C11.7377 11.6605 12.4409 10.9573 12.8215 10.0384C12.8215 10.0384 13.2021 9.11956 13.2021 8.125Z" fill="#1C1C1C"/>
<path d="M13.5399 5.63369C13.5289 5.6331 13.5179 5.63281 13.5068 5.63281C13.4797 5.63281 13.4526 5.63458 13.4257 5.6381C13.127 5.67719 12.8986 5.92389 12.8827 6.22478C12.8821 6.23578 12.8818 6.2468 12.8818 6.25781C12.8818 6.2669 12.882 6.276 12.8824 6.28508C12.8888 6.42989 12.9452 6.56801 13.0422 6.67578C13.153 6.79902 13.3083 6.87318 13.4738 6.88194C15.464 6.98727 16.8345 8.43422 16.8345 8.43422C18.2049 9.88117 18.2021 11.8741 18.2021 11.8741V16.875H13.2021C11.6125 16.8754 10.3145 15.9578 10.3145 15.9578C9.01675 15.0404 8.48688 13.5421 8.48688 13.5421L8.48672 13.5417C8.39843 13.292 8.16233 13.125 7.89746 13.125L7.8898 13.125C7.82141 13.1259 7.75361 13.1379 7.68913 13.1607C7.53285 13.216 7.40492 13.3311 7.33348 13.4806C7.29331 13.5648 7.27246 13.6568 7.27246 13.75L7.27261 13.7636C7.27405 13.83 7.28607 13.8957 7.30821 13.9583C7.97051 15.8316 9.59295 16.9785 9.59295 16.9785C11.2154 18.1255 13.2021 18.125 13.2021 18.125H18.3584C18.8114 18.125 19.1318 17.8046 19.1318 17.8046C19.4521 17.4843 19.4521 17.0312 19.4521 17.0312V11.8759C19.4538 10.6759 19.0105 9.56089 19.0105 9.56089C18.5672 8.44584 17.742 7.57464 17.742 7.57464C16.9168 6.70344 15.8275 6.20027 15.8275 6.20027C14.7383 5.69719 13.5403 5.63371 13.5403 5.63371L13.5399 5.63369Z" fill="#1C1C1C"/>
</svg>
