<svg width="21" height="20" viewBox="0 0 21 20" fill="none" xmlns="http://www.w3.org/2000/svg">
<path d="M5.70215 8.75C6.3925 8.75 6.95215 9.30964 6.95215 10C6.95215 10.6904 6.3925 11.25 5.70215 11.25C5.01179 11.25 4.45215 10.6904 4.45215 10C4.45215 9.30964 5.01179 8.75 5.70215 8.75Z" fill="#1C1C1C"/>
<path d="M10.7021 8.75C11.3925 8.75 11.9521 9.30964 11.9521 10C11.9521 10.6904 11.3925 11.25 10.7021 11.25C10.0118 11.25 9.45215 10.6904 9.45215 10C9.45215 9.30964 10.0118 8.75 10.7021 8.75Z" fill="#1C1C1C"/>
<path d="M16.9521 10C16.9521 9.30964 16.3925 8.75 15.7021 8.75C15.0118 8.75 14.4521 9.30964 14.4521 10C14.4521 10.6904 15.0118 11.25 15.7021 11.25C16.3925 11.25 16.9521 10.6904 16.9521 10Z" fill="#1C1C1C"/>
</svg>
