<svg width="25" height="25" viewBox="0 0 25 25" fill="none" xmlns="http://www.w3.org/2000/svg">
<path d="M12.3916 2.19785C17.9156 2.19785 22.3937 6.67585 22.3937 12.1998C22.3937 17.7228 17.9156 22.2008 12.3916 22.2008C6.86765 22.2008 2.38965 17.7228 2.38965 12.1998C2.38965 6.67585 6.86765 2.19785 12.3916 2.19785ZM12.3916 3.69785C11.2675 3.68565 10.152 3.89655 9.10987 4.31832C8.06772 4.74009 7.11958 5.36436 6.32031 6.15501C5.52104 6.94566 4.88652 7.88698 4.45347 8.92449C4.02042 9.96199 3.79744 11.0751 3.79744 12.1993C3.79744 13.3236 4.02042 14.4367 4.45347 15.4742C4.88652 16.5117 5.52104 17.453 6.32031 18.2437C7.11958 19.0343 8.06772 19.6586 9.10987 20.0804C10.152 20.5021 11.2675 20.713 12.3916 20.7008C14.6237 20.6666 16.7527 19.7559 18.319 18.1654C19.8853 16.5749 20.7633 14.4321 20.7633 12.1998C20.7633 9.96756 19.8853 7.82483 18.319 6.2343C16.7527 4.64378 14.6237 3.73308 12.3916 3.69885V3.69785ZM8.85365 14.9828C9.2744 15.5189 9.8116 15.9521 10.4246 16.2497C11.0376 16.5474 11.7102 16.7017 12.3916 16.7008C13.0722 16.7016 13.7441 16.5477 14.3565 16.2508C14.9688 15.9539 15.5058 15.5217 15.9266 14.9868C16.05 14.8308 16.2303 14.7301 16.4278 14.7069C16.6254 14.6837 16.8241 14.74 16.9801 14.8633C17.1362 14.9867 17.2369 15.1669 17.2601 15.3645C17.2832 15.5621 17.227 15.7608 17.1036 15.9168C16.5424 16.6294 15.8266 17.2053 15.0104 17.6009C14.1942 17.9966 13.2987 18.2017 12.3916 18.2008C11.4834 18.2016 10.5869 17.9958 9.76986 17.5991C8.95285 17.2024 8.23673 16.6251 7.67565 15.9108C7.55784 15.7542 7.50604 15.5577 7.53133 15.3633C7.55661 15.1689 7.65698 14.9922 7.81094 14.8709C7.9649 14.7496 8.16023 14.6934 8.35511 14.7143C8.54999 14.7353 8.72894 14.8316 8.85365 14.9828ZM9.39165 8.94885C9.55871 8.94412 9.72502 8.97294 9.88075 9.03361C10.0365 9.09428 10.1785 9.18556 10.2983 9.30205C10.4181 9.41854 10.5134 9.55789 10.5784 9.71184C10.6435 9.86579 10.677 10.0312 10.677 10.1983C10.677 10.3655 10.6435 10.5309 10.5784 10.6849C10.5134 10.8388 10.4181 10.9781 10.2983 11.0946C10.1785 11.2111 10.0365 11.3024 9.88075 11.3631C9.72502 11.4237 9.55871 11.4526 9.39165 11.4478C9.06638 11.4386 8.75752 11.303 8.53071 11.0696C8.30389 10.8363 8.177 10.5237 8.177 10.1983C8.177 9.87295 8.30389 9.56037 8.53071 9.32705C8.75752 9.09373 9.06638 8.95805 9.39165 8.94885ZM15.3916 8.94885C15.5587 8.94412 15.725 8.97294 15.8807 9.03361C16.0365 9.09428 16.1785 9.18556 16.2983 9.30205C16.4181 9.41854 16.5134 9.55789 16.5784 9.71184C16.6435 9.86579 16.677 10.0312 16.677 10.1983C16.677 10.3655 16.6435 10.5309 16.5784 10.6849C16.5134 10.8388 16.4181 10.9781 16.2983 11.0946C16.1785 11.2111 16.0365 11.3024 15.8807 11.3631C15.725 11.4237 15.5587 11.4526 15.3916 11.4478C15.0664 11.4386 14.7575 11.303 14.5307 11.0696C14.3039 10.8363 14.177 10.5237 14.177 10.1983C14.177 9.87295 14.3039 9.56037 14.5307 9.32705C14.7575 9.09373 15.0664 8.95805 15.3916 8.94885Z" fill="#707991"/>
</svg>
