<svg width="25" height="25" viewBox="0 0 25 25" fill="none" xmlns="http://www.w3.org/2000/svg">
<path d="M13.2067 12.3959L5.67468 13.6519C5.58809 13.6663 5.50682 13.7033 5.43907 13.7591C5.37131 13.815 5.31944 13.8876 5.28868 13.9699L2.69168 20.9269C2.44368 21.5669 3.11268 22.1769 3.72668 21.8699L21.7267 12.8699C21.8514 12.8076 21.9562 12.7119 22.0295 12.5933C22.1028 12.4748 22.1416 12.3382 22.1416 12.1989C22.1416 12.0595 22.1028 11.9229 22.0295 11.8044C21.9562 11.6859 21.8514 11.5901 21.7267 11.5279L3.72668 2.52786C3.11268 2.22086 2.44368 2.83186 2.69168 3.47086L5.28968 10.4279C5.3203 10.5103 5.3721 10.5832 5.43987 10.6392C5.50764 10.6952 5.58898 10.7323 5.67568 10.7469L13.2077 12.0019C13.254 12.01 13.296 12.0342 13.3263 12.0702C13.3566 12.1062 13.3732 12.1518 13.3732 12.1989C13.3732 12.2459 13.3566 12.2915 13.3263 12.3275C13.296 12.3635 13.254 12.3877 13.2077 12.3959H13.2067Z" fill="#8BABD8"/>
</svg>
