<svg width="22" height="22" viewBox="0 0 22 22" fill="none" xmlns="http://www.w3.org/2000/svg">
<path d="M3.4375 7.5625H18.5625V4.125C18.5625 3.94263 18.49 3.76782 18.3611 3.63883C18.2322 3.50993 18.0573 3.4375 17.875 3.4375H4.125C3.94272 3.4375 3.76782 3.50993 3.63892 3.63883C3.51001 3.76782 3.4375 3.94263 3.4375 4.125V7.5625Z" fill="black" fill-opacity="0.1"/>
<path fill-rule="evenodd" clip-rule="evenodd" d="M2.75 4.125C2.75 4.125 2.75 3.55546 3.15273 3.15273C3.15273 3.15273 3.55546 2.75 4.125 2.75H17.875C17.875 2.75 18.4445 2.75 18.8473 3.15273C18.8473 3.15273 19.25 3.55545 19.25 4.125V17.875C19.25 17.875 19.25 18.4445 18.8473 18.8473C18.8473 18.8473 18.4445 19.25 17.875 19.25H4.125C4.125 19.25 3.55545 19.25 3.15273 18.8473C3.15273 18.8473 2.75 18.4445 2.75 17.875V4.125ZM4.125 4.125V17.875H17.875V4.125H4.125Z" fill="#1C1C1C"/>
<path d="M14.4375 2.0625V4.8125C14.4375 5.1922 14.7453 5.5 15.125 5.5C15.5047 5.5 15.8125 5.1922 15.8125 4.8125V2.0625C15.8125 1.6828 15.5047 1.375 15.125 1.375C14.7453 1.375 14.4375 1.6828 14.4375 2.0625Z" fill="#1C1C1C"/>
<path d="M6.1875 2.0625V4.8125C6.1875 5.1922 6.4953 5.5 6.875 5.5C7.2547 5.5 7.5625 5.1922 7.5625 4.8125V2.0625C7.5625 1.6828 7.2547 1.375 6.875 1.375C6.4953 1.375 6.1875 1.6828 6.1875 2.0625Z" fill="#1C1C1C"/>
<path d="M3.4375 8.25H18.5625C18.9422 8.25 19.25 7.9422 19.25 7.5625C19.25 7.1828 18.9422 6.875 18.5625 6.875H3.4375C3.0578 6.875 2.75 7.1828 2.75 7.5625C2.75 7.9422 3.0578 8.25 3.4375 8.25Z" fill="#1C1C1C"/>
<path d="M8.73973 14.7515C8.57485 14.7013 8.45313 14.5793 8.45313 14.5793C8.32435 14.4502 8.14957 14.3776 7.96724 14.3773L7.96641 14.3773C7.95567 14.3773 7.94494 14.3776 7.93421 14.3781C7.76348 14.3861 7.60186 14.4574 7.48086 14.5781C7.35157 14.7071 7.27891 14.8822 7.27891 15.0648C7.27891 15.0764 7.2792 15.088 7.27978 15.0996C7.28838 15.2694 7.3596 15.43 7.47968 15.5504C7.84484 15.9164 8.33948 16.0669 8.33948 16.0669C8.83411 16.2174 9.34126 16.1168 9.34126 16.1168C9.8484 16.0162 10.2481 15.6882 10.2481 15.6882C10.6478 15.3603 10.8456 14.8826 10.8456 14.8826C11.0433 14.4048 10.9923 13.8903 10.9923 13.8903C10.9413 13.3758 10.6536 12.9462 10.6536 12.9462C10.4246 12.6042 10.0887 12.3803 10.0887 12.3803L10.8493 11.4295C11.0865 11.133 11.0385 10.7003 10.742 10.4632C10.6201 10.3656 10.4686 10.3125 10.3125 10.3125H7.90625C7.52655 10.3125 7.21875 10.6203 7.21875 11C7.21875 11.3797 7.52655 11.6875 7.90625 11.6875H8.88207L8.40065 12.2893C8.30288 12.4115 8.24973 12.5634 8.25 12.7199C8.25031 12.9023 8.32304 13.077 8.4522 13.2057C8.58135 13.3344 8.75634 13.4066 8.93868 13.4062C9.11102 13.406 9.26312 13.487 9.26312 13.487C9.41522 13.568 9.51111 13.7112 9.51111 13.7112C9.607 13.8544 9.624 14.0259 9.624 14.0259C9.641 14.1974 9.57509 14.3567 9.57509 14.3567C9.50917 14.5159 9.37594 14.6252 9.37594 14.6252C9.2427 14.7346 9.07365 14.7681 9.07365 14.7681C8.90461 14.8016 8.73973 14.7515 8.73973 14.7515Z" fill="#1C1C1C"/>
<path d="M13.0625 12.375V15.4688C13.0625 15.8484 13.3703 16.1562 13.75 16.1562C14.1297 16.1562 14.4375 15.8484 14.4375 15.4688V11C14.4375 10.6203 14.1297 10.3125 13.75 10.3125C13.6012 10.3125 13.4565 10.3607 13.3375 10.45L11.9625 11.4813C11.8166 11.5907 11.7202 11.7535 11.6944 11.934C11.6898 11.9662 11.6875 11.9987 11.6875 12.0312L11.6875 12.0336C11.688 12.1816 11.7362 12.3254 11.825 12.4437C11.9548 12.6169 12.1586 12.7188 12.375 12.7188L12.384 12.7187C12.5297 12.7168 12.671 12.6687 12.7875 12.5812L13.0625 12.375Z" fill="#1C1C1C"/>
</svg>
