<svg width="41" height="41" viewBox="0 0 41 41" fill="none" xmlns="http://www.w3.org/2000/svg">
<path d="M11.8915 25.1989H29.8915C30.1463 25.1991 30.3915 25.2967 30.5768 25.4717C30.7622 25.6467 30.8737 25.8858 30.8886 26.1402C30.9036 26.3947 30.8208 26.6452 30.6572 26.8407C30.4936 27.0361 30.2616 27.1617 30.0085 27.1919L29.8915 27.1989H11.8915C11.6366 27.1986 11.3914 27.101 11.2061 26.926C11.0208 26.751 10.9092 26.5119 10.8943 26.2575C10.8794 26.003 10.9621 25.7525 11.1257 25.557C11.2893 25.3616 11.5214 25.236 11.7745 25.2059L11.8915 25.1989H29.8915H11.8915ZM11.8915 19.1989L29.8915 19.1969C30.1463 19.1971 30.3915 19.2947 30.5768 19.4697C30.7622 19.6447 30.8737 19.8838 30.8886 20.1382C30.9036 20.3927 30.8208 20.6432 30.6572 20.8387C30.4936 21.0341 30.2616 21.1597 30.0085 21.1899L29.8915 21.1969L11.8915 21.1989C11.6366 21.1986 11.3914 21.101 11.2061 20.926C11.0208 20.751 10.9092 20.5119 10.8943 20.2575C10.8794 20.003 10.9621 19.7525 11.1257 19.557C11.2893 19.3616 11.5214 19.236 11.7745 19.2059L11.8915 19.1989L29.8915 19.1969L11.8915 19.1989ZM11.8915 13.1989H29.8915C30.1463 13.1991 30.3915 13.2967 30.5768 13.4717C30.7622 13.6467 30.8737 13.8858 30.8886 14.1402C30.9036 14.3947 30.8208 14.6452 30.6572 14.8407C30.4936 15.0361 30.2616 15.1617 30.0085 15.1919L29.8915 15.1989H11.8915C11.6366 15.1986 11.3914 15.101 11.2061 14.926C11.0208 14.751 10.9092 14.5119 10.8943 14.2575C10.8794 14.003 10.9621 13.7525 11.1257 13.557C11.2893 13.3616 11.5214 13.236 11.7745 13.2059L11.8915 13.1989H29.8915H11.8915Z" fill="#707991"/>
</svg>
