<svg width="24" height="24" viewBox="0 0 24 24" fill="none" xmlns="http://www.w3.org/2000/svg">
<path d="M7.5 20.25H4.5C4.30115 20.25 4.11035 20.171 3.96973 20.0304C3.8291 19.8896 3.75 19.6989 3.75 19.5V4.5C3.75 4.30106 3.8291 4.11035 3.96973 3.96964C4.11035 3.82901 4.30115 3.75 4.5 3.75H7.5V20.25Z" fill="black" fill-opacity="0.1"/>
<path d="M10.5 11.25H16.5C16.9142 11.25 17.25 10.9142 17.25 10.5C17.25 10.0858 16.9142 9.75 16.5 9.75H10.5C10.0858 9.75 9.75 10.0858 9.75 10.5C9.75 10.9142 10.0858 11.25 10.5 11.25Z" fill="#1C1C1C"/>
<path d="M10.5 14.25H16.5C16.9142 14.25 17.25 13.9142 17.25 13.5C17.25 13.0858 16.9142 12.75 16.5 12.75H10.5C10.0858 12.75 9.75 13.0858 9.75 13.5C9.75 13.9142 10.0858 14.25 10.5 14.25Z" fill="#1C1C1C"/>
<path fill-rule="evenodd" clip-rule="evenodd" d="M3 4.5C3 4.5 3 3.87868 3.43934 3.43934C3.43934 3.43934 3.87868 3 4.5 3H19.5C19.5 3 20.1213 3 20.5607 3.43934C20.5607 3.43934 21 3.87868 21 4.5V19.5C21 19.5 21 20.1213 20.5607 20.5607C20.5607 20.5607 20.1213 21 19.5 21H4.5C4.5 21 3.87868 21 3.43934 20.5607C3.43934 20.5607 3 20.1213 3 19.5V4.5ZM4.5 4.5V19.5H19.5V4.5H4.5Z" fill="#1C1C1C"/>
<path d="M6.75 3.75V20.25C6.75 20.6642 7.08579 21 7.5 21C7.91421 21 8.25 20.6642 8.25 20.25V3.75C8.25 3.33579 7.91421 3 7.5 3C7.08579 3 6.75 3.33579 6.75 3.75Z" fill="#1C1C1C"/>
</svg>
