<svg width="16" height="17" viewBox="0 0 16 17" fill="none" xmlns="http://www.w3.org/2000/svg">
<path fill-rule="evenodd" clip-rule="evenodd" d="M8.00006 5.58179C8.00006 5.58179 9.03559 5.58179 9.76783 6.31402C9.76783 6.31402 10.5001 7.04625 10.5001 8.08179C10.5001 8.08179 10.5001 9.11732 9.76783 9.84955C9.76783 9.84955 9.03559 10.5818 8.00006 10.5818C8.00006 10.5818 6.96453 10.5818 6.23229 9.84955C6.23229 9.84955 5.50006 9.11732 5.50006 8.08179C5.50006 8.08179 5.50006 7.04625 6.23229 6.31402C6.23229 6.31402 6.96453 5.58179 8.00006 5.58179ZM8.00006 6.58179C8.00006 6.58179 7.37874 6.58179 6.9394 7.02113C6.9394 7.02113 6.50006 7.46047 6.50006 8.08179C6.50006 8.08179 6.50006 8.70311 6.9394 9.14245C6.9394 9.14245 7.37874 9.58179 8.00006 9.58179C8.00006 9.58179 8.62138 9.58179 9.06072 9.14245C9.06072 9.14245 9.50006 8.70311 9.50006 8.08179C9.50006 8.08179 9.50006 7.46047 9.06072 7.02113C9.06072 7.02113 8.62138 6.58179 8.00006 6.58179Z" fill="#1C1C1C"/>
<path d="M5.17217 5.25426C5.26593 5.16049 5.31881 5.03312 5.31881 4.90051C5.31881 4.768 5.2662 4.64091 5.17256 4.54715C5.07879 4.45339 4.95142 4.40051 4.81881 4.40051C4.68629 4.40051 4.5592 4.45312 4.46545 4.54676C3.77418 5.23727 3.39541 6.13793 3.39541 6.13793C2.99994 7.06866 2.99994 8.08176 2.99994 8.08176C2.99994 9.09487 3.39613 10.0273 3.39613 10.0273C3.77418 10.9263 4.46545 11.6168 4.46545 11.6168C4.5592 11.7104 4.6863 11.763 4.81881 11.763C4.95142 11.7629 5.07884 11.7102 5.17256 11.6164C5.2662 11.5226 5.31881 11.3955 5.31881 11.263C5.31873 11.1304 5.26599 11.003 5.17217 10.9093C4.61984 10.3575 4.31649 9.63623 4.31649 9.63623C3.99994 8.89123 3.99994 8.08176 3.99994 8.08176C3.99994 7.2723 4.31721 6.52559 4.31721 6.52559C4.61985 5.80597 5.17217 5.25426 5.17217 5.25426Z" fill="#1C1C1C"/>
<path d="M11.5349 4.54696C12.226 5.2374 12.604 6.13623 12.604 6.13623C13.0002 7.06866 13.0002 8.08176 13.0002 8.08176C13.0002 9.09487 12.6047 10.0256 12.6047 10.0256C12.2259 10.9263 11.5347 11.6168 11.5347 11.6168C11.4472 11.7042 11.3304 11.756 11.2069 11.7624C11.1984 11.7628 11.1898 11.763 11.1813 11.763C11.0486 11.763 10.9213 11.7103 10.8276 11.6164C10.7397 11.5284 10.6878 11.4109 10.6819 11.2868C10.6815 11.2788 10.6813 11.2709 10.6813 11.263C10.6814 11.1304 10.7341 11.003 10.8279 10.9093C11.3803 10.3575 11.6829 9.63793 11.6829 9.63793C12.0002 8.89123 12.0002 8.08176 12.0002 8.08176C12.0002 7.2723 11.6836 6.52729 11.6836 6.52729C11.3803 5.80597 10.8279 5.25426 10.8279 5.25426C10.7341 5.16048 10.6813 5.03322 10.6813 4.90051C10.6813 4.76903 10.7331 4.64283 10.8255 4.54925L10.8276 4.54715C10.9104 4.46425 11.0197 4.41306 11.1364 4.40254C11.1512 4.4012 11.1661 4.40052 11.181 4.40051C11.3114 4.40051 11.4369 4.45143 11.5303 4.54241L11.5349 4.54696Z" fill="#1C1C1C"/>
<path d="M3.4036 3.48539L3.40588 3.48309C3.49825 3.38952 3.55005 3.26332 3.55005 3.13184C3.55005 2.99907 3.49724 2.87175 3.40328 2.77796L3.399 2.77374C3.30563 2.68275 3.18042 2.63184 3.05005 2.63184C3.0352 2.63185 3.01991 2.63252 3.00512 2.63386C2.88835 2.64439 2.779 2.69563 2.69617 2.77861C1.66247 3.8143 1.08988 5.16127 1.08988 5.16127C0.5 6.5629 0.5 8.08184 0.5 8.08184C0.5 9.60078 1.0892 11.0008 1.0892 11.0008C1.66229 12.3493 2.69617 13.3851 2.69617 13.3851C2.78985 13.4789 2.91698 13.5317 3.04959 13.5318C3.05744 13.5318 3.06576 13.5317 3.07361 13.5313C3.19777 13.5254 3.3153 13.4735 3.40328 13.3857C3.49724 13.2919 3.55005 13.1646 3.55005 13.0318C3.55005 13.0234 3.54983 13.0149 3.5494 13.0064C3.54312 12.8829 3.49129 12.7661 3.40393 12.6786C2.50687 11.7799 2.0109 10.6129 2.0109 10.6129C1.5 9.39892 1.5 8.08184 1.5 8.08184C1.5 6.76475 2.01022 5.5524 2.01022 5.5524C2.50678 4.38398 3.4036 3.48539 3.4036 3.48539Z" fill="#1C1C1C"/>
<path d="M13.3043 2.77891L13.3036 2.77828C13.21 2.68463 13.083 2.63196 12.9505 2.63184C12.8181 2.63184 12.6906 2.68439 12.5968 2.77796C12.5031 2.87173 12.4501 2.99923 12.4501 3.13184C12.4501 3.26428 12.5026 3.39132 12.5962 3.48506C13.4932 4.38377 13.9892 5.55079 13.9892 5.55079C14.5001 6.76475 14.5001 8.08184 14.5001 8.08184C14.5001 9.39892 13.9899 10.6113 13.9899 10.6113C13.4932 11.7799 12.5962 12.6786 12.5962 12.6786C12.5026 12.7723 12.4501 12.8994 12.4501 13.0318C12.4502 13.1644 12.503 13.292 12.5968 13.3857C12.6906 13.4793 12.8176 13.5318 12.9501 13.5318C13.0827 13.5317 13.2103 13.4789 13.304 13.3851C14.3378 12.3493 14.9102 11.0024 14.9102 11.0024C15.5001 9.60077 15.5001 8.08184 15.5001 8.08184C15.5001 6.5629 14.9109 5.16289 14.9109 5.16289C14.3379 3.81459 13.3043 2.77891 13.3043 2.77891Z" fill="#1C1C1C"/>
</svg>
