<svg width="21" height="20" viewBox="0 0 21 20" fill="none" xmlns="http://www.w3.org/2000/svg">
<path d="M6.95215 16.875H4.45215C4.28644 16.875 4.12744 16.8092 4.01025 16.692C3.89307 16.5747 3.82715 16.4158 3.82715 16.25V3.75C3.82715 3.58421 3.89307 3.42529 4.01025 3.30803C4.12744 3.19084 4.28644 3.125 4.45215 3.125H6.95215V16.875Z" fill="black" fill-opacity="0.1"/>
<path d="M9.45215 9.375H14.4521C14.7973 9.375 15.0771 9.09518 15.0771 8.75C15.0771 8.40482 14.7973 8.125 14.4521 8.125H9.45215C9.10697 8.125 8.82715 8.40482 8.82715 8.75C8.82715 9.09518 9.10697 9.375 9.45215 9.375Z" fill="#1C1C1C"/>
<path d="M9.45215 11.875H14.4521C14.7973 11.875 15.0771 11.5952 15.0771 11.25C15.0771 10.9048 14.7973 10.625 14.4521 10.625H9.45215C9.10697 10.625 8.82715 10.9048 8.82715 11.25C8.82715 11.5952 9.10697 11.875 9.45215 11.875Z" fill="#1C1C1C"/>
<path fill-rule="evenodd" clip-rule="evenodd" d="M3.20215 3.75C3.20215 3.75 3.20215 3.23223 3.56827 2.86612C3.56827 2.86612 3.93438 2.5 4.45215 2.5H16.9521C16.9521 2.5 17.4699 2.5 17.836 2.86612C17.836 2.86612 18.2021 3.23223 18.2021 3.75V16.25C18.2021 16.25 18.2021 16.7678 17.836 17.1339C17.836 17.1339 17.4699 17.5 16.9521 17.5H4.45215C4.45215 17.5 3.93438 17.5 3.56826 17.1339C3.56826 17.1339 3.20215 16.7678 3.20215 16.25V3.75ZM4.45215 3.75V16.25H16.9521V3.75H4.45215Z" fill="#1C1C1C"/>
<path d="M6.32715 3.125V16.875C6.32715 17.2202 6.60697 17.5 6.95215 17.5C7.29733 17.5 7.57715 17.2202 7.57715 16.875V3.125C7.57715 2.77982 7.29733 2.5 6.95215 2.5C6.60697 2.5 6.32715 2.77982 6.32715 3.125Z" fill="#1C1C1C"/>
</svg>
