<svg width="18" height="19" viewBox="0 0 18 19" fill="none" xmlns="http://www.w3.org/2000/svg">
<path fill-rule="evenodd" clip-rule="evenodd" d="M9 6.55054C9 6.55054 10.398 6.55054 11.3865 7.53906C11.3865 7.53906 12.375 8.52757 12.375 9.92554C12.375 9.92554 12.375 11.3235 11.3865 12.312C11.3865 12.312 10.398 13.3005 9 13.3005C9 13.3005 7.60203 13.3005 6.61351 12.312C6.61351 12.312 5.625 11.3235 5.625 9.92554C5.625 9.92554 5.625 8.52757 6.61351 7.53906C6.61351 7.53906 7.60203 6.55054 9 6.55054ZM9 7.67554C9 7.67554 8.06802 7.67554 7.40901 8.33455C7.40901 8.33455 6.75 8.99356 6.75 9.92554C6.75 9.92554 6.75 10.8575 7.40901 11.5165C7.40901 11.5165 8.06802 12.1755 9 12.1755C9 12.1755 9.93198 12.1755 10.591 11.5165C10.591 11.5165 11.25 10.8575 11.25 9.92554C11.25 9.92554 11.25 8.99356 10.591 8.33455C10.591 8.33455 9.93198 7.67554 9 7.67554Z" fill="#1C1C1C"/>
<path d="M16.7055 10.2621C16.7948 10.3815 16.9281 10.4609 17.0758 10.4823C17.1024 10.4861 17.1293 10.488 17.1563 10.488L17.1573 10.488C17.2783 10.4878 17.3961 10.4486 17.493 10.3761C17.6351 10.2699 17.7188 10.1029 17.7188 9.92555L17.7187 9.91911C17.7174 9.79993 17.6782 9.68427 17.6068 9.5888L17.6063 9.58816C16.9302 8.68382 15.9202 8.17883 15.9202 8.17883C14.9099 7.67366 13.7803 7.67555 13.7803 7.67555L13.7813 7.67555C14.0919 7.67555 14.3438 7.92739 14.3438 8.23805C14.3438 8.54822 14.0927 8.79986 13.7825 8.80055L16.7055 10.2621Z" fill="#1C1C1C"/>
<path d="M2.58288 9.18506C3.35479 8.79911 4.21781 8.80055 4.21781 8.80055L4.2186 8.80055C4.22729 8.80055 4.23614 8.80035 4.24483 8.79994C4.38452 8.79346 4.51679 8.73518 4.61583 8.63646C4.7215 8.53115 4.781 8.38818 4.78125 8.23899L4.78125 8.23821C4.78125 8.2042 4.77816 8.17008 4.77203 8.13662C4.72313 7.86988 4.49088 7.676 4.21969 7.67555L4.21875 7.67555C3.08968 7.67387 2.07976 8.17883 2.07976 8.17883C1.06979 8.68382 0.393666 9.58816 0.393666 9.58816L0.393259 9.58871C0.320517 9.68603 0.28125 9.80416 0.28125 9.92555L0.281281 9.93144C0.281542 9.95641 0.283465 9.98132 0.287037 10.006C0.308382 10.1537 0.387506 10.2868 0.507003 10.3761C0.604234 10.4488 0.722364 10.488 0.84375 10.488C0.85127 10.488 0.85879 10.4879 0.866305 10.4876C1.03563 10.4808 1.19287 10.398 1.29431 10.2623C1.81097 9.57101 2.58288 9.18506 2.58288 9.18506Z" fill="#1C1C1C"/>
<path d="M11.0895 13.9012C12.048 14.4999 12.544 15.5151 12.544 15.5151L12.5444 15.5157C12.6387 15.7089 12.835 15.8318 13.05 15.8318L13.0654 15.8316C13.1457 15.8294 13.2246 15.81 13.2968 15.7747C13.49 15.6804 13.6125 15.4842 13.6125 15.2693L13.6123 15.2539C13.6101 15.1736 13.5907 15.0947 13.5555 15.0225C12.9179 13.7171 11.6855 12.947 11.6855 12.947C10.453 12.1773 8.99999 12.1773 8.99999 12.1773C7.54695 12.1773 6.31452 12.947 6.31452 12.947C5.08231 13.7166 4.44475 15.022 4.44475 15.022C4.4072 15.0989 4.38749 15.1837 4.38749 15.2693L4.38754 15.2766C4.38832 15.3364 4.39862 15.3956 4.41806 15.4522C4.46656 15.5932 4.56912 15.7093 4.70318 15.7747C4.78004 15.8123 4.86446 15.8318 4.94999 15.8318L4.96291 15.8316C5.17317 15.8268 5.36317 15.7051 5.45545 15.5161C5.95153 14.5001 6.91047 13.9012 6.91047 13.9012C7.8694 13.3023 8.99999 13.3023 8.99999 13.3023C10.1306 13.3023 11.0895 13.9012 11.0895 13.9012Z" fill="#1C1C1C"/>
<path d="M5.44632 4.83257C5.78208 5.18996 5.87403 5.67162 5.87403 5.67162C5.902 5.81816 5.98704 5.94759 6.11044 6.03143C6.20368 6.09478 6.31382 6.12865 6.42655 6.12865L6.4302 6.12864C6.46437 6.12842 6.49845 6.12509 6.53202 6.11868C6.79722 6.06806 6.98905 5.83615 6.98905 5.56615L6.98904 5.56299C6.98885 5.52865 6.98551 5.49441 6.97907 5.46069C6.82584 4.6579 6.26623 4.06226 6.26623 4.06226C5.70663 3.46663 4.91496 3.26365 4.91496 3.26365C4.12329 3.06067 3.34612 3.31358 3.34612 3.31358C2.56896 3.56649 2.04837 4.19651 2.04837 4.19651C1.52778 4.82653 1.42589 5.63743 1.42589 5.63743C1.32401 6.44833 1.67258 7.18755 1.67258 7.18755C2.02114 7.92677 2.71159 8.36406 2.71159 8.36406C3.40179 8.80121 4.2186 8.80055 4.2186 8.80055L4.21931 8.80053C4.36849 8.80038 4.51151 8.74097 4.61689 8.63537C4.72213 8.52992 4.78125 8.3872 4.78125 8.23821L4.78124 8.23746C4.78092 7.92702 4.52919 7.67555 4.21875 7.67555L4.21817 7.67553C3.7278 7.67603 3.31353 7.41365 3.31353 7.41365C2.89927 7.15127 2.69013 6.70774 2.69013 6.70774C2.48099 6.26421 2.54212 5.77767 2.54212 5.77767C2.60325 5.29113 2.9156 4.91312 2.9156 4.91312C3.22796 4.53511 3.69426 4.38336 3.69426 4.38336C4.16055 4.23162 4.63556 4.3534 4.63556 4.3534C5.11056 4.47519 5.44632 4.83257 5.44632 4.83257Z" fill="#1C1C1C"/>
<path d="M14.6865 7.41365C14.2722 7.67603 13.7818 7.67553 13.7818 7.67553L13.7813 7.67555C13.7724 7.67555 13.7636 7.67574 13.7548 7.67615L13.2194 8.26448C13.226 8.40416 13.2843 8.53639 13.3831 8.63537C13.4885 8.74097 13.6315 8.80038 13.7807 8.80053L13.7813 8.80053C14.5982 8.80121 15.2884 8.36406 15.2884 8.36406C15.9789 7.92677 16.3274 7.18755 16.3274 7.18755C16.676 6.44833 16.5741 5.63743 16.5741 5.63743C16.4722 4.82653 15.9516 4.19651 15.9516 4.19651C15.431 3.56649 14.6539 3.31358 14.6539 3.31358C13.8767 3.06067 13.085 3.26365 13.085 3.26365C12.2934 3.46663 11.7338 4.06226 11.7338 4.06226C11.1742 4.6579 11.0209 5.46069 11.0209 5.46069C11.0143 5.49545 11.0109 5.53076 11.0109 5.56615C11.0109 5.58306 11.0117 5.59995 11.0132 5.61679C11.0358 5.86682 11.2214 6.07161 11.468 6.11868C11.5027 6.12531 11.5381 6.12865 11.5734 6.12865C11.5903 6.12865 11.6072 6.12789 11.6241 6.12637C11.8741 6.10377 12.0789 5.91822 12.126 5.67162C12.2179 5.18995 12.5537 4.83257 12.5537 4.83257C12.8894 4.47519 13.3644 4.3534 13.3644 4.3534C13.8394 4.23162 14.3057 4.38336 14.3057 4.38336C14.772 4.53511 15.0844 4.91312 15.0844 4.91312C15.3967 5.29113 15.4579 5.77767 15.4579 5.77767C15.519 6.26421 15.3099 6.70774 15.3099 6.70774C15.1007 7.15127 14.6865 7.41365 14.6865 7.41365Z" fill="#1C1C1C"/>
</svg>
