<svg width="16" height="17" viewBox="0 0 16 17" fill="none" xmlns="http://www.w3.org/2000/svg">
<path fill-rule="evenodd" clip-rule="evenodd" d="M8 1.58179C8 1.58179 8.91519 1.58179 9.75176 1.93562C9.75176 1.93562 10.5594 2.27723 11.182 2.89981C11.182 2.89981 11.8046 3.52238 12.1462 4.33003C12.1462 4.33003 12.5 5.1666 12.5 6.08179C12.5 6.08179 12.5 6.99698 12.1462 7.83354C12.1462 7.83354 11.8046 8.64119 11.182 9.26377C11.182 9.26377 10.5594 9.88635 9.75176 10.228C9.75176 10.228 8.91519 10.5818 8 10.5818C8 10.5818 7.08481 10.5818 6.24824 10.228C6.24824 10.228 5.4406 9.88634 4.81802 9.26377C4.81802 9.26377 4.19545 8.64119 3.85384 7.83354C3.85384 7.83354 3.5 6.99698 3.5 6.08179C3.5 6.08179 3.5 5.1666 3.85384 4.33003C3.85384 4.33003 4.19544 3.52238 4.81802 2.89981C4.81802 2.89981 5.4406 2.27723 6.24824 1.93562C6.24824 1.93562 7.08481 1.58179 8 1.58179ZM8 2.58179C8 2.58179 6.55025 2.58179 5.52513 3.60691C5.52513 3.60691 4.5 4.63204 4.5 6.08179C4.5 6.08179 4.5 7.53154 5.52513 8.55666C5.52513 8.55666 6.55025 9.58179 8 9.58179C8 9.58179 9.44975 9.58179 10.4749 8.55666C10.4749 8.55666 11.5 7.53154 11.5 6.08179C11.5 6.08179 11.5 4.63204 10.4749 3.60691C10.4749 3.60691 9.44975 2.58179 8 2.58179Z" fill="#1C1C1C"/>
<path d="M11.2503 11.4522C12.7587 12.3232 13.6295 13.8318 13.6295 13.8318C13.6958 13.9466 13.805 14.0304 13.933 14.0647C13.9753 14.0761 14.0188 14.0818 14.0625 14.0818C14.0677 14.0818 14.073 14.0817 14.0782 14.0816C14.1606 14.079 14.2411 14.056 14.3125 14.0148C14.4672 13.9255 14.5625 13.7604 14.5625 13.5818C14.5625 13.5741 14.5623 13.5664 14.562 13.5587C14.5583 13.4788 14.5355 13.401 14.4955 13.3318C13.4908 11.5912 11.7503 10.5862 11.7503 10.5862C10.0098 9.58124 8 9.58124 8 9.58124C5.9902 9.58124 4.2497 10.5862 4.2497 10.5862C2.50934 11.5911 1.50462 13.3316 1.50462 13.3316C1.46075 13.4076 1.4375 13.494 1.4375 13.5818L1.43758 13.5908C1.43832 13.6315 1.44402 13.672 1.45455 13.7113C1.48888 13.8393 1.57269 13.9485 1.68754 14.0148C1.76354 14.0587 1.84975 14.0818 1.9375 14.0818C1.94675 14.0818 1.95601 14.0815 1.96525 14.081C2.13375 14.0717 2.28617 13.9779 2.37054 13.8318C3.24131 12.3232 4.74974 11.4522 4.74974 11.4522C6.25817 10.5812 8 10.5812 8 10.5812C9.74183 10.5812 11.2503 11.4522 11.2503 11.4522Z" fill="#1C1C1C"/>
</svg>
