<svg width="21" height="20" viewBox="0 0 21 20" fill="none" xmlns="http://www.w3.org/2000/svg">
<path d="M5.09253 8.12495C5.09146 7.38403 5.23703 6.65015 5.52084 5.96572C5.80466 5.28125 6.22107 4.65972 6.74597 4.13688C7.27103 3.61404 7.89435 3.20022 8.57993 2.91927C9.26566 2.63835 10.0001 2.49583 10.741 2.49995C13.8347 2.52341 16.3112 5.09372 16.3112 8.19526V8.74995C16.3112 11.5469 16.8972 13.1718 17.4128 14.0625C17.4676 14.1573 17.4966 14.2649 17.4966 14.3744C17.4967 14.4839 17.468 14.5916 17.4134 14.6865C17.3588 14.7814 17.2802 14.8604 17.1856 14.9154C17.0908 14.9704 16.9832 14.9996 16.8738 15H4.53009C4.42053 14.9996 4.31296 14.9704 4.21835 14.9154C4.1236 14.8604 4.04501 14.7814 3.99039 14.6865C3.93576 14.5916 3.90707 14.4839 3.90723 14.3744C3.90738 14.2649 3.93622 14.1573 3.991 14.0625C4.50659 13.1718 5.09253 11.5469 5.09253 8.74995V8.12495Z" fill="black" fill-opacity="0.1"/>
<path fill-rule="evenodd" clip-rule="evenodd" d="M4.46753 8.74994V8.12494C4.46753 8.12494 4.46577 6.87852 4.94348 5.72632C4.94348 5.72632 5.42119 4.57413 6.305 3.69398C6.305 3.69398 7.18881 2.81384 8.34298 2.34093C8.34298 2.34093 9.49716 1.86801 10.7444 1.87495C10.7444 1.87495 12.0127 1.88456 13.1676 2.39122C13.1676 2.39122 14.2787 2.87869 15.1341 3.75733C15.1341 3.75733 15.9862 4.63254 16.4534 5.76109C16.4534 5.76109 16.9363 6.92723 16.9363 8.19526V8.74994C16.9363 8.74994 16.9363 11.9919 17.9537 13.7493C17.9537 13.7493 18.1213 14.0395 18.1216 14.3738C18.1216 14.3738 18.1219 14.7082 17.9552 14.998C17.9552 14.998 17.7885 15.2879 17.4994 15.4558C17.4994 15.4558 17.2103 15.6238 16.876 15.6249L4.53003 15.6249C4.53003 15.6249 4.19348 15.6238 3.90437 15.4558C3.90437 15.4558 3.61526 15.2879 3.44859 14.998C3.44859 14.998 3.28193 14.7082 3.28223 14.3738C3.28223 14.3738 3.28252 14.0395 3.4497 13.7499C3.4497 13.7499 4.46753 11.9919 4.46753 8.74994ZM5.71753 8.74994C5.71753 8.74994 5.71753 12.3276 4.53223 14.3749L16.8716 14.3749C16.8716 14.3749 15.6863 12.3271 15.6863 8.74994V8.19526C15.6863 8.19526 15.6863 6.11647 14.2384 4.62928C14.2384 4.62928 12.789 3.14048 10.7375 3.12493C10.7375 3.12493 9.73997 3.11938 8.81692 3.4976C8.81692 3.4976 7.89387 3.87581 7.18705 4.5797C7.18705 4.5797 6.48022 5.2836 6.09817 6.20507C6.09817 6.20507 5.71612 7.12654 5.71753 8.12494V8.74994Z" fill="#1C1C1C"/>
<path d="M13.8271 15.625V15C13.8271 14.6548 13.5473 14.375 13.2021 14.375C12.857 14.375 12.5771 14.6548 12.5771 15V15.625C12.5771 16.4016 12.028 16.9508 12.028 16.9508C11.4788 17.5 10.7021 17.5 10.7021 17.5C9.9255 17.5 9.37632 16.9508 9.37632 16.9508C8.82715 16.4017 8.82715 15.625 8.82715 15.625V15C8.82715 14.6548 8.54733 14.375 8.20215 14.375C7.85697 14.375 7.57715 14.6548 7.57715 15L7.57715 15.625C7.57715 16.9194 8.49244 17.8347 8.49244 17.8347C9.40773 18.75 10.7021 18.75 10.7021 18.75C11.9966 18.75 12.9119 17.8347 12.9119 17.8347C13.8271 16.9194 13.8271 15.625 13.8271 15.625Z" fill="#1C1C1C"/>
</svg>
