<svg width="18" height="18" viewBox="0 0 18 18" fill="none" xmlns="http://www.w3.org/2000/svg">
<path fill-rule="evenodd" clip-rule="evenodd" d="M2.09375 4.30054C2.09375 4.30054 2.09375 3.86044 2.40495 3.54924C2.40495 3.54924 2.71615 3.23804 3.15625 3.23804H14.8438C14.8438 3.23804 15.2839 3.23804 15.5951 3.54924C15.5951 3.54924 15.9062 3.86043 15.9062 4.30054V12.2693C15.9062 12.2693 15.9062 12.7094 15.5951 13.0206C15.5951 13.0206 15.2839 13.3318 14.8438 13.3318H3.15625C3.15625 13.3318 2.71615 13.3318 2.40495 13.0206C2.40495 13.0206 2.09375 12.7094 2.09375 12.2693V4.30054ZM3.15625 4.30054V12.2693H14.8438V4.30054H3.15625Z" fill="#1C1C1C"/>
<path d="M12.835 15.7884C12.923 15.8984 13.0513 15.9692 13.1913 15.9848C13.2108 15.987 13.2304 15.988 13.25 15.988C13.2561 15.988 13.2623 15.9879 13.2684 15.9877C13.3827 15.9838 13.4926 15.943 13.5819 15.8716C13.7079 15.7708 13.7812 15.6182 13.7812 15.4568C13.7812 15.4489 13.7811 15.4411 13.7807 15.4332C13.7757 15.3208 13.7352 15.2128 13.6648 15.1249L11.5398 12.4687C11.439 12.3426 11.2864 12.2693 11.125 12.2693C11.1171 12.2693 11.1093 12.2695 11.1014 12.2698C10.989 12.2748 10.881 12.3154 10.7931 12.3857C10.6671 12.4865 10.5938 12.6392 10.5938 12.8005C10.5938 12.8084 10.5939 12.8162 10.5943 12.8241C10.5993 12.9365 10.6398 13.0445 10.7102 13.1324L12.835 15.7884Z" fill="#1C1C1C"/>
<path d="M7.28984 13.1324L7.29172 13.13C7.3659 13.0362 7.40625 12.9201 7.40625 12.8005C7.40625 12.6392 7.33289 12.4865 7.20687 12.3857C7.19363 12.3751 7.17989 12.3652 7.16571 12.3559C7.07928 12.2994 6.97826 12.2693 6.875 12.2693C6.8554 12.2693 6.83581 12.2704 6.81633 12.2725L6.81512 12.2727C6.67554 12.2885 6.54792 12.359 6.46016 12.4687L4.33533 15.1247C4.25997 15.2189 4.21875 15.3362 4.21875 15.4568L4.21876 15.4606C4.21992 15.6207 4.29316 15.7716 4.41813 15.8716C4.51233 15.947 4.62937 15.988 4.75 15.988H4.75105C4.7703 15.988 4.78953 15.9869 4.80867 15.9848C4.9487 15.9692 5.07682 15.8987 5.16484 15.7887L7.28984 13.1324Z" fill="#1C1C1C"/>
<path d="M6.34375 8.55054V10.1443C6.34375 10.4377 6.5816 10.6755 6.875 10.6755C7.1684 10.6755 7.40625 10.4377 7.40625 10.1443V8.55054C7.40625 8.25714 7.1684 8.01929 6.875 8.01929C6.5816 8.01929 6.34375 8.25714 6.34375 8.55054Z" fill="#1C1C1C"/>
<path d="M8.46875 7.48804V10.1443C8.46875 10.4377 8.7066 10.6755 9 10.6755C9.2934 10.6755 9.53125 10.4377 9.53125 10.1443V7.48804C9.53125 7.19464 9.2934 6.95679 9 6.95679C8.7066 6.95679 8.46875 7.19464 8.46875 7.48804Z" fill="#1C1C1C"/>
<path d="M10.5938 6.42554V10.1443C10.5938 10.4377 10.8316 10.6755 11.125 10.6755C11.4184 10.6755 11.6562 10.4377 11.6562 10.1443V6.42554C11.6562 6.13214 11.4184 5.89429 11.125 5.89429C10.8316 5.89429 10.5938 6.13214 10.5938 6.42554Z" fill="#1C1C1C"/>
<path d="M9.53125 3.76929V2.17554C9.53125 1.88214 9.2934 1.64429 9 1.64429C8.7066 1.64429 8.46875 1.88214 8.46875 2.17554V3.76929C8.46875 4.06269 8.7066 4.30054 9 4.30054C9.2934 4.30054 9.53125 4.06269 9.53125 3.76929Z" fill="#1C1C1C"/>
</svg>
