<svg width="19" height="19" viewBox="0 0 19 19" fill="none" xmlns="http://www.w3.org/2000/svg">
<path d="M15.6084 2.66446L1.77411 6.56095C1.65633 6.59313 1.55131 6.66086 1.47346 6.75486C1.39555 6.84887 1.34851 6.96462 1.3388 7.08631C1.32909 7.208 1.35706 7.32973 1.41903 7.43494C1.481 7.54014 1.57385 7.62371 1.68503 7.67423L8.03813 10.6801C8.16257 10.7377 8.26252 10.8377 8.32014 10.9621L11.326 17.3152C11.3765 17.4264 11.4601 17.5193 11.5653 17.5812C11.6705 17.6432 11.7923 17.6712 11.914 17.6614C12.0356 17.6517 12.1514 17.6047 12.2454 17.5268C12.3394 17.4489 12.4071 17.3439 12.4393 17.2262L16.3358 3.39179C16.3653 3.29083 16.3672 3.18381 16.3411 3.08191C16.315 2.98 16.262 2.88697 16.1876 2.81261C16.1133 2.73821 16.0203 2.68523 15.9184 2.65917C15.8165 2.63308 15.7094 2.63493 15.6084 2.66446Z" fill="black" fill-opacity="0.1"/>
<path fill-rule="evenodd" clip-rule="evenodd" d="M16.0654 2.08392C16.0654 2.08392 15.7549 2.00451 15.4474 2.09291L15.445 2.0936L1.61737 5.98819C1.61737 5.98819 1.25547 6.08714 1.01611 6.37605C1.01611 6.37605 0.776747 6.66496 0.746828 7.03895C0.746828 7.03895 0.716909 7.41294 0.907293 7.73624C0.907293 7.73624 1.09768 8.05953 1.43096 8.21091L7.78357 11.2165L10.7854 17.5609C10.7854 17.5609 10.9406 17.9024 11.2639 18.0928C11.2639 18.0928 11.5872 18.2832 11.9612 18.2533C11.9612 18.2533 12.3352 18.2234 12.6241 17.984C12.6241 17.984 12.913 17.7446 13.0107 17.3871L16.9056 3.55845C16.9056 3.55845 16.9963 3.24806 16.9162 2.93474C16.9162 2.93474 16.836 2.62143 16.6074 2.39275C16.6074 2.39275 16.3787 2.16407 16.0654 2.08392ZM1.93055 7.13365L15.7622 3.23796L11.8677 17.0652L11.8665 17.0696L8.85676 10.7082C8.85676 10.7082 8.678 10.3221 8.28754 10.1413L1.93883 7.13749L1.93055 7.13365Z" fill="#1C1C1C"/>
<path d="M12.0048 7.8345L12.005 7.83427C12.1164 7.72292 12.1789 7.5719 12.1789 7.41443C12.1789 7.25696 12.1164 7.10593 12.005 6.99458L12.0047 6.99424L11.9999 6.98952L11.9995 6.98918C11.8887 6.88114 11.74 6.82068 11.5852 6.82068C11.5673 6.82068 11.5495 6.82148 11.5318 6.82308C11.3933 6.83557 11.2636 6.89627 11.1653 6.99458L11.1651 6.99481L7.81085 10.349L7.81062 10.3493C7.69927 10.4606 7.63672 10.6116 7.63672 10.7691C7.63672 10.7786 7.63695 10.7881 7.6374 10.7976C7.64449 10.9451 7.70625 11.0846 7.81062 11.189C7.92197 11.3003 8.073 11.3629 8.23047 11.3629C8.38794 11.3629 8.53896 11.3003 8.65031 11.189L8.65054 11.1887L12.0048 7.8345Z" fill="#1C1C1C"/>
</svg>
