<svg width="21" height="20" viewBox="0 0 21 20" fill="none" xmlns="http://www.w3.org/2000/svg">
<path fill-rule="evenodd" clip-rule="evenodd" d="M5.07715 2.5H16.3271C16.4929 2.5 16.6519 2.56592 16.769 2.68311C16.8862 2.80029 16.9521 2.95929 16.9521 3.125V16.875C16.9521 17.0407 16.8862 17.1997 16.769 17.3169C16.6519 17.4341 16.4929 17.5 16.3271 17.5H5.07715C4.91144 17.5 4.75244 17.4341 4.63525 17.3169C4.51807 17.1997 4.45215 17.0407 4.45215 16.875V3.125C4.45215 2.95929 4.51807 2.80029 4.63525 2.68311C4.75244 2.56592 4.91144 2.5 5.07715 2.5ZM9.31329 12.7037C9.72437 12.9784 10.2078 13.125 10.7021 13.125C11.3651 13.125 12.0011 12.8616 12.4699 12.3927C12.9388 11.924 13.2021 11.288 13.2021 10.625C13.2021 10.1306 13.0555 9.64722 12.7809 9.23615C12.506 8.82492 12.1157 8.50449 11.6589 8.31528C11.202 8.12607 10.6994 8.07663 10.2145 8.17307C9.7294 8.2695 9.284 8.50754 8.93442 8.85727C8.58469 9.20685 8.34665 9.65225 8.25021 10.1373C8.15378 10.6223 8.20322 11.1249 8.39243 11.5817C8.58163 12.0386 8.90207 12.4289 9.31329 12.7037Z" fill="black" fill-opacity="0.1"/>
<path fill-rule="evenodd" clip-rule="evenodd" d="M10.7021 7.5C10.7021 7.5 11.9966 7.5 12.9119 8.41529C12.9119 8.41529 13.8271 9.33058 13.8271 10.625C13.8271 10.625 13.8271 11.9194 12.9119 12.8347C12.9119 12.8347 11.9966 13.75 10.7021 13.75C10.7021 13.75 9.40773 13.75 8.49244 12.8347C8.49244 12.8347 7.57715 11.9194 7.57715 10.625C7.57715 10.625 7.57715 9.33058 8.49244 8.41529C8.49244 8.41529 9.40773 7.5 10.7021 7.5ZM10.7021 8.75C10.7021 8.75 9.9255 8.75 9.37632 9.29917C9.37632 9.29917 8.82715 9.84835 8.82715 10.625C8.82715 10.625 8.82715 11.4017 9.37632 11.9508C9.37632 11.9508 9.9255 12.5 10.7021 12.5C10.7021 12.5 11.4788 12.5 12.028 11.9508C12.028 11.9508 12.5771 11.4017 12.5771 10.625C12.5771 10.625 12.5771 9.84835 12.028 9.29917C12.028 9.29917 11.4788 8.75 10.7021 8.75Z" fill="#1C1C1C"/>
<path d="M12.519 14.1789C13.3767 14.6078 13.9521 15.375 13.9521 15.375C14.0516 15.5076 14.1997 15.5953 14.3638 15.6187C14.393 15.6229 14.4226 15.625 14.4521 15.625L14.4543 15.625C14.5888 15.6245 14.7195 15.5807 14.8271 15.5C14.9845 15.382 15.0771 15.1967 15.0771 15L15.0771 14.9918C15.0754 14.8594 15.0316 14.7309 14.9521 14.625C14.1997 13.6217 13.078 13.0609 13.078 13.0609C11.9563 12.5 10.7021 12.5 10.7021 12.5C9.44804 12.5 8.32633 13.0609 8.32633 13.0609C7.20462 13.6217 6.45215 14.625 6.45215 14.625C6.37101 14.7332 6.32715 14.8648 6.32715 15L6.32717 15.0055C6.32742 15.0332 6.32951 15.0609 6.33343 15.0884C6.35687 15.2525 6.44454 15.4005 6.57715 15.5C6.68533 15.5811 6.81692 15.625 6.95215 15.625L6.95765 15.625C6.98539 15.6247 7.01308 15.6226 7.04054 15.6187C7.20463 15.5953 7.35269 15.5076 7.45215 15.375C8.02756 14.6078 8.88534 14.1789 8.88534 14.1789C9.74312 13.75 10.7021 13.75 10.7021 13.75C11.6612 13.75 12.519 14.1789 12.519 14.1789Z" fill="#1C1C1C"/>
<path fill-rule="evenodd" clip-rule="evenodd" d="M16.3271 1.875C16.3271 1.875 16.8449 1.875 17.211 2.24112C17.211 2.24112 17.5771 2.60723 17.5771 3.125V16.875C17.5771 16.875 17.5771 17.3928 17.211 17.7589C17.211 17.7589 16.8449 18.125 16.3271 18.125H5.07715C5.07715 18.125 4.55938 18.125 4.19326 17.7589C4.19326 17.7589 3.82715 17.3928 3.82715 16.875L3.82715 3.125C3.82715 3.125 3.82715 2.60723 4.19326 2.24112C4.19326 2.24112 4.55938 1.875 5.07715 1.875L16.3271 1.875ZM16.3271 3.125L5.07715 3.125L5.07715 16.875H16.3271V3.125Z" fill="#1C1C1C"/>
<path d="M8.20215 5.625H13.2021C13.5473 5.625 13.8271 5.34518 13.8271 5C13.8271 4.65482 13.5473 4.375 13.2021 4.375H8.20215C7.85697 4.375 7.57715 4.65482 7.57715 5C7.57715 5.34518 7.85697 5.625 8.20215 5.625Z" fill="#1C1C1C"/>
</svg>
