<svg width="32" height="32" viewBox="0 0 32 32" fill="none" xmlns="http://www.w3.org/2000/svg">
<path fill-rule="evenodd" clip-rule="evenodd" d="M8.92896 5.92896C10.8043 4.05359 13.3478 3 16 3C18.6522 3 21.1957 4.05359 23.071 5.92896C24.9464 7.80432 26 10.3478 26 13C26 22 16 29 16 29C16 29 6 22 6 13C6 10.3478 7.05359 7.80432 8.92896 5.92896ZM13.7777 16.3259C14.4355 16.7654 15.2089 17 16 17C17.0609 17 18.0782 16.5786 18.8284 15.8284C19.5786 15.0782 20 14.0609 20 13C20 12.2089 19.7654 11.4355 19.3259 10.7777C18.8864 10.1199 18.2616 9.60718 17.5308 9.30444C16.7998 9.00171 15.9956 8.92249 15.2196 9.0769C14.4437 9.2312 13.731 9.61218 13.1716 10.1716C12.6122 10.731 12.2312 11.4437 12.0769 12.2196C11.9225 12.9956 12.0017 13.7998 12.3044 14.5308C12.6072 15.2616 13.1199 15.8864 13.7777 16.3259Z" fill="black" fill-opacity="0.1"/>
<path d="M7 30H25C25.5523 30 26 29.5523 26 29C26 28.4477 25.5523 28 25 28H7C6.44772 28 6 28.4477 6 29C6 29.5523 6.44772 30 7 30Z" fill="#1C1C1C"/>
<path fill-rule="evenodd" clip-rule="evenodd" d="M16 8C16 8 18.0711 8 19.5355 9.46447C19.5355 9.46447 21 10.9289 21 13C21 13 21 15.0711 19.5355 16.5355C19.5355 16.5355 18.0711 18 16 18C16 18 13.9289 18 12.4645 16.5355C12.4645 16.5355 11 15.0711 11 13C11 13 11 10.9289 12.4645 9.46447C12.4645 9.46447 13.9289 8 16 8ZM16 10C16 10 14.7574 10 13.8787 10.8787C13.8787 10.8787 13 11.7574 13 13C13 13 13 14.2426 13.8787 15.1213C13.8787 15.1213 14.7574 16 16 16C16 16 17.2426 16 18.1213 15.1213C18.1213 15.1213 19 14.2426 19 13C19 13 19 11.7574 18.1213 10.8787C18.1213 10.8787 17.2426 10 16 10Z" fill="#1C1C1C"/>
<path fill-rule="evenodd" clip-rule="evenodd" d="M26.1627 8.79048C26.1627 8.79048 27 10.812 27 13C27 13 27 18.999 21.7546 25.0312C21.7546 25.0312 20.1426 26.885 18.2101 28.5276C18.2101 28.5276 17.2369 29.3548 16.5735 29.8192C16.2291 30.0603 15.7709 30.0603 15.4265 29.8192C15.4265 29.8192 14.7631 29.3548 13.7899 28.5276C13.7899 28.5276 11.8574 26.885 10.2454 25.0312C10.2454 25.0312 5 18.999 5 13C5 13 5 10.812 5.83733 8.79048C5.83733 8.79048 6.67465 6.769 8.22182 5.22183C8.22182 5.22183 9.769 3.67465 11.7905 2.83733C11.7905 2.83733 13.812 2 16 2C16 2 18.188 2 20.2095 2.83733C20.2095 2.83733 22.231 3.67465 23.7782 5.22182C23.7782 5.22182 25.3254 6.769 26.1627 8.79048ZM25 13C25 13 25 11.2098 24.3149 9.55585C24.3149 9.55585 23.6298 7.90191 22.364 6.63604C22.364 6.63604 21.0981 5.37017 19.4441 4.68508C19.4441 4.68508 17.7902 4 16 4C16 4 14.2098 4 12.5558 4.68508C12.5558 4.68508 10.9019 5.37017 9.63604 6.63604C9.63604 6.63604 8.37017 7.90191 7.68508 9.55585C7.68508 9.55585 7 11.2098 7 13C7 13 7 18.251 11.7546 23.7188C11.7546 23.7188 13.2676 25.4588 15.0851 27.0037C15.0851 27.0037 15.5925 27.4349 16 27.7535C16 27.7535 16.4075 27.4349 16.9149 27.0037C16.9149 27.0037 18.7324 25.4588 20.2454 23.7188C20.2454 23.7188 25 18.251 25 13Z" fill="#1C1C1C"/>
</svg>
