<svg width="29" height="28" viewBox="0 0 29 28" fill="none" xmlns="http://www.w3.org/2000/svg">
<path d="M7.82715 20.25C7.66136 20.25 7.50244 20.1842 7.38518 20.067C7.26799 19.9497 7.20215 19.7908 7.20215 19.625V8.375C7.20215 8.20921 7.26799 8.05029 7.38518 7.93303C7.50244 7.81584 7.66136 7.75 7.82715 7.75H11.5771V20.25H7.82715Z" fill="black" fill-opacity="0.1"/>
<path d="M10.9521 7.75V20.25C10.9521 20.5952 11.232 20.875 11.5771 20.875C11.9223 20.875 12.2021 20.5952 12.2021 20.25V7.75C12.2021 7.40482 11.9223 7.125 11.5771 7.125C11.232 7.125 10.9521 7.40482 10.9521 7.75Z" fill="#1C1C1C"/>
<path fill-rule="evenodd" clip-rule="evenodd" d="M6.57715 8.375C6.57715 8.375 6.57715 7.85723 6.94327 7.49112C6.94327 7.49112 7.30938 7.125 7.82715 7.125H21.5771C21.5771 7.125 22.0949 7.125 22.461 7.49112C22.461 7.49112 22.8271 7.85723 22.8271 8.375V19.625C22.8271 19.625 22.8271 20.1428 22.461 20.5089C22.461 20.5089 22.0949 20.875 21.5771 20.875H7.82715C7.82715 20.875 7.30938 20.875 6.94326 20.5089C6.94326 20.5089 6.57715 20.1428 6.57715 19.625V8.375ZM7.82715 8.375V19.625H21.5771V8.375H7.82715Z" fill="#1C1C1C"/>
<path d="M7.20215 10.875H9.07715C9.42233 10.875 9.70215 10.5952 9.70215 10.25C9.70215 9.90482 9.42233 9.625 9.07715 9.625H7.20215C6.85697 9.625 6.57715 9.90482 6.57715 10.25C6.57715 10.5952 6.85697 10.875 7.20215 10.875Z" fill="#1C1C1C"/>
<path d="M7.20215 13.375H9.07715C9.42233 13.375 9.70215 13.0952 9.70215 12.75C9.70215 12.4048 9.42233 12.125 9.07715 12.125H7.20215C6.85697 12.125 6.57715 12.4048 6.57715 12.75C6.57715 13.0952 6.85697 13.375 7.20215 13.375Z" fill="#1C1C1C"/>
<path d="M7.20215 15.875H9.07715C9.42233 15.875 9.70215 15.5952 9.70215 15.25C9.70215 14.9048 9.42233 14.625 9.07715 14.625H7.20215C6.85697 14.625 6.57715 14.9048 6.57715 15.25C6.57715 15.5952 6.85697 15.875 7.20215 15.875Z" fill="#1C1C1C"/>
</svg>
