<svg width="41" height="41" viewBox="0 0 41 41" fill="none" xmlns="http://www.w3.org/2000/svg">
<path d="M16.664 10.6378L17.74 10.2938C18.75 9.97185 19.827 10.4928 20.26 11.5108L21.119 13.5388C21.493 14.4218 21.286 15.4608 20.605 16.1068L18.711 17.9048C18.827 18.9808 19.189 20.0398 19.795 21.0818C20.3708 22.0901 21.143 22.9725 22.066 23.6768L24.341 22.9168C25.204 22.6298 26.143 22.9608 26.671 23.7378L27.904 25.5478C28.519 26.4518 28.409 27.6978 27.646 28.4638L26.828 29.2848C26.014 30.1018 24.851 30.3988 23.776 30.0628C21.237 29.2708 18.903 26.9198 16.773 23.0098C14.64 19.0938 13.887 15.7698 14.515 13.0418C14.779 11.8938 15.596 10.9788 16.664 10.6378Z" fill="#707991"/>
</svg>
