<svg width="11" height="9" viewBox="0 0 11 9" fill="none" xmlns="http://www.w3.org/2000/svg">
<path d="M3.958 6.67514L1.74542 4.46256C1.6354 4.3563 1.48805 4.2975 1.3351 4.29883C1.18215 4.30016 1.03585 4.36151 0.92769 4.46966C0.819536 4.57782 0.758187 4.72412 0.756858 4.87707C0.755529 5.03002 0.814326 5.17737 0.920584 5.28739L3.54558 7.91239C3.65498 8.02175 3.80332 8.08318 3.958 8.08318C4.11268 8.08318 4.26103 8.02175 4.37042 7.91239L10.7871 1.49572C10.8933 1.38571 10.9521 1.23835 10.9508 1.08541C10.9495 0.932458 10.8881 0.78615 10.78 0.677996C10.6718 0.569841 10.5255 0.508492 10.3726 0.507163C10.2196 0.505834 10.0723 0.564631 9.96225 0.67089L3.958 6.67514Z" fill="#595959"/>
</svg>
