<svg width="22" height="22" viewBox="0 0 22 22" fill="none" xmlns="http://www.w3.org/2000/svg">
<path d="M14.4375 12.0312C14.4375 13.9298 12.8985 15.4688 11 15.4688C9.10149 15.4688 7.5625 13.9298 7.5625 12.0312C7.5625 10.1327 9.10149 8.59375 11 8.59375C12.8985 8.59375 14.4375 10.1327 14.4375 12.0312Z" fill="black" fill-opacity="0.1"/>
<path d="M7.90625 7.21875C7.90625 8.73759 6.67509 9.96875 5.15625 9.96875C3.63741 9.96875 2.40625 8.73759 2.40625 7.21875C2.40625 5.69991 3.63741 4.46875 5.15625 4.46875C6.67509 4.46875 7.90625 5.69991 7.90625 7.21875Z" fill="black" fill-opacity="0.1"/>
<path d="M19.5938 7.21875C19.5938 8.73759 18.3626 9.96875 16.8438 9.96875C15.3249 9.96875 14.0938 8.73759 14.0938 7.21875C14.0938 5.69991 15.3249 4.46875 16.8438 4.46875C18.3626 4.46875 19.5938 5.69991 19.5938 7.21875Z" fill="black" fill-opacity="0.1"/>
<path fill-rule="evenodd" clip-rule="evenodd" d="M11 7.90625C11 7.90625 12.7086 7.90625 13.9168 9.11443C13.9168 9.11443 15.125 10.3226 15.125 12.0312C15.125 12.0312 15.125 13.7399 13.9168 14.9481C13.9168 14.9481 12.7086 16.1563 11 16.1562C11 16.1562 9.29137 16.1562 8.08318 14.9481C8.08318 14.9481 6.875 13.7399 6.875 12.0312C6.875 12.0312 6.875 10.3226 8.08318 9.11443C8.08318 9.11443 9.29137 7.90625 11 7.90625ZM11 9.28125C11 9.28125 9.86091 9.28125 9.05546 10.0867C9.05546 10.0867 8.25 10.8922 8.25 12.0312C8.25 12.0312 8.25 13.1703 9.05546 13.9758C9.05546 13.9758 9.86091 14.7812 11 14.7812C11 14.7812 12.1391 14.7812 12.9445 13.9758C12.9445 13.9758 13.75 13.1703 13.75 12.0312C13.75 12.0312 13.75 10.8922 12.9445 10.0867C12.9445 10.0867 12.1391 9.28125 11 9.28125Z" fill="#1C1C1C"/>
<path d="M20.418 12.4425L20.4182 12.4428C20.5274 12.5889 20.6901 12.6856 20.8706 12.7117C20.9031 12.7164 20.936 12.7188 20.9689 12.7188L20.9701 12.7188C21.1181 12.7185 21.262 12.6705 21.3805 12.5819C21.5542 12.4522 21.6564 12.2481 21.6564 12.0313L21.6564 12.0234C21.6547 11.8777 21.6068 11.7364 21.5196 11.6197L21.519 11.6189C20.6927 10.5136 19.4582 9.89638 19.4582 9.89638C18.2234 9.27895 16.8428 9.28126 16.8428 9.28126L16.8439 9.28126C17.2236 9.28126 17.5314 9.58906 17.5314 9.96876C17.5314 10.3479 17.2245 10.6554 16.8454 10.6563L20.418 12.4425Z" fill="#1C1C1C"/>
<path d="M3.15685 11.1262C4.1003 10.6545 5.1551 10.6563 5.1551 10.6563L5.15606 10.6563H5.15625C5.16688 10.6563 5.17751 10.656 5.18813 10.6555C5.35886 10.6476 5.52051 10.5764 5.64157 10.4557C5.77072 10.327 5.84344 10.1522 5.84375 9.96991L5.84375 9.96896V9.96876C5.84375 9.92718 5.83998 9.88569 5.83248 9.84479C5.77271 9.51877 5.48885 9.28181 5.1574 9.28126L5.15625 9.28126C3.77628 9.27921 2.54193 9.89638 2.54193 9.89638C1.30752 10.5136 0.481147 11.6189 0.481147 11.6189L0.48065 11.6196C0.391743 11.7385 0.34375 11.8829 0.34375 12.0313L0.343788 12.0385C0.344107 12.069 0.346458 12.0994 0.350823 12.1296C0.376911 12.3101 0.473619 12.4728 0.619671 12.5819C0.738508 12.6708 0.882889 12.7188 1.03125 12.7188C1.04044 12.7188 1.04963 12.7186 1.05882 12.7182C1.26577 12.7099 1.45795 12.6087 1.58194 12.4428C2.21341 11.5979 3.15685 11.1262 3.15685 11.1262Z" fill="#1C1C1C"/>
<path d="M13.5537 16.8904C14.7251 17.6221 15.3314 18.8629 15.3314 18.8629L15.3318 18.8637L15.332 18.8642C15.4473 19.1003 15.6871 19.25 15.9498 19.25L15.9686 19.2497C16.0668 19.2471 16.1632 19.2234 16.2515 19.1803C16.4876 19.065 16.6373 18.8252 16.6373 18.5625L16.637 18.5437C16.6344 18.4455 16.6107 18.3491 16.5676 18.2608L16.5673 18.2603C15.7881 16.6648 14.282 15.7242 14.282 15.7242C12.7757 14.7834 10.9998 14.7834 10.9998 14.7834C9.22386 14.7834 7.71756 15.7242 7.71756 15.7242C6.21152 16.6648 5.43229 18.2603 5.43229 18.2603L5.43205 18.2608C5.38615 18.3548 5.3623 18.458 5.3623 18.5625L5.36236 18.5714C5.36331 18.6445 5.3759 18.7169 5.39966 18.786C5.45894 18.9585 5.5843 19.1003 5.74815 19.1803C5.84209 19.2262 5.94526 19.25 6.0498 19.25L6.06559 19.2498C6.32258 19.2439 6.5548 19.0951 6.66759 18.8642C7.27391 17.6224 8.44594 16.8904 8.44594 16.8904C9.61797 16.1584 10.9998 16.1584 10.9998 16.1584C12.3816 16.1584 13.5537 16.8904 13.5537 16.8904Z" fill="#1C1C1C"/>
<path d="M6.65686 5.80647C7.06724 6.24327 7.17961 6.83198 7.17961 6.83198C7.2138 7.01108 7.31774 7.16926 7.46856 7.27173C7.58253 7.34917 7.71713 7.39057 7.85492 7.39057L7.85938 7.39056C7.90114 7.39028 7.9428 7.38621 7.98383 7.37838C8.30796 7.3165 8.54242 7.03306 8.54242 6.70307L8.54241 6.6992C8.54217 6.65723 8.5381 6.61538 8.53023 6.57416C8.34294 5.59299 7.65897 4.86498 7.65897 4.86498C6.97501 4.13698 6.00742 3.8889 6.00742 3.8889C5.03982 3.64082 4.08996 3.94992 4.08996 3.94992C3.14009 4.25903 2.50381 5.02906 2.50381 5.02906C1.86753 5.79908 1.74301 6.79018 1.74301 6.79018C1.61849 7.78128 2.04451 8.68477 2.04451 8.68477C2.47053 9.58826 3.31441 10.1227 3.31441 10.1227C4.15799 10.657 5.15648 10.6562 5.15648 10.6562L5.15718 10.6562C5.33952 10.656 5.51431 10.5834 5.64311 10.4543C5.77174 10.3254 5.84398 10.1508 5.84398 9.96869L5.84398 9.968C5.8436 9.58857 5.53591 9.28119 5.15648 9.28119L5.15579 9.28119C4.55645 9.2818 4.05012 8.96112 4.05012 8.96112C3.5438 8.64044 3.28818 8.09834 3.28818 8.09834C3.03257 7.55625 3.10728 6.96159 3.10728 6.96159C3.18199 6.36693 3.56376 5.90491 3.56376 5.90491C3.94553 5.4429 4.51545 5.25743 4.51545 5.25743C5.08537 5.07197 5.66593 5.22082 5.66593 5.22082C6.24649 5.36967 6.65686 5.80647 6.65686 5.80647Z" fill="#1C1C1C"/>
<path d="M17.9503 8.96112C17.444 9.2818 16.8446 9.28119 16.8446 9.28119L16.8439 9.28119C16.8332 9.28119 16.8224 9.28145 16.8116 9.28195L16.1572 10.001C16.1652 10.1717 16.2366 10.3334 16.3573 10.4543C16.4861 10.5834 16.6609 10.656 16.8432 10.6562L16.8439 10.6562C17.8424 10.657 18.686 10.1227 18.686 10.1227C19.5299 9.58826 19.9559 8.68477 19.9559 8.68477C20.3819 7.78128 20.2574 6.79018 20.2574 6.79018C20.1329 5.79908 19.4966 5.02906 19.4966 5.02906C18.8603 4.25903 17.9105 3.94992 17.9105 3.94992C16.9606 3.64082 15.993 3.8889 15.993 3.8889C15.0254 4.13698 14.3415 4.86498 14.3415 4.86498C13.6575 5.59298 13.4702 6.57416 13.4702 6.57416C13.4621 6.61665 13.458 6.65981 13.458 6.70307C13.458 6.72373 13.4589 6.74438 13.4608 6.76496C13.4884 7.07055 13.7152 7.32084 14.0166 7.37838C14.0591 7.38649 14.1023 7.39057 14.1455 7.39057C14.1662 7.39057 14.1868 7.38964 14.2074 7.38778C14.513 7.36016 14.7633 7.13337 14.8208 6.83198C14.9332 6.24327 15.3436 5.80647 15.3436 5.80647C15.7539 5.36967 16.3345 5.22082 16.3345 5.22082C16.9151 5.07197 17.485 5.25743 17.485 5.25743C18.0549 5.4429 18.4367 5.90491 18.4367 5.90491C18.8184 6.36692 18.8931 6.96159 18.8931 6.96159C18.9679 7.55625 18.7122 8.09834 18.7122 8.09834C18.4566 8.64044 17.9503 8.96112 17.9503 8.96112Z" fill="#1C1C1C"/>
</svg>
