<svg width="49" height="49" viewBox="0 0 49 49" fill="none" xmlns="http://www.w3.org/2000/svg">
<rect x="0.891602" y="0.198853" width="48" height="48" rx="24" fill="#78E378"/>
<path d="M16.0393 30.1989V18.5625H20.403C21.2969 18.5625 22.0469 18.7178 22.653 19.0284C23.2628 19.339 23.723 19.7746 24.0336 20.3352C24.348 20.892 24.5052 21.5417 24.5052 22.2841C24.5052 23.0303 24.3461 23.678 24.028 24.2273C23.7136 24.7727 23.2496 25.1951 22.6359 25.4943C22.0223 25.7898 21.2685 25.9375 20.3746 25.9375H17.2666V24.1875H20.0905C20.6132 24.1875 21.0412 24.1155 21.3746 23.9716C21.7079 23.8239 21.9541 23.6098 22.1132 23.3295C22.2761 23.0454 22.3575 22.697 22.3575 22.2841C22.3575 21.8712 22.2761 21.5189 22.1132 21.2273C21.9503 20.9318 21.7022 20.7083 21.3689 20.5568C21.0355 20.4015 20.6056 20.3239 20.0791 20.3239H18.1473V30.1989H16.0393ZM22.0507 24.9261L24.9314 30.1989H22.5791L19.7496 24.9261H22.0507ZM26.4456 30.1989V18.5625H33.9001V20.3295H28.5535V23.4886H33.3888V25.2557H28.5535V30.1989H26.4456Z" fill="white"/>
</svg>
