<svg width="343" height="224" viewBox="0 0 343 224" fill="none" xmlns="http://www.w3.org/2000/svg">
<path d="M4.64347 4.27273V13H3.58665V5.38068H3.53551L1.40483 6.79545V5.72159L3.58665 4.27273H4.64347ZM10 13.1193C9.35795 13.1193 8.81108 12.9446 8.35938 12.5952C7.90767 12.2429 7.5625 11.733 7.32386 11.0653C7.08523 10.3949 6.96591 9.58523 6.96591 8.63636C6.96591 7.69318 7.08523 6.88778 7.32386 6.22017C7.56534 5.54972 7.91193 5.03835 8.36364 4.68608C8.81818 4.33097 9.36364 4.15341 10 4.15341C10.6364 4.15341 11.1804 4.33097 11.6321 4.68608C12.0866 5.03835 12.4332 5.54972 12.6719 6.22017C12.9134 6.88778 13.0341 7.69318 13.0341 8.63636C13.0341 9.58523 12.9148 10.3949 12.6761 11.0653C12.4375 11.733 12.0923 12.2429 11.6406 12.5952C11.1889 12.9446 10.642 13.1193 10 13.1193ZM10 12.1818C10.6364 12.1818 11.1307 11.875 11.483 11.2614C11.8352 10.6477 12.0114 9.77273 12.0114 8.63636C12.0114 7.88068 11.9304 7.23722 11.7685 6.70597C11.6094 6.17472 11.3793 5.76989 11.0781 5.49148C10.7798 5.21307 10.4205 5.07386 10 5.07386C9.36932 5.07386 8.87642 5.38494 8.52131 6.0071C8.16619 6.62642 7.98864 7.50284 7.98864 8.63636C7.98864 9.39205 8.06818 10.0341 8.22727 10.5625C8.38636 11.0909 8.61506 11.4929 8.91335 11.7685C9.21449 12.044 9.5767 12.1818 10 12.1818ZM17.5 13.1193C16.858 13.1193 16.3111 12.9446 15.8594 12.5952C15.4077 12.2429 15.0625 11.733 14.8239 11.0653C14.5852 10.3949 14.4659 9.58523 14.4659 8.63636C14.4659 7.69318 14.5852 6.88778 14.8239 6.22017C15.0653 5.54972 15.4119 5.03835 15.8636 4.68608C16.3182 4.33097 16.8636 4.15341 17.5 4.15341C18.1364 4.15341 18.6804 4.33097 19.1321 4.68608C19.5866 5.03835 19.9332 5.54972 20.1719 6.22017C20.4134 6.88778 20.5341 7.69318 20.5341 8.63636C20.5341 9.58523 20.4148 10.3949 20.1761 11.0653C19.9375 11.733 19.5923 12.2429 19.1406 12.5952C18.6889 12.9446 18.142 13.1193 17.5 13.1193ZM17.5 12.1818C18.1364 12.1818 18.6307 11.875 18.983 11.2614C19.3352 10.6477 19.5114 9.77273 19.5114 8.63636C19.5114 7.88068 19.4304 7.23722 19.2685 6.70597C19.1094 6.17472 18.8793 5.76989 18.5781 5.49148C18.2798 5.21307 17.9205 5.07386 17.5 5.07386C16.8693 5.07386 16.3764 5.38494 16.0213 6.0071C15.6662 6.62642 15.4886 7.50284 15.4886 8.63636C15.4886 9.39205 15.5682 10.0341 15.7273 10.5625C15.8864 11.0909 16.1151 11.4929 16.4134 11.7685C16.7145 12.044 17.0767 12.1818 17.5 12.1818ZM26.6023 11.3636V10.9034C26.6023 10.5852 26.6676 10.294 26.7983 10.0298C26.9318 9.76278 27.125 9.54972 27.3778 9.39062C27.6335 9.22869 27.9432 9.14773 28.3068 9.14773C28.6761 9.14773 28.9858 9.22869 29.2358 9.39062C29.4858 9.54972 29.6747 9.76278 29.8026 10.0298C29.9304 10.294 29.9943 10.5852 29.9943 10.9034V11.3636C29.9943 11.6818 29.929 11.9744 29.7983 12.2415C29.6705 12.5057 29.4801 12.7187 29.2273 12.8807C28.9773 13.0398 28.6705 13.1193 28.3068 13.1193C27.9375 13.1193 27.6264 13.0398 27.3736 12.8807C27.1207 12.7187 26.929 12.5057 26.7983 12.2415C26.6676 11.9744 26.6023 11.6818 26.6023 11.3636ZM27.4716 10.9034V11.3636C27.4716 11.6278 27.5341 11.8651 27.6591 12.0753C27.7841 12.2827 28 12.3864 28.3068 12.3864C28.6051 12.3864 28.8153 12.2827 28.9375 12.0753C29.0625 11.8651 29.125 11.6278 29.125 11.3636V10.9034C29.125 10.6392 29.0653 10.4034 28.946 10.196C28.8267 9.9858 28.6136 9.88068 28.3068 9.88068C28.0085 9.88068 27.794 9.9858 27.6634 10.196C27.5355 10.4034 27.4716 10.6392 27.4716 10.9034ZM22.2557 6.36932V5.90909C22.2557 5.59091 22.321 5.29972 22.4517 5.03551C22.5852 4.76847 22.7784 4.5554 23.0312 4.39631C23.2869 4.23437 23.5966 4.15341 23.9602 4.15341C24.3295 4.15341 24.6392 4.23437 24.8892 4.39631C25.1392 4.5554 25.3281 4.76847 25.456 5.03551C25.5838 5.29972 25.6477 5.59091 25.6477 5.90909V6.36932C25.6477 6.6875 25.5824 6.98011 25.4517 7.24716C25.3239 7.51136 25.1335 7.72443 24.8807 7.88636C24.6307 8.04545 24.3239 8.125 23.9602 8.125C23.5909 8.125 23.2798 8.04545 23.027 7.88636C22.7741 7.72443 22.5824 7.51136 22.4517 7.24716C22.321 6.98011 22.2557 6.6875 22.2557 6.36932ZM23.125 5.90909V6.36932C23.125 6.63352 23.1875 6.87074 23.3125 7.08097C23.4375 7.28835 23.6534 7.39205 23.9602 7.39205C24.2585 7.39205 24.4688 7.28835 24.5909 7.08097C24.7159 6.87074 24.7784 6.63352 24.7784 6.36932V5.90909C24.7784 5.64489 24.7188 5.40909 24.5994 5.2017C24.4801 4.99148 24.267 4.88636 23.9602 4.88636C23.6619 4.88636 23.4474 4.99148 23.3168 5.2017C23.1889 5.40909 23.125 5.64489 23.125 5.90909ZM22.5795 13L28.5795 4.27273H29.5511L23.5511 13H22.5795Z" fill="black" fill-opacity="0.4"/>
<path d="M10.0629 71.786C9.7049 71.7803 9.34695 71.7121 8.98899 71.5815C8.63104 71.4508 8.30433 71.2306 8.00888 70.9209C7.71342 70.6084 7.47621 70.1866 7.29723 69.6553C7.11825 69.1212 7.02876 68.4508 7.02876 67.644C7.02876 66.8712 7.10121 66.1866 7.24609 65.59C7.39098 64.9906 7.60121 64.4863 7.87678 64.0772C8.15234 63.6653 8.48473 63.3528 8.87393 63.1397C9.26598 62.9266 9.70774 62.8201 10.1992 62.8201C10.6879 62.8201 11.1225 62.9181 11.5032 63.1141C11.8867 63.3073 12.1992 63.5772 12.4407 63.9238C12.6822 64.2704 12.8384 64.6695 12.9094 65.1212H11.8697C11.7731 64.7292 11.5856 64.4039 11.3072 64.1454C11.0288 63.8869 10.6594 63.7576 10.1992 63.7576C9.52308 63.7576 8.99041 64.0516 8.60121 64.6397C8.21484 65.2278 8.02024 66.0531 8.0174 67.1156H8.08558C8.24467 66.8741 8.43359 66.6681 8.65234 66.4977C8.87393 66.3244 9.11825 66.1908 9.3853 66.0971C9.65234 66.0033 9.93501 65.9565 10.2333 65.9565C10.7333 65.9565 11.1907 66.0815 11.6055 66.3315C12.0202 66.5786 12.3526 66.9209 12.6026 67.3584C12.8526 67.7931 12.9776 68.2917 12.9776 68.8542C12.9776 69.394 12.8569 69.8883 12.6154 70.3371C12.3739 70.7832 12.0344 71.1383 11.5969 71.4025C11.1623 71.6638 10.6509 71.7917 10.0629 71.786ZM10.0629 70.8485C10.4208 70.8485 10.7418 70.759 11.0259 70.58C11.3129 70.4011 11.5387 70.161 11.7035 69.8599C11.8711 69.5587 11.9549 69.2235 11.9549 68.8542C11.9549 68.4934 11.8739 68.1653 11.712 67.8698C11.5529 67.5715 11.3327 67.3343 11.0515 67.1582C10.7731 66.982 10.4549 66.894 10.0969 66.894C9.82706 66.894 9.57564 66.9479 9.34268 67.0559C9.10973 67.161 8.90518 67.3059 8.72905 67.4906C8.55575 67.6752 8.41939 67.8869 8.31996 68.1255C8.22053 68.3613 8.17081 68.6099 8.17081 68.8712C8.17081 69.2178 8.25178 69.5417 8.41371 69.8428C8.57848 70.144 8.80291 70.3869 9.087 70.5715C9.37393 70.7562 9.69922 70.8485 10.0629 70.8485ZM17.5 71.786C16.858 71.786 16.3111 71.6113 15.8594 71.2619C15.4077 70.9096 15.0625 70.3996 14.8239 69.732C14.5852 69.0616 14.4659 68.2519 14.4659 67.3031C14.4659 66.3599 14.5852 65.5545 14.8239 64.8869C15.0653 64.2164 15.4119 63.705 15.8636 63.3528C16.3182 62.9977 16.8636 62.8201 17.5 62.8201C18.1364 62.8201 18.6804 62.9977 19.1321 63.3528C19.5866 63.705 19.9332 64.2164 20.1719 64.8869C20.4134 65.5545 20.5341 66.3599 20.5341 67.3031C20.5341 68.2519 20.4148 69.0616 20.1761 69.732C19.9375 70.3996 19.5923 70.9096 19.1406 71.2619C18.6889 71.6113 18.142 71.786 17.5 71.786ZM17.5 70.8485C18.1364 70.8485 18.6307 70.5417 18.983 69.9281C19.3352 69.3144 19.5114 68.4394 19.5114 67.3031C19.5114 66.5474 19.4304 65.9039 19.2685 65.3727C19.1094 64.8414 18.8793 64.4366 18.5781 64.1582C18.2798 63.8798 17.9205 63.7406 17.5 63.7406C16.8693 63.7406 16.3764 64.0516 16.0213 64.6738C15.6662 65.2931 15.4886 66.1695 15.4886 67.3031C15.4886 68.0587 15.5682 68.7008 15.7273 69.2292C15.8864 69.7576 16.1151 70.1596 16.4134 70.4352C16.7145 70.7107 17.0767 70.8485 17.5 70.8485ZM26.6023 70.0303V69.5701C26.6023 69.2519 26.6676 68.9607 26.7983 68.6965C26.9318 68.4295 27.125 68.2164 27.3778 68.0573C27.6335 67.8954 27.9432 67.8144 28.3068 67.8144C28.6761 67.8144 28.9858 67.8954 29.2358 68.0573C29.4858 68.2164 29.6747 68.4295 29.8026 68.6965C29.9304 68.9607 29.9943 69.2519 29.9943 69.5701V70.0303C29.9943 70.3485 29.929 70.6411 29.7983 70.9082C29.6705 71.1724 29.4801 71.3854 29.2273 71.5474C28.9773 71.7065 28.6705 71.786 28.3068 71.786C27.9375 71.786 27.6264 71.7065 27.3736 71.5474C27.1207 71.3854 26.929 71.1724 26.7983 70.9082C26.6676 70.6411 26.6023 70.3485 26.6023 70.0303ZM27.4716 69.5701V70.0303C27.4716 70.2945 27.5341 70.5317 27.6591 70.742C27.7841 70.9494 28 71.0531 28.3068 71.0531C28.6051 71.0531 28.8153 70.9494 28.9375 70.742C29.0625 70.5317 29.125 70.2945 29.125 70.0303V69.5701C29.125 69.3059 29.0653 69.0701 28.946 68.8627C28.8267 68.6525 28.6136 68.5474 28.3068 68.5474C28.0085 68.5474 27.794 68.6525 27.6634 68.8627C27.5355 69.0701 27.4716 69.3059 27.4716 69.5701ZM22.2557 65.036V64.5758C22.2557 64.2576 22.321 63.9664 22.4517 63.7022C22.5852 63.4352 22.7784 63.2221 23.0312 63.063C23.2869 62.9011 23.5966 62.8201 23.9602 62.8201C24.3295 62.8201 24.6392 62.9011 24.8892 63.063C25.1392 63.2221 25.3281 63.4352 25.456 63.7022C25.5838 63.9664 25.6477 64.2576 25.6477 64.5758V65.036C25.6477 65.3542 25.5824 65.6468 25.4517 65.9138C25.3239 66.1781 25.1335 66.3911 24.8807 66.5531C24.6307 66.7121 24.3239 66.7917 23.9602 66.7917C23.5909 66.7917 23.2798 66.7121 23.027 66.5531C22.7741 66.3911 22.5824 66.1781 22.4517 65.9138C22.321 65.6468 22.2557 65.3542 22.2557 65.036ZM23.125 64.5758V65.036C23.125 65.3002 23.1875 65.5374 23.3125 65.7477C23.4375 65.955 23.6534 66.0587 23.9602 66.0587C24.2585 66.0587 24.4688 65.955 24.5909 65.7477C24.7159 65.5374 24.7784 65.3002 24.7784 65.036V64.5758C24.7784 64.3116 24.7188 64.0758 24.5994 63.8684C24.4801 63.6582 24.267 63.5531 23.9602 63.5531C23.6619 63.5531 23.4474 63.6582 23.3168 63.8684C23.1889 64.0758 23.125 64.3116 23.125 64.5758ZM22.5795 71.6667L28.5795 62.9394H29.5511L23.5511 71.6667H22.5795Z" fill="black" fill-opacity="0.4"/>
<path d="M6.74964 128.544V127.674L10.5849 121.606H11.2156V122.953H10.7894L7.89169 127.538V127.606H13.0565V128.544H6.74964ZM10.8576 130.333V128.279V127.875V121.606H11.8633V130.333H10.8576ZM17.5 130.453C16.858 130.453 16.3111 130.278 15.8594 129.929C15.4077 129.576 15.0625 129.066 14.8239 128.399C14.5852 127.728 14.4659 126.919 14.4659 125.97C14.4659 125.027 14.5852 124.221 14.8239 123.554C15.0653 122.883 15.4119 122.372 15.8636 122.019C16.3182 121.664 16.8636 121.487 17.5 121.487C18.1364 121.487 18.6804 121.664 19.1321 122.019C19.5866 122.372 19.9332 122.883 20.1719 123.554C20.4134 124.221 20.5341 125.027 20.5341 125.97C20.5341 126.919 20.4148 127.728 20.1761 128.399C19.9375 129.066 19.5923 129.576 19.1406 129.929C18.6889 130.278 18.142 130.453 17.5 130.453ZM17.5 129.515C18.1364 129.515 18.6307 129.208 18.983 128.595C19.3352 127.981 19.5114 127.106 19.5114 125.97C19.5114 125.214 19.4304 124.571 19.2685 124.039C19.1094 123.508 18.8793 123.103 18.5781 122.825C18.2798 122.546 17.9205 122.407 17.5 122.407C16.8693 122.407 16.3764 122.718 16.0213 123.34C15.6662 123.96 15.4886 124.836 15.4886 125.97C15.4886 126.725 15.5682 127.367 15.7273 127.896C15.8864 128.424 16.1151 128.826 16.4134 129.102C16.7145 129.377 17.0767 129.515 17.5 129.515ZM26.6023 128.697V128.237C26.6023 127.919 26.6676 127.627 26.7983 127.363C26.9318 127.096 27.125 126.883 27.3778 126.724C27.6335 126.562 27.9432 126.481 28.3068 126.481C28.6761 126.481 28.9858 126.562 29.2358 126.724C29.4858 126.883 29.6747 127.096 29.8026 127.363C29.9304 127.627 29.9943 127.919 29.9943 128.237V128.697C29.9943 129.015 29.929 129.308 29.7983 129.575C29.6705 129.839 29.4801 130.052 29.2273 130.214C28.9773 130.373 28.6705 130.453 28.3068 130.453C27.9375 130.453 27.6264 130.373 27.3736 130.214C27.1207 130.052 26.929 129.839 26.7983 129.575C26.6676 129.308 26.6023 129.015 26.6023 128.697ZM27.4716 128.237V128.697C27.4716 128.961 27.5341 129.198 27.6591 129.409C27.7841 129.616 28 129.72 28.3068 129.72C28.6051 129.72 28.8153 129.616 28.9375 129.409C29.0625 129.198 29.125 128.961 29.125 128.697V128.237C29.125 127.973 29.0653 127.737 28.946 127.529C28.8267 127.319 28.6136 127.214 28.3068 127.214C28.0085 127.214 27.794 127.319 27.6634 127.529C27.5355 127.737 27.4716 127.973 27.4716 128.237ZM22.2557 123.703V123.242C22.2557 122.924 22.321 122.633 22.4517 122.369C22.5852 122.102 22.7784 121.889 23.0312 121.73C23.2869 121.568 23.5966 121.487 23.9602 121.487C24.3295 121.487 24.6392 121.568 24.8892 121.73C25.1392 121.889 25.3281 122.102 25.456 122.369C25.5838 122.633 25.6477 122.924 25.6477 123.242V123.703C25.6477 124.021 25.5824 124.313 25.4517 124.581C25.3239 124.845 25.1335 125.058 24.8807 125.22C24.6307 125.379 24.3239 125.458 23.9602 125.458C23.5909 125.458 23.2798 125.379 23.027 125.22C22.7741 125.058 22.5824 124.845 22.4517 124.581C22.321 124.313 22.2557 124.021 22.2557 123.703ZM23.125 123.242V123.703C23.125 123.967 23.1875 124.204 23.3125 124.414C23.4375 124.622 23.6534 124.725 23.9602 124.725C24.2585 124.725 24.4688 124.622 24.5909 124.414C24.7159 124.204 24.7784 123.967 24.7784 123.703V123.242C24.7784 122.978 24.7188 122.742 24.5994 122.535C24.4801 122.325 24.267 122.22 23.9602 122.22C23.6619 122.22 23.4474 122.325 23.3168 122.535C23.1889 122.742 23.125 122.978 23.125 123.242ZM22.5795 130.333L28.5795 121.606H29.5511L23.5511 130.333H22.5795Z" fill="black" fill-opacity="0.4"/>
<path d="M27.25 189.119C26.608 189.119 26.0611 188.945 25.6094 188.595C25.1577 188.243 24.8125 187.733 24.5739 187.065C24.3352 186.395 24.2159 185.585 24.2159 184.636C24.2159 183.693 24.3352 182.888 24.5739 182.22C24.8153 181.55 25.1619 181.038 25.6136 180.686C26.0682 180.331 26.6136 180.153 27.25 180.153C27.8864 180.153 28.4304 180.331 28.8821 180.686C29.3366 181.038 29.6832 181.55 29.9219 182.22C30.1634 182.888 30.2841 183.693 30.2841 184.636C30.2841 185.585 30.1648 186.395 29.9261 187.065C29.6875 187.733 29.3423 188.243 28.8906 188.595C28.4389 188.945 27.892 189.119 27.25 189.119ZM27.25 188.182C27.8864 188.182 28.3807 187.875 28.733 187.261C29.0852 186.648 29.2614 185.773 29.2614 184.636C29.2614 183.881 29.1804 183.237 29.0185 182.706C28.8594 182.175 28.6293 181.77 28.3281 181.491C28.0298 181.213 27.6705 181.074 27.25 181.074C26.6193 181.074 26.1264 181.385 25.7713 182.007C25.4162 182.626 25.2386 183.503 25.2386 184.636C25.2386 185.392 25.3182 186.034 25.4773 186.562C25.6364 187.091 25.8651 187.493 26.1634 187.768C26.4645 188.044 26.8267 188.182 27.25 188.182Z" fill="black" fill-opacity="0.4"/>
<line x1="47.5" y1="15.5" x2="342.5" y2="15.5" stroke="black" stroke-opacity="0.05" stroke-linecap="round"/>
<line x1="47.5" y1="74.8333" x2="342.5" y2="74.8333" stroke="black" stroke-opacity="0.05" stroke-linecap="round"/>
<line x1="47.5" y1="134.167" x2="342.5" y2="134.167" stroke="black" stroke-opacity="0.05" stroke-linecap="round"/>
<line x1="47.5" y1="193.5" x2="342.5" y2="193.5" stroke="black" stroke-opacity="0.2" stroke-linecap="round"/>
<path d="M66.1258 219V210.273H69.0747C69.7594 210.273 70.319 210.396 70.7537 210.643C71.1912 210.888 71.515 211.219 71.7253 211.636C71.9355 212.054 72.0406 212.52 72.0406 213.034C72.0406 213.548 71.9355 214.016 71.7253 214.436C71.5179 214.857 71.1969 215.192 70.7622 215.442C70.3275 215.689 69.7707 215.812 69.0917 215.812H66.9781V214.875H69.0576C69.5264 214.875 69.9028 214.794 70.1869 214.632C70.471 214.47 70.677 214.251 70.8048 213.976C70.9355 213.697 71.0008 213.384 71.0008 213.034C71.0008 212.685 70.9355 212.372 70.8048 212.097C70.677 211.821 70.4696 211.605 70.1826 211.449C69.8957 211.29 69.515 211.21 69.0406 211.21H67.1826V219H66.1258ZM76.6578 210.273V219H75.601V211.381H75.5498L73.4192 212.795V211.722L75.601 210.273H76.6578Z" fill="black" fill-opacity="0.4"/>
<path d="M114.615 219V210.273H117.564C118.249 210.273 118.808 210.396 119.243 210.643C119.68 210.888 120.004 211.219 120.215 211.636C120.425 212.054 120.53 212.52 120.53 213.034C120.53 213.548 120.425 214.016 120.215 214.436C120.007 214.857 119.686 215.192 119.251 215.442C118.817 215.689 118.26 215.812 117.581 215.812H115.467V214.875H117.547C118.016 214.875 118.392 214.794 118.676 214.632C118.96 214.47 119.166 214.251 119.294 213.976C119.425 213.697 119.49 213.384 119.49 213.034C119.49 212.685 119.425 212.372 119.294 212.097C119.166 211.821 118.959 211.605 118.672 211.449C118.385 211.29 118.004 211.21 117.53 211.21H115.672V219H114.615ZM122.079 219V218.233L124.96 215.08C125.298 214.71 125.576 214.389 125.795 214.116C126.014 213.841 126.175 213.582 126.281 213.341C126.389 213.097 126.443 212.841 126.443 212.574C126.443 212.267 126.369 212.001 126.221 211.777C126.076 211.553 125.877 211.379 125.624 211.257C125.371 211.135 125.087 211.074 124.772 211.074C124.437 211.074 124.144 211.143 123.894 211.283C123.647 211.419 123.455 211.611 123.319 211.858C123.185 212.105 123.119 212.395 123.119 212.727H122.113C122.113 212.216 122.231 211.767 122.467 211.381C122.702 210.994 123.023 210.693 123.43 210.477C123.839 210.261 124.298 210.153 124.806 210.153C125.318 210.153 125.771 210.261 126.166 210.477C126.56 210.693 126.87 210.984 127.094 211.351C127.319 211.717 127.431 212.125 127.431 212.574C127.431 212.895 127.373 213.209 127.256 213.516C127.143 213.82 126.944 214.159 126.66 214.534C126.379 214.906 125.988 215.361 125.488 215.898L123.528 217.994V218.062H127.585V219H122.079Z" fill="black" fill-opacity="0.4"/>
<path d="M163.762 219V210.273H166.71C167.395 210.273 167.955 210.396 168.389 210.643C168.827 210.888 169.151 211.219 169.361 211.636C169.571 212.054 169.676 212.52 169.676 213.034C169.676 213.548 169.571 214.016 169.361 214.436C169.154 214.857 168.833 215.192 168.398 215.442C167.963 215.689 167.406 215.812 166.727 215.812H164.614V214.875H166.693C167.162 214.875 167.539 214.794 167.823 214.632C168.107 214.47 168.313 214.251 168.441 213.976C168.571 213.697 168.637 213.384 168.637 213.034C168.637 212.685 168.571 212.372 168.441 212.097C168.313 211.821 168.105 211.605 167.818 211.449C167.531 211.29 167.151 211.21 166.676 211.21H164.818V219H163.762ZM174.174 219.119C173.612 219.119 173.11 219.023 172.67 218.83C172.232 218.636 171.884 218.368 171.626 218.024C171.37 217.678 171.231 217.276 171.208 216.818H172.282C172.305 217.099 172.401 217.342 172.572 217.547C172.742 217.749 172.965 217.905 173.241 218.016C173.517 218.126 173.822 218.182 174.157 218.182C174.532 218.182 174.865 218.116 175.154 217.986C175.444 217.855 175.671 217.673 175.836 217.44C176.001 217.207 176.083 216.938 176.083 216.631C176.083 216.31 176.004 216.027 175.845 215.783C175.686 215.536 175.453 215.342 175.146 215.203C174.839 215.064 174.464 214.994 174.021 214.994H173.322V214.057H174.021C174.367 214.057 174.671 213.994 174.933 213.869C175.197 213.744 175.403 213.568 175.551 213.341C175.701 213.114 175.776 212.847 175.776 212.54C175.776 212.244 175.711 211.987 175.58 211.768C175.45 211.55 175.265 211.379 175.026 211.257C174.791 211.135 174.512 211.074 174.191 211.074C173.89 211.074 173.606 211.129 173.339 211.24C173.075 211.348 172.859 211.506 172.691 211.713C172.524 211.918 172.433 212.165 172.419 212.455H171.396C171.413 211.997 171.551 211.597 171.809 211.253C172.068 210.906 172.406 210.636 172.823 210.443C173.244 210.25 173.705 210.153 174.208 210.153C174.748 210.153 175.211 210.263 175.598 210.482C175.984 210.697 176.281 210.983 176.488 211.338C176.696 211.693 176.799 212.077 176.799 212.489C176.799 212.98 176.67 213.399 176.411 213.746C176.156 214.092 175.808 214.332 175.367 214.466V214.534C175.919 214.625 176.349 214.859 176.659 215.237C176.968 215.612 177.123 216.077 177.123 216.631C177.123 217.105 176.994 217.531 176.735 217.909C176.48 218.284 176.13 218.58 175.687 218.795C175.244 219.011 174.74 219.119 174.174 219.119Z" fill="black" fill-opacity="0.4"/>
<path d="M213.065 219V210.273H216.014C216.699 210.273 217.258 210.396 217.693 210.643C218.131 210.888 218.454 211.219 218.665 211.636C218.875 212.054 218.98 212.52 218.98 213.034C218.98 213.548 218.875 214.016 218.665 214.436C218.457 214.857 218.136 215.192 217.702 215.442C217.267 215.689 216.71 215.812 216.031 215.812H213.918V214.875H215.997C216.466 214.875 216.842 214.794 217.126 214.632C217.41 214.47 217.616 214.251 217.744 213.976C217.875 213.697 217.94 213.384 217.94 213.034C217.94 212.685 217.875 212.372 217.744 212.097C217.616 211.821 217.409 211.605 217.122 211.449C216.835 211.29 216.454 211.21 215.98 211.21H214.122V219H213.065ZM220.325 217.21V216.341L224.16 210.273H224.79V211.619H224.364L221.467 216.205V216.273H226.631V217.21H220.325ZM224.432 219V216.946V216.541V210.273H225.438V219H224.432Z" fill="black" fill-opacity="0.4"/>
<path d="M262.598 219V210.273H265.546C266.231 210.273 266.791 210.396 267.225 210.643C267.663 210.888 267.987 211.219 268.197 211.636C268.407 212.054 268.512 212.52 268.512 213.034C268.512 213.548 268.407 214.016 268.197 214.436C267.99 214.857 267.669 215.192 267.234 215.442C266.799 215.689 266.242 215.812 265.563 215.812H263.45V214.875H265.529C265.998 214.875 266.374 214.794 266.659 214.632C266.943 214.47 267.149 214.251 267.276 213.976C267.407 213.697 267.473 213.384 267.473 213.034C267.473 212.685 267.407 212.372 267.276 212.097C267.149 211.821 266.941 211.605 266.654 211.449C266.367 211.29 265.987 211.21 265.512 211.21H263.654V219H262.598ZM272.789 219.119C272.289 219.119 271.838 219.02 271.438 218.821C271.037 218.622 270.716 218.349 270.475 218.003C270.233 217.656 270.101 217.261 270.078 216.818H271.101C271.141 217.213 271.32 217.54 271.638 217.798C271.959 218.054 272.343 218.182 272.789 218.182C273.147 218.182 273.465 218.098 273.743 217.93C274.024 217.763 274.245 217.533 274.404 217.24C274.566 216.945 274.647 216.611 274.647 216.239C274.647 215.858 274.563 215.518 274.395 215.22C274.23 214.919 274.003 214.682 273.713 214.509C273.424 214.335 273.093 214.247 272.72 214.244C272.453 214.241 272.179 214.283 271.898 214.368C271.617 214.45 271.385 214.557 271.203 214.688L270.215 214.568L270.743 210.273H275.277V211.21H271.629L271.323 213.784H271.374C271.553 213.642 271.777 213.524 272.047 213.43C272.317 213.337 272.598 213.29 272.891 213.29C273.425 213.29 273.901 213.418 274.318 213.673C274.739 213.926 275.068 214.273 275.307 214.713C275.549 215.153 275.669 215.656 275.669 216.222C275.669 216.778 275.544 217.276 275.294 217.713C275.047 218.148 274.706 218.491 274.272 218.744C273.837 218.994 273.343 219.119 272.789 219.119Z" fill="black" fill-opacity="0.4"/>
<path d="M299.633 219V210.273H303.076C303.738 210.273 304.302 210.399 304.768 210.652C305.234 210.902 305.589 211.25 305.833 211.696C306.081 212.139 306.204 212.651 306.204 213.23C306.204 213.81 306.079 214.321 305.829 214.764C305.579 215.207 305.217 215.553 304.743 215.8C304.271 216.047 303.7 216.17 303.03 216.17H300.835V214.692H302.731C303.086 214.692 303.379 214.631 303.609 214.509C303.842 214.384 304.015 214.212 304.129 213.993C304.245 213.771 304.304 213.517 304.304 213.23C304.304 212.94 304.245 212.687 304.129 212.472C304.015 212.253 303.842 212.084 303.609 211.964C303.376 211.842 303.081 211.781 302.723 211.781H301.478V219H299.633ZM308.02 219.111C307.738 219.111 307.497 219.011 307.295 218.812C307.096 218.611 306.997 218.369 306.997 218.088C306.997 217.81 307.096 217.571 307.295 217.372C307.497 217.173 307.738 217.074 308.02 217.074C308.292 217.074 308.531 217.173 308.735 217.372C308.94 217.571 309.042 217.81 309.042 218.088C309.042 218.276 308.994 218.447 308.897 218.604C308.804 218.757 308.68 218.881 308.527 218.974C308.373 219.065 308.204 219.111 308.02 219.111ZM310.567 219V210.273H316.345V211.794H312.412V213.874H315.962V215.395H312.412V219H310.567ZM317.552 219V212.455H319.368V219H317.552ZM318.464 211.611C318.194 211.611 317.963 211.521 317.77 211.342C317.579 211.161 317.484 210.943 317.484 210.69C317.484 210.44 317.579 210.226 317.77 210.047C317.963 209.865 318.194 209.774 318.464 209.774C318.734 209.774 318.964 209.865 319.155 210.047C319.348 210.226 319.444 210.44 319.444 210.69C319.444 210.943 319.348 211.161 319.155 211.342C318.964 211.521 318.734 211.611 318.464 211.611ZM322.637 215.216V219H320.822V212.455H322.552V213.609H322.629C322.773 213.229 323.016 212.928 323.357 212.706C323.698 212.482 324.112 212.369 324.597 212.369C325.052 212.369 325.448 212.469 325.786 212.668C326.124 212.866 326.387 213.151 326.575 213.52C326.762 213.886 326.856 214.324 326.856 214.832V219H325.041V215.156C325.043 214.756 324.941 214.443 324.734 214.219C324.526 213.991 324.241 213.878 323.877 213.878C323.633 213.878 323.417 213.93 323.229 214.036C323.045 214.141 322.9 214.294 322.795 214.496C322.693 214.695 322.64 214.935 322.637 215.216ZM330.153 219.124C329.735 219.124 329.363 219.051 329.037 218.906C328.71 218.759 328.451 218.541 328.261 218.254C328.074 217.964 327.98 217.604 327.98 217.172C327.98 216.808 328.047 216.503 328.18 216.256C328.314 216.009 328.495 215.81 328.726 215.659C328.956 215.509 329.217 215.395 329.51 215.318C329.805 215.241 330.115 215.188 330.439 215.156C330.819 215.116 331.126 215.08 331.359 215.045C331.592 215.009 331.761 214.955 331.866 214.884C331.971 214.812 332.024 214.707 332.024 214.568V214.543C332.024 214.273 331.939 214.064 331.768 213.916C331.601 213.768 331.362 213.695 331.052 213.695C330.726 213.695 330.466 213.767 330.272 213.912C330.079 214.054 329.951 214.233 329.889 214.449L328.21 214.312C328.295 213.915 328.463 213.571 328.713 213.281C328.963 212.989 329.285 212.764 329.68 212.608C330.078 212.449 330.538 212.369 331.061 212.369C331.424 212.369 331.772 212.412 332.105 212.497C332.44 212.582 332.737 212.714 332.995 212.893C333.257 213.072 333.463 213.303 333.613 213.584C333.764 213.862 333.839 214.196 333.839 214.585V219H332.118V218.092H332.066C331.961 218.297 331.821 218.477 331.645 218.634C331.468 218.787 331.257 218.908 331.01 218.996C330.762 219.081 330.477 219.124 330.153 219.124ZM330.673 217.871C330.94 217.871 331.176 217.818 331.38 217.713C331.585 217.605 331.745 217.46 331.862 217.278C331.978 217.097 332.037 216.891 332.037 216.661V215.966C331.98 216.003 331.902 216.037 331.802 216.068C331.706 216.097 331.596 216.124 331.474 216.149C331.352 216.172 331.23 216.193 331.108 216.213C330.985 216.23 330.875 216.246 330.775 216.26C330.562 216.291 330.376 216.341 330.217 216.409C330.058 216.477 329.934 216.57 329.846 216.686C329.758 216.8 329.714 216.942 329.714 217.112C329.714 217.359 329.804 217.548 329.983 217.679C330.164 217.807 330.395 217.871 330.673 217.871ZM337.063 210.273V219H335.248V210.273H337.063Z" fill="#38487A"/>
<path d="M58.9883 31C58.9883 28.7909 60.7791 27 62.9883 27H72.9883C75.1974 27 76.9883 28.7909 76.9883 31V193H58.9883V31Z" fill="#BAEDBD"/>
<path d="M108.838 47C108.838 44.7909 110.629 43 112.838 43H122.838C125.047 43 126.838 44.7909 126.838 47V193H108.838V47Z" fill="#C6C7F8"/>
<path d="M158.687 116C158.687 113.791 160.477 112 162.687 112H172.687C174.896 112 176.687 113.791 176.687 116V193H158.687V116Z" fill="#1C1C1C"/>
<path d="M208.536 69C208.536 66.7909 210.327 65 212.536 65H222.536C224.745 65 226.536 66.7909 226.536 69V193H208.536V69Z" fill="#9394BA"/>
<path d="M258.788 59C258.788 56.7909 260.579 55 262.788 55H272.788C274.997 55 276.788 56.7909 276.788 59V193H258.788V59Z" fill="#B1E3FF"/>
<path d="M308.351 36C308.351 33.7909 310.141 32 312.351 32H322.351C324.56 32 326.351 33.7909 326.351 36V194H308.351V36Z" fill="#2C7E61"/>
</svg>
