<svg width="286" height="185" viewBox="0 0 286 185" fill="none" xmlns="http://www.w3.org/2000/svg">
<path d="M4.64347 12.2727V21H3.58665V13.3807H3.53551L1.40483 14.7955V13.7216L3.58665 12.2727H4.64347ZM10 21.1193C9.35795 21.1193 8.81108 20.9446 8.35938 20.5952C7.90767 20.2429 7.5625 19.733 7.32386 19.0653C7.08523 18.3949 6.96591 17.5852 6.96591 16.6364C6.96591 15.6932 7.08523 14.8878 7.32386 14.2202C7.56534 13.5497 7.91193 13.0384 8.36364 12.6861C8.81818 12.331 9.36364 12.1534 10 12.1534C10.6364 12.1534 11.1804 12.331 11.6321 12.6861C12.0866 13.0384 12.4332 13.5497 12.6719 14.2202C12.9134 14.8878 13.0341 15.6932 13.0341 16.6364C13.0341 17.5852 12.9148 18.3949 12.6761 19.0653C12.4375 19.733 12.0923 20.2429 11.6406 20.5952C11.1889 20.9446 10.642 21.1193 10 21.1193ZM10 20.1818C10.6364 20.1818 11.1307 19.875 11.483 19.2614C11.8352 18.6477 12.0114 17.7727 12.0114 16.6364C12.0114 15.8807 11.9304 15.2372 11.7685 14.706C11.6094 14.1747 11.3793 13.7699 11.0781 13.4915C10.7798 13.2131 10.4205 13.0739 10 13.0739C9.36932 13.0739 8.87642 13.3849 8.52131 14.0071C8.16619 14.6264 7.98864 15.5028 7.98864 16.6364C7.98864 17.392 8.06818 18.0341 8.22727 18.5625C8.38636 19.0909 8.61506 19.4929 8.91335 19.7685C9.21449 20.044 9.5767 20.1818 10 20.1818ZM17.5 21.1193C16.858 21.1193 16.3111 20.9446 15.8594 20.5952C15.4077 20.2429 15.0625 19.733 14.8239 19.0653C14.5852 18.3949 14.4659 17.5852 14.4659 16.6364C14.4659 15.6932 14.5852 14.8878 14.8239 14.2202C15.0653 13.5497 15.4119 13.0384 15.8636 12.6861C16.3182 12.331 16.8636 12.1534 17.5 12.1534C18.1364 12.1534 18.6804 12.331 19.1321 12.6861C19.5866 13.0384 19.9332 13.5497 20.1719 14.2202C20.4134 14.8878 20.5341 15.6932 20.5341 16.6364C20.5341 17.5852 20.4148 18.3949 20.1761 19.0653C19.9375 19.733 19.5923 20.2429 19.1406 20.5952C18.6889 20.9446 18.142 21.1193 17.5 21.1193ZM17.5 20.1818C18.1364 20.1818 18.6307 19.875 18.983 19.2614C19.3352 18.6477 19.5114 17.7727 19.5114 16.6364C19.5114 15.8807 19.4304 15.2372 19.2685 14.706C19.1094 14.1747 18.8793 13.7699 18.5781 13.4915C18.2798 13.2131 17.9205 13.0739 17.5 13.0739C16.8693 13.0739 16.3764 13.3849 16.0213 14.0071C15.6662 14.6264 15.4886 15.5028 15.4886 16.6364C15.4886 17.392 15.5682 18.0341 15.7273 18.5625C15.8864 19.0909 16.1151 19.4929 16.4134 19.7685C16.7145 20.044 17.0767 20.1818 17.5 20.1818ZM26.6023 19.3636V18.9034C26.6023 18.5852 26.6676 18.294 26.7983 18.0298C26.9318 17.7628 27.125 17.5497 27.3778 17.3906C27.6335 17.2287 27.9432 17.1477 28.3068 17.1477C28.6761 17.1477 28.9858 17.2287 29.2358 17.3906C29.4858 17.5497 29.6747 17.7628 29.8026 18.0298C29.9304 18.294 29.9943 18.5852 29.9943 18.9034V19.3636C29.9943 19.6818 29.929 19.9744 29.7983 20.2415C29.6705 20.5057 29.4801 20.7187 29.2273 20.8807C28.9773 21.0398 28.6705 21.1193 28.3068 21.1193C27.9375 21.1193 27.6264 21.0398 27.3736 20.8807C27.1207 20.7187 26.929 20.5057 26.7983 20.2415C26.6676 19.9744 26.6023 19.6818 26.6023 19.3636ZM27.4716 18.9034V19.3636C27.4716 19.6278 27.5341 19.8651 27.6591 20.0753C27.7841 20.2827 28 20.3864 28.3068 20.3864C28.6051 20.3864 28.8153 20.2827 28.9375 20.0753C29.0625 19.8651 29.125 19.6278 29.125 19.3636V18.9034C29.125 18.6392 29.0653 18.4034 28.946 18.196C28.8267 17.9858 28.6136 17.8807 28.3068 17.8807C28.0085 17.8807 27.794 17.9858 27.6634 18.196C27.5355 18.4034 27.4716 18.6392 27.4716 18.9034ZM22.2557 14.3693V13.9091C22.2557 13.5909 22.321 13.2997 22.4517 13.0355C22.5852 12.7685 22.7784 12.5554 23.0312 12.3963C23.2869 12.2344 23.5966 12.1534 23.9602 12.1534C24.3295 12.1534 24.6392 12.2344 24.8892 12.3963C25.1392 12.5554 25.3281 12.7685 25.456 13.0355C25.5838 13.2997 25.6477 13.5909 25.6477 13.9091V14.3693C25.6477 14.6875 25.5824 14.9801 25.4517 15.2472C25.3239 15.5114 25.1335 15.7244 24.8807 15.8864C24.6307 16.0455 24.3239 16.125 23.9602 16.125C23.5909 16.125 23.2798 16.0455 23.027 15.8864C22.7741 15.7244 22.5824 15.5114 22.4517 15.2472C22.321 14.9801 22.2557 14.6875 22.2557 14.3693ZM23.125 13.9091V14.3693C23.125 14.6335 23.1875 14.8707 23.3125 15.081C23.4375 15.2884 23.6534 15.392 23.9602 15.392C24.2585 15.392 24.4688 15.2884 24.5909 15.081C24.7159 14.8707 24.7784 14.6335 24.7784 14.3693V13.9091C24.7784 13.6449 24.7188 13.4091 24.5994 13.2017C24.4801 12.9915 24.267 12.8864 23.9602 12.8864C23.6619 12.8864 23.4474 12.9915 23.3168 13.2017C23.1889 13.4091 23.125 13.6449 23.125 13.9091ZM22.5795 21L28.5795 12.2727H29.5511L23.5511 21H22.5795Z" fill="black" fill-opacity="0.4"/>
<path d="M10.0629 59.4526C9.7049 59.4469 9.34695 59.3788 8.98899 59.2481C8.63104 59.1174 8.30433 58.8972 8.00888 58.5876C7.71342 58.2751 7.47621 57.8532 7.29723 57.3219C7.11825 56.7879 7.02876 56.1174 7.02876 55.3106C7.02876 54.5379 7.10121 53.8532 7.24609 53.2566C7.39098 52.6572 7.60121 52.1529 7.87678 51.7438C8.15234 51.3319 8.48473 51.0194 8.87393 50.8063C9.26598 50.5933 9.70774 50.4867 10.1992 50.4867C10.6879 50.4867 11.1225 50.5847 11.5032 50.7808C11.8867 50.9739 12.1992 51.2438 12.4407 51.5904C12.6822 51.937 12.8384 52.3362 12.9094 52.7879H11.8697C11.7731 52.3958 11.5856 52.0705 11.3072 51.812C11.0288 51.5535 10.6594 51.4242 10.1992 51.4242C9.52308 51.4242 8.99041 51.7183 8.60121 52.3063C8.21484 52.8944 8.02024 53.7197 8.0174 54.7822H8.08558C8.24467 54.5407 8.43359 54.3347 8.65234 54.1643C8.87393 53.991 9.11825 53.8575 9.3853 53.7637C9.65234 53.67 9.93501 53.6231 10.2333 53.6231C10.7333 53.6231 11.1907 53.7481 11.6055 53.9981C12.0202 54.2452 12.3526 54.5876 12.6026 55.0251C12.8526 55.4597 12.9776 55.9583 12.9776 56.5208C12.9776 57.0606 12.8569 57.5549 12.6154 58.0038C12.3739 58.4498 12.0344 58.8049 11.5969 59.0691C11.1623 59.3305 10.6509 59.4583 10.0629 59.4526ZM10.0629 58.5151C10.4208 58.5151 10.7418 58.4256 11.0259 58.2467C11.3129 58.0677 11.5387 57.8276 11.7035 57.5265C11.8711 57.2254 11.9549 56.8901 11.9549 56.5208C11.9549 56.16 11.8739 55.8319 11.712 55.5364C11.5529 55.2381 11.3327 55.0009 11.0515 54.8248C10.7731 54.6487 10.4549 54.5606 10.0969 54.5606C9.82706 54.5606 9.57564 54.6146 9.34268 54.7225C9.10973 54.8276 8.90518 54.9725 8.72905 55.1572C8.55575 55.3418 8.41939 55.5535 8.31996 55.7921C8.22053 56.0279 8.17081 56.2765 8.17081 56.5379C8.17081 56.8844 8.25178 57.2083 8.41371 57.5094C8.57848 57.8106 8.80291 58.0535 9.087 58.2381C9.37393 58.4228 9.69922 58.5151 10.0629 58.5151ZM17.5 59.4526C16.858 59.4526 16.3111 59.2779 15.8594 58.9285C15.4077 58.5762 15.0625 58.0663 14.8239 57.3987C14.5852 56.7282 14.4659 55.9185 14.4659 54.9697C14.4659 54.0265 14.5852 53.2211 14.8239 52.5535C15.0653 51.883 15.4119 51.3717 15.8636 51.0194C16.3182 50.6643 16.8636 50.4867 17.5 50.4867C18.1364 50.4867 18.6804 50.6643 19.1321 51.0194C19.5866 51.3717 19.9332 51.883 20.1719 52.5535C20.4134 53.2211 20.5341 54.0265 20.5341 54.9697C20.5341 55.9185 20.4148 56.7282 20.1761 57.3987C19.9375 58.0663 19.5923 58.5762 19.1406 58.9285C18.6889 59.2779 18.142 59.4526 17.5 59.4526ZM17.5 58.5151C18.1364 58.5151 18.6307 58.2083 18.983 57.5947C19.3352 56.981 19.5114 56.106 19.5114 54.9697C19.5114 54.214 19.4304 53.5705 19.2685 53.0393C19.1094 52.508 18.8793 52.1032 18.5781 51.8248C18.2798 51.5464 17.9205 51.4072 17.5 51.4072C16.8693 51.4072 16.3764 51.7183 16.0213 52.3404C15.6662 52.9597 15.4886 53.8362 15.4886 54.9697C15.4886 55.7254 15.5682 56.3674 15.7273 56.8958C15.8864 57.4242 16.1151 57.8262 16.4134 58.1018C16.7145 58.3773 17.0767 58.5151 17.5 58.5151ZM26.6023 57.6969V57.2367C26.6023 56.9185 26.6676 56.6273 26.7983 56.3631C26.9318 56.0961 27.125 55.883 27.3778 55.7239C27.6335 55.562 27.9432 55.481 28.3068 55.481C28.6761 55.481 28.9858 55.562 29.2358 55.7239C29.4858 55.883 29.6747 56.0961 29.8026 56.3631C29.9304 56.6273 29.9943 56.9185 29.9943 57.2367V57.6969C29.9943 58.0151 29.929 58.3077 29.7983 58.5748C29.6705 58.839 29.4801 59.0521 29.2273 59.214C28.9773 59.3731 28.6705 59.4526 28.3068 59.4526C27.9375 59.4526 27.6264 59.3731 27.3736 59.214C27.1207 59.0521 26.929 58.839 26.7983 58.5748C26.6676 58.3077 26.6023 58.0151 26.6023 57.6969ZM27.4716 57.2367V57.6969C27.4716 57.9612 27.5341 58.1984 27.6591 58.4086C27.7841 58.616 28 58.7197 28.3068 58.7197C28.6051 58.7197 28.8153 58.616 28.9375 58.4086C29.0625 58.1984 29.125 57.9612 29.125 57.6969V57.2367C29.125 56.9725 29.0653 56.7367 28.946 56.5293C28.8267 56.3191 28.6136 56.214 28.3068 56.214C28.0085 56.214 27.794 56.3191 27.6634 56.5293C27.5355 56.7367 27.4716 56.9725 27.4716 57.2367ZM22.2557 52.7026V52.2424C22.2557 51.9242 22.321 51.633 22.4517 51.3688C22.5852 51.1018 22.7784 50.8887 23.0312 50.7296C23.2869 50.5677 23.5966 50.4867 23.9602 50.4867C24.3295 50.4867 24.6392 50.5677 24.8892 50.7296C25.1392 50.8887 25.3281 51.1018 25.456 51.3688C25.5838 51.633 25.6477 51.9242 25.6477 52.2424V52.7026C25.6477 53.0208 25.5824 53.3134 25.4517 53.5805C25.3239 53.8447 25.1335 54.0577 24.8807 54.2197C24.6307 54.3788 24.3239 54.4583 23.9602 54.4583C23.5909 54.4583 23.2798 54.3788 23.027 54.2197C22.7741 54.0577 22.5824 53.8447 22.4517 53.5805C22.321 53.3134 22.2557 53.0208 22.2557 52.7026ZM23.125 52.2424V52.7026C23.125 52.9668 23.1875 53.2041 23.3125 53.4143C23.4375 53.6217 23.6534 53.7254 23.9602 53.7254C24.2585 53.7254 24.4688 53.6217 24.5909 53.4143C24.7159 53.2041 24.7784 52.9668 24.7784 52.7026V52.2424C24.7784 51.9782 24.7188 51.7424 24.5994 51.535C24.4801 51.3248 24.267 51.2197 23.9602 51.2197C23.6619 51.2197 23.4474 51.3248 23.3168 51.535C23.1889 51.7424 23.125 51.9782 23.125 52.2424ZM22.5795 59.3333L28.5795 50.606H29.5511L23.5511 59.3333H22.5795Z" fill="black" fill-opacity="0.4"/>
<path d="M6.74964 95.8769V95.0075L10.5849 88.9394H11.2156V90.2859H10.7894L7.89169 94.8712V94.9394H13.0565V95.8769H6.74964ZM10.8576 97.6666V95.6126V95.2078V88.9394H11.8633V97.6666H10.8576ZM17.5 97.7859C16.858 97.7859 16.3111 97.6112 15.8594 97.2618C15.4077 96.9095 15.0625 96.3996 14.8239 95.732C14.5852 95.0615 14.4659 94.2519 14.4659 93.303C14.4659 92.3598 14.5852 91.5544 14.8239 90.8868C15.0653 90.2163 15.4119 89.705 15.8636 89.3527C16.3182 88.9976 16.8636 88.82 17.5 88.82C18.1364 88.82 18.6804 88.9976 19.1321 89.3527C19.5866 89.705 19.9332 90.2163 20.1719 90.8868C20.4134 91.5544 20.5341 92.3598 20.5341 93.303C20.5341 94.2519 20.4148 95.0615 20.1761 95.732C19.9375 96.3996 19.5923 96.9095 19.1406 97.2618C18.6889 97.6112 18.142 97.7859 17.5 97.7859ZM17.5 96.8484C18.1364 96.8484 18.6307 96.5416 18.983 95.928C19.3352 95.3144 19.5114 94.4394 19.5114 93.303C19.5114 92.5473 19.4304 91.9038 19.2685 91.3726C19.1094 90.8413 18.8793 90.4365 18.5781 90.1581C18.2798 89.8797 17.9205 89.7405 17.5 89.7405C16.8693 89.7405 16.3764 90.0516 16.0213 90.6737C15.6662 91.293 15.4886 92.1695 15.4886 93.303C15.4886 94.0587 15.5682 94.7007 15.7273 95.2291C15.8864 95.7575 16.1151 96.1595 16.4134 96.4351C16.7145 96.7107 17.0767 96.8484 17.5 96.8484ZM26.6023 96.0303V95.57C26.6023 95.2519 26.6676 94.9607 26.7983 94.6965C26.9318 94.4294 27.125 94.2163 27.3778 94.0573C27.6335 93.8953 27.9432 93.8144 28.3068 93.8144C28.6761 93.8144 28.9858 93.8953 29.2358 94.0573C29.4858 94.2163 29.6747 94.4294 29.8026 94.6965C29.9304 94.9607 29.9943 95.2519 29.9943 95.57V96.0303C29.9943 96.3484 29.929 96.6411 29.7983 96.9081C29.6705 97.1723 29.4801 97.3854 29.2273 97.5473C28.9773 97.7064 28.6705 97.7859 28.3068 97.7859C27.9375 97.7859 27.6264 97.7064 27.3736 97.5473C27.1207 97.3854 26.929 97.1723 26.7983 96.9081C26.6676 96.6411 26.6023 96.3484 26.6023 96.0303ZM27.4716 95.57V96.0303C27.4716 96.2945 27.5341 96.5317 27.6591 96.7419C27.7841 96.9493 28 97.053 28.3068 97.053C28.6051 97.053 28.8153 96.9493 28.9375 96.7419C29.0625 96.5317 29.125 96.2945 29.125 96.0303V95.57C29.125 95.3058 29.0653 95.07 28.946 94.8626C28.8267 94.6524 28.6136 94.5473 28.3068 94.5473C28.0085 94.5473 27.794 94.6524 27.6634 94.8626C27.5355 95.07 27.4716 95.3058 27.4716 95.57ZM22.2557 91.0359V90.5757C22.2557 90.2575 22.321 89.9663 22.4517 89.7021C22.5852 89.4351 22.7784 89.222 23.0312 89.0629C23.2869 88.901 23.5966 88.82 23.9602 88.82C24.3295 88.82 24.6392 88.901 24.8892 89.0629C25.1392 89.222 25.3281 89.4351 25.456 89.7021C25.5838 89.9663 25.6477 90.2575 25.6477 90.5757V91.0359C25.6477 91.3541 25.5824 91.6467 25.4517 91.9138C25.3239 92.178 25.1335 92.3911 24.8807 92.553C24.6307 92.7121 24.3239 92.7916 23.9602 92.7916C23.5909 92.7916 23.2798 92.7121 23.027 92.553C22.7741 92.3911 22.5824 92.178 22.4517 91.9138C22.321 91.6467 22.2557 91.3541 22.2557 91.0359ZM23.125 90.5757V91.0359C23.125 91.3001 23.1875 91.5374 23.3125 91.7476C23.4375 91.955 23.6534 92.0587 23.9602 92.0587C24.2585 92.0587 24.4688 91.955 24.5909 91.7476C24.7159 91.5374 24.7784 91.3001 24.7784 91.0359V90.5757C24.7784 90.3115 24.7188 90.0757 24.5994 89.8683C24.4801 89.6581 24.267 89.553 23.9602 89.553C23.6619 89.553 23.4474 89.6581 23.3168 89.8683C23.1889 90.0757 23.125 90.3115 23.125 90.5757ZM22.5795 97.6666L28.5795 88.9394H29.5511L23.5511 97.6666H22.5795Z" fill="black" fill-opacity="0.4"/>
<path d="M27.25 136.119C26.608 136.119 26.0611 135.945 25.6094 135.595C25.1577 135.243 24.8125 134.733 24.5739 134.065C24.3352 133.395 24.2159 132.585 24.2159 131.636C24.2159 130.693 24.3352 129.888 24.5739 129.22C24.8153 128.55 25.1619 128.038 25.6136 127.686C26.0682 127.331 26.6136 127.153 27.25 127.153C27.8864 127.153 28.4304 127.331 28.8821 127.686C29.3366 128.038 29.6832 128.55 29.9219 129.22C30.1634 129.888 30.2841 130.693 30.2841 131.636C30.2841 132.585 30.1648 133.395 29.9261 134.065C29.6875 134.733 29.3423 135.243 28.8906 135.595C28.4389 135.945 27.892 136.119 27.25 136.119ZM27.25 135.182C27.8864 135.182 28.3807 134.875 28.733 134.261C29.0852 133.648 29.2614 132.773 29.2614 131.636C29.2614 130.881 29.1804 130.237 29.0185 129.706C28.8594 129.175 28.6293 128.77 28.3281 128.491C28.0298 128.213 27.6705 128.074 27.25 128.074C26.6193 128.074 26.1264 128.385 25.7713 129.007C25.4162 129.626 25.2386 130.503 25.2386 131.636C25.2386 132.392 25.3182 133.034 25.4773 133.562C25.6364 134.091 25.8651 134.493 26.1634 134.768C26.4645 135.044 26.8267 135.182 27.25 135.182Z" fill="black" fill-opacity="0.4"/>
<line x1="47.5" y1="23.5" x2="274.746" y2="23.5" stroke="black" stroke-opacity="0.05" stroke-linecap="round"/>
<line x1="47.5" y1="62.5" x2="274.746" y2="62.5" stroke="black" stroke-opacity="0.05" stroke-linecap="round"/>
<line x1="47.5" y1="101.5" x2="274.746" y2="101.5" stroke="black" stroke-opacity="0.05" stroke-linecap="round"/>
<line x1="47.5" y1="140.5" x2="274.746" y2="140.5" stroke="black" stroke-opacity="0.2" stroke-linecap="round"/>
<path d="M62.8202 157.273V166H61.7634V158.381H61.7122L59.5816 159.795V158.722L61.7634 157.273H62.8202ZM65.0915 159.881V159.42C65.0915 159.017 65.1739 158.659 65.3387 158.347C65.5034 158.034 65.7378 157.788 66.0418 157.609C66.3458 157.43 66.7051 157.341 67.1199 157.341C67.7506 157.341 68.2463 157.537 68.6071 157.929C68.9679 158.318 69.1483 158.815 69.1483 159.42V159.881C69.1483 160.284 69.0674 160.641 68.9054 160.95C68.7435 161.26 68.512 161.503 68.2108 161.679C67.9097 161.855 67.5517 161.943 67.137 161.943C66.5063 161.943 66.0077 161.751 65.6412 161.368C65.2747 160.982 65.0915 160.486 65.0915 159.881ZM66.1142 159.42V159.881C66.1142 160.23 66.1995 160.52 66.3699 160.75C66.5404 160.977 66.796 161.091 67.137 161.091C67.4693 161.091 67.7165 160.977 67.8784 160.75C68.0432 160.52 68.1256 160.23 68.1256 159.881V159.42C68.1256 159.08 68.0432 158.793 67.8784 158.56C67.7137 158.327 67.4608 158.21 67.1199 158.21C66.7875 158.21 66.5361 158.327 66.3656 158.56C66.198 158.793 66.1142 159.08 66.1142 159.42ZM48.1749 184V175.273H51.1238C51.8085 175.273 52.3681 175.396 52.8028 175.643C53.2403 175.888 53.5642 176.219 53.7744 176.636C53.9846 177.054 54.0897 177.52 54.0897 178.034C54.0897 178.548 53.9846 179.016 53.7744 179.436C53.567 179.857 53.246 180.192 52.8113 180.442C52.3767 180.689 51.8198 180.812 51.1409 180.812H49.0272V179.875H51.1068C51.5755 179.875 51.9519 179.794 52.236 179.632C52.5201 179.47 52.7261 179.251 52.8539 178.976C52.9846 178.697 53.0499 178.384 53.0499 178.034C53.0499 177.685 52.9846 177.372 52.8539 177.097C52.7261 176.821 52.5187 176.605 52.2318 176.449C51.9448 176.29 51.5642 176.21 51.0897 176.21H49.2318V184H48.1749ZM57.5819 184.153C57.1671 184.153 56.7907 184.075 56.4526 183.919C56.1146 183.76 55.8461 183.531 55.6473 183.233C55.4484 182.932 55.349 182.568 55.349 182.142C55.349 181.767 55.4228 181.463 55.5705 181.23C55.7183 180.994 55.9157 180.81 56.1629 180.676C56.41 180.543 56.6828 180.443 56.9811 180.378C57.2822 180.31 57.5848 180.256 57.8887 180.216C58.2865 180.165 58.6089 180.126 58.8561 180.101C59.1061 180.072 59.2879 180.026 59.4015 179.96C59.518 179.895 59.5762 179.781 59.5762 179.619V179.585C59.5762 179.165 59.4612 178.838 59.2311 178.605C59.0038 178.372 58.6586 178.256 58.1955 178.256C57.7154 178.256 57.339 178.361 57.0663 178.571C56.7936 178.781 56.6018 179.006 56.491 179.244L55.5365 178.903C55.7069 178.506 55.9342 178.196 56.2183 177.974C56.5052 177.75 56.8177 177.594 57.1558 177.506C57.4967 177.415 57.8319 177.369 58.1615 177.369C58.3717 177.369 58.6132 177.395 58.8859 177.446C59.1615 177.494 59.4271 177.595 59.6828 177.749C59.9413 177.902 60.1558 178.134 60.3262 178.443C60.4967 178.753 60.5819 179.168 60.5819 179.688V184H59.5762V183.114H59.5251C59.4569 183.256 59.3433 183.408 59.1842 183.57C59.0251 183.732 58.8134 183.869 58.5492 183.983C58.285 184.097 57.9626 184.153 57.5819 184.153ZM57.7353 183.25C58.133 183.25 58.4683 183.172 58.741 183.016C59.0166 182.859 59.224 182.658 59.3632 182.411C59.5052 182.163 59.5762 181.903 59.5762 181.631V180.71C59.5336 180.761 59.4399 180.808 59.295 180.851C59.1529 180.891 58.9882 180.926 58.8007 180.957C58.616 180.986 58.4356 181.011 58.2595 181.034C58.0862 181.054 57.9455 181.071 57.8376 181.085C57.5762 181.119 57.3319 181.175 57.1046 181.251C56.8802 181.325 56.6984 181.437 56.5592 181.588C56.4228 181.736 56.3546 181.937 56.3546 182.193C56.3546 182.543 56.4839 182.807 56.7424 182.986C57.0038 183.162 57.3348 183.25 57.7353 183.25ZM62.4175 184V177.455H63.3891V178.443H63.4573C63.5766 178.119 63.7925 177.857 64.105 177.655C64.4175 177.453 64.7698 177.352 65.1618 177.352C65.2357 177.352 65.328 177.354 65.4388 177.357C65.5496 177.359 65.6334 177.364 65.6902 177.369V178.392C65.6561 178.384 65.578 178.371 65.4558 178.354C65.3365 178.334 65.2101 178.324 65.0766 178.324C64.7584 178.324 64.4743 178.391 64.2243 178.524C63.9772 178.655 63.7811 178.837 63.6362 179.07C63.4942 179.3 63.4232 179.562 63.4232 179.858V184H62.4175ZM69.3422 184.136C68.7286 184.136 68.2002 183.991 67.757 183.702C67.3138 183.412 66.9729 183.013 66.7343 182.504C66.4956 181.996 66.3763 181.415 66.3763 180.761C66.3763 180.097 66.4985 179.51 66.7428 179.001C66.9899 178.49 67.3337 178.091 67.774 177.804C68.2172 177.514 68.7343 177.369 69.3252 177.369C69.7854 177.369 70.2002 177.455 70.5695 177.625C70.9388 177.795 71.2414 178.034 71.4772 178.341C71.7129 178.648 71.8593 179.006 71.9161 179.415H70.9104C70.8337 179.116 70.6632 178.852 70.399 178.622C70.1377 178.389 69.7854 178.273 69.3422 178.273C68.9502 178.273 68.6064 178.375 68.311 178.58C68.0183 178.781 67.7897 179.067 67.6249 179.436C67.4629 179.803 67.382 180.233 67.382 180.727C67.382 181.233 67.4615 181.673 67.6206 182.048C67.7825 182.423 68.0098 182.714 68.3024 182.922C68.5979 183.129 68.9445 183.233 69.3422 183.233C69.6036 183.233 69.8408 183.188 70.0539 183.097C70.2669 183.006 70.4473 182.875 70.595 182.705C70.7428 182.534 70.8479 182.33 70.9104 182.091H71.9161C71.8593 182.477 71.7186 182.825 71.4942 183.135C71.2726 183.442 70.9786 183.686 70.6121 183.868C70.2485 184.047 69.8252 184.136 69.3422 184.136ZM73.3862 184V177.455H74.3919V184H73.3862ZM73.8976 176.364C73.7016 176.364 73.5325 176.297 73.3905 176.163C73.2513 176.03 73.1817 175.869 73.1817 175.682C73.1817 175.494 73.2513 175.334 73.3905 175.2C73.5325 175.067 73.7016 175 73.8976 175C74.0936 175 74.2612 175.067 74.4004 175.2C74.5425 175.334 74.6135 175.494 74.6135 175.682C74.6135 175.869 74.5425 176.03 74.4004 176.163C74.2612 176.297 74.0936 176.364 73.8976 176.364ZM78.16 184.153C77.7453 184.153 77.3688 184.075 77.0308 183.919C76.6927 183.76 76.4242 183.531 76.2254 183.233C76.0265 182.932 75.9271 182.568 75.9271 182.142C75.9271 181.767 76.0009 181.463 76.1487 181.23C76.2964 180.994 76.4938 180.81 76.741 180.676C76.9882 180.543 77.2609 180.443 77.5592 180.378C77.8603 180.31 78.1629 180.256 78.4669 180.216C78.8646 180.165 79.187 180.126 79.4342 180.101C79.6842 180.072 79.866 180.026 79.9796 179.96C80.0961 179.895 80.1544 179.781 80.1544 179.619V179.585C80.1544 179.165 80.0393 178.838 79.8092 178.605C79.5819 178.372 79.2367 178.256 78.7737 178.256C78.2936 178.256 77.9171 178.361 77.6444 178.571C77.3717 178.781 77.1799 179.006 77.0691 179.244L76.1146 178.903C76.285 178.506 76.5123 178.196 76.7964 177.974C77.0833 177.75 77.3958 177.594 77.7339 177.506C78.0748 177.415 78.41 177.369 78.7396 177.369C78.9498 177.369 79.1913 177.395 79.464 177.446C79.7396 177.494 80.0052 177.595 80.2609 177.749C80.5194 177.902 80.7339 178.134 80.9044 178.443C81.0748 178.753 81.16 179.168 81.16 179.688V184H80.1544V183.114H80.1032C80.035 183.256 79.9214 183.408 79.7623 183.57C79.6032 183.732 79.3916 183.869 79.1274 183.983C78.8632 184.097 78.5407 184.153 78.16 184.153ZM78.3134 183.25C78.7112 183.25 79.0464 183.172 79.3191 183.016C79.5947 182.859 79.8021 182.658 79.9413 182.411C80.0833 182.163 80.1544 181.903 80.1544 181.631V180.71C80.1117 180.761 80.018 180.808 79.8731 180.851C79.7311 180.891 79.5663 180.926 79.3788 180.957C79.1941 180.986 79.0137 181.011 78.8376 181.034C78.6643 181.054 78.5237 181.071 78.4157 181.085C78.1544 181.119 77.91 181.175 77.6828 181.251C77.4583 181.325 77.2765 181.437 77.1373 181.588C77.0009 181.736 76.9328 181.937 76.9328 182.193C76.9328 182.543 77.062 182.807 77.3205 182.986C77.5819 183.162 77.9129 183.25 78.3134 183.25ZM84.0013 175.273V184H82.9956V175.273H84.0013Z" fill="black" fill-opacity="0.4"/>
<path d="M96.9493 166V165.233L99.83 162.08C100.168 161.71 100.446 161.389 100.665 161.116C100.884 160.841 101.046 160.582 101.151 160.341C101.259 160.097 101.313 159.841 101.313 159.574C101.313 159.267 101.239 159.001 101.091 158.777C100.946 158.553 100.748 158.379 100.495 158.257C100.242 158.135 99.9578 158.074 99.6425 158.074C99.3072 158.074 99.0146 158.143 98.7646 158.283C98.5175 158.419 98.3257 158.611 98.1893 158.858C98.0558 159.105 97.989 159.395 97.989 159.727H96.9834C96.9834 159.216 97.1013 158.767 97.3371 158.381C97.5729 157.994 97.8939 157.693 98.3001 157.477C98.7092 157.261 99.168 157.153 99.6765 157.153C100.188 157.153 100.641 157.261 101.036 157.477C101.431 157.693 101.74 157.984 101.965 158.351C102.189 158.717 102.302 159.125 102.302 159.574C102.302 159.895 102.243 160.209 102.127 160.516C102.013 160.82 101.814 161.159 101.53 161.534C101.249 161.906 100.858 162.361 100.358 162.898L98.3981 164.994V165.062H102.455V166H96.9493ZM103.976 159.881V159.42C103.976 159.017 104.059 158.659 104.223 158.347C104.388 158.034 104.623 157.788 104.927 157.609C105.231 157.43 105.59 157.341 106.005 157.341C106.635 157.341 107.131 157.537 107.492 157.929C107.853 158.318 108.033 158.815 108.033 159.42V159.881C108.033 160.284 107.952 160.641 107.79 160.95C107.628 161.26 107.397 161.503 107.096 161.679C106.794 161.855 106.436 161.943 106.022 161.943C105.391 161.943 104.892 161.751 104.526 161.368C104.16 160.982 103.976 160.486 103.976 159.881ZM104.999 159.42V159.881C104.999 160.23 105.084 160.52 105.255 160.75C105.425 160.977 105.681 161.091 106.022 161.091C106.354 161.091 106.601 160.977 106.763 160.75C106.928 160.52 107.01 160.23 107.01 159.881V159.42C107.01 159.08 106.928 158.793 106.763 158.56C106.598 158.327 106.346 158.21 106.005 158.21C105.672 158.21 105.421 158.327 105.25 158.56C105.083 158.793 104.999 159.08 104.999 159.42ZM86.216 184V175.273H89.1648C89.8495 175.273 90.4091 175.396 90.8438 175.643C91.2813 175.888 91.6052 176.219 91.8154 176.636C92.0256 177.054 92.1307 177.52 92.1307 178.034C92.1307 178.548 92.0256 179.016 91.8154 179.436C91.608 179.857 91.287 180.192 90.8523 180.442C90.4177 180.689 89.8609 180.812 89.1819 180.812H87.0682V179.875H89.1478C89.6165 179.875 89.993 179.794 90.277 179.632C90.5611 179.47 90.7671 179.251 90.8949 178.976C91.0256 178.697 91.091 178.384 91.091 178.034C91.091 177.685 91.0256 177.372 90.8949 177.097C90.7671 176.821 90.5597 176.605 90.2728 176.449C89.9859 176.29 89.6052 176.21 89.1307 176.21H87.2728V184H86.216ZM95.6229 184.153C95.2082 184.153 94.8317 184.075 94.4937 183.919C94.1556 183.76 93.8871 183.531 93.6883 183.233C93.4894 182.932 93.39 182.568 93.39 182.142C93.39 181.767 93.4638 181.463 93.6116 181.23C93.7593 180.994 93.9567 180.81 94.2039 180.676C94.4511 180.543 94.7238 180.443 95.0221 180.378C95.3232 180.31 95.6258 180.256 95.9297 180.216C96.3275 180.165 96.6499 180.126 96.8971 180.101C97.1471 180.072 97.3289 180.026 97.4425 179.96C97.559 179.895 97.6172 179.781 97.6172 179.619V179.585C97.6172 179.165 97.5022 178.838 97.2721 178.605C97.0448 178.372 96.6996 178.256 96.2366 178.256C95.7564 178.256 95.38 178.361 95.1073 178.571C94.8346 178.781 94.6428 179.006 94.532 179.244L93.5775 178.903C93.7479 178.506 93.9752 178.196 94.2593 177.974C94.5462 177.75 94.8587 177.594 95.1968 177.506C95.5377 177.415 95.8729 177.369 96.2025 177.369C96.4127 177.369 96.6542 177.395 96.9269 177.446C97.2025 177.494 97.4681 177.595 97.7238 177.749C97.9823 177.902 98.1968 178.134 98.3672 178.443C98.5377 178.753 98.6229 179.168 98.6229 179.688V184H97.6172V183.114H97.5661C97.4979 183.256 97.3843 183.408 97.2252 183.57C97.0661 183.732 96.8545 183.869 96.5903 183.983C96.3261 184.097 96.0036 184.153 95.6229 184.153ZM95.7763 183.25C96.1741 183.25 96.5093 183.172 96.782 183.016C97.0576 182.859 97.265 182.658 97.4042 182.411C97.5462 182.163 97.6172 181.903 97.6172 181.631V180.71C97.5746 180.761 97.4809 180.808 97.336 180.851C97.1939 180.891 97.0292 180.926 96.8417 180.957C96.657 180.986 96.4766 181.011 96.3005 181.034C96.1272 181.054 95.9866 181.071 95.8786 181.085C95.6172 181.119 95.3729 181.175 95.1457 181.251C94.9212 181.325 94.7394 181.437 94.6002 181.588C94.4638 181.736 94.3957 181.937 94.3957 182.193C94.3957 182.543 94.5249 182.807 94.7834 182.986C95.0448 183.162 95.3758 183.25 95.7763 183.25ZM100.459 184V177.455H101.43V178.443H101.498C101.618 178.119 101.834 177.857 102.146 177.655C102.459 177.453 102.811 177.352 103.203 177.352C103.277 177.352 103.369 177.354 103.48 177.357C103.591 177.359 103.674 177.364 103.731 177.369V178.392C103.697 178.384 103.619 178.371 103.497 178.354C103.378 178.334 103.251 178.324 103.118 178.324C102.799 178.324 102.515 178.391 102.265 178.524C102.018 178.655 101.822 178.837 101.677 179.07C101.535 179.3 101.464 179.562 101.464 179.858V184H100.459ZM107.383 184.136C106.77 184.136 106.241 183.991 105.798 183.702C105.355 183.412 105.014 183.013 104.775 182.504C104.537 181.996 104.417 181.415 104.417 180.761C104.417 180.097 104.539 179.51 104.784 179.001C105.031 178.49 105.375 178.091 105.815 177.804C106.258 177.514 106.775 177.369 107.366 177.369C107.826 177.369 108.241 177.455 108.61 177.625C108.98 177.795 109.282 178.034 109.518 178.341C109.754 178.648 109.9 179.006 109.957 179.415H108.951C108.875 179.116 108.704 178.852 108.44 178.622C108.179 178.389 107.826 178.273 107.383 178.273C106.991 178.273 106.647 178.375 106.352 178.58C106.059 178.781 105.831 179.067 105.666 179.436C105.504 179.803 105.423 180.233 105.423 180.727C105.423 181.233 105.503 181.673 105.662 182.048C105.824 182.423 106.051 182.714 106.343 182.922C106.639 183.129 106.985 183.233 107.383 183.233C107.645 183.233 107.882 183.188 108.095 183.097C108.308 183.006 108.488 182.875 108.636 182.705C108.784 182.534 108.889 182.33 108.951 182.091H109.957C109.9 182.477 109.76 182.825 109.535 183.135C109.314 183.442 109.02 183.686 108.653 183.868C108.289 184.047 107.866 184.136 107.383 184.136ZM111.427 184V177.455H112.433V184H111.427ZM111.939 176.364C111.743 176.364 111.574 176.297 111.432 176.163C111.292 176.03 111.223 175.869 111.223 175.682C111.223 175.494 111.292 175.334 111.432 175.2C111.574 175.067 111.743 175 111.939 175C112.135 175 112.302 175.067 112.441 175.2C112.584 175.334 112.655 175.494 112.655 175.682C112.655 175.869 112.584 176.03 112.441 176.163C112.302 176.297 112.135 176.364 111.939 176.364ZM116.201 184.153C115.786 184.153 115.41 184.075 115.072 183.919C114.734 183.76 114.465 183.531 114.266 183.233C114.068 182.932 113.968 182.568 113.968 182.142C113.968 181.767 114.042 181.463 114.19 181.23C114.337 180.994 114.535 180.81 114.782 180.676C115.029 180.543 115.302 180.443 115.6 180.378C115.901 180.31 116.204 180.256 116.508 180.216C116.906 180.165 117.228 180.126 117.475 180.101C117.725 180.072 117.907 180.026 118.021 179.96C118.137 179.895 118.195 179.781 118.195 179.619V179.585C118.195 179.165 118.08 178.838 117.85 178.605C117.623 178.372 117.278 178.256 116.815 178.256C116.335 178.256 115.958 178.361 115.685 178.571C115.413 178.781 115.221 179.006 115.11 179.244L114.156 178.903C114.326 178.506 114.553 178.196 114.837 177.974C115.124 177.75 115.437 177.594 115.775 177.506C116.116 177.415 116.451 177.369 116.781 177.369C116.991 177.369 117.232 177.395 117.505 177.446C117.781 177.494 118.046 177.595 118.302 177.749C118.56 177.902 118.775 178.134 118.945 178.443C119.116 178.753 119.201 179.168 119.201 179.688V184H118.195V183.114H118.144C118.076 183.256 117.962 183.408 117.803 183.57C117.644 183.732 117.433 183.869 117.168 183.983C116.904 184.097 116.582 184.153 116.201 184.153ZM116.354 183.25C116.752 183.25 117.087 183.172 117.36 183.016C117.636 182.859 117.843 182.658 117.982 182.411C118.124 182.163 118.195 181.903 118.195 181.631V180.71C118.153 180.761 118.059 180.808 117.914 180.851C117.772 180.891 117.607 180.926 117.42 180.957C117.235 180.986 117.055 181.011 116.879 181.034C116.705 181.054 116.565 181.071 116.457 181.085C116.195 181.119 115.951 181.175 115.724 181.251C115.499 181.325 115.318 181.437 115.178 181.588C115.042 181.736 114.974 181.937 114.974 182.193C114.974 182.543 115.103 182.807 115.362 182.986C115.623 183.162 115.954 183.25 116.354 183.25ZM122.042 175.273V184H121.037V175.273H122.042Z" fill="black" fill-opacity="0.4"/>
<path d="M130.5 158.21V157.273H137.046V158.21H134.302V166H133.245V158.21H130.5ZM140.336 166.136C139.705 166.136 139.161 165.997 138.704 165.719C138.249 165.438 137.898 165.045 137.651 164.543C137.407 164.037 137.285 163.449 137.285 162.778C137.285 162.108 137.407 161.517 137.651 161.006C137.898 160.491 138.242 160.091 138.682 159.804C139.125 159.514 139.642 159.369 140.233 159.369C140.574 159.369 140.911 159.426 141.243 159.54C141.576 159.653 141.878 159.838 142.151 160.094C142.424 160.347 142.641 160.682 142.803 161.099C142.965 161.517 143.046 162.031 143.046 162.642V163.068H138V162.199H142.023C142.023 161.83 141.949 161.5 141.802 161.21C141.657 160.92 141.449 160.692 141.179 160.524C140.912 160.357 140.597 160.273 140.233 160.273C139.833 160.273 139.486 160.372 139.194 160.571C138.904 160.767 138.681 161.023 138.525 161.338C138.368 161.653 138.29 161.991 138.29 162.352V162.932C138.29 163.426 138.375 163.845 138.546 164.189C138.719 164.53 138.959 164.79 139.266 164.969C139.573 165.145 139.929 165.233 140.336 165.233C140.6 165.233 140.838 165.196 141.052 165.122C141.267 165.045 141.454 164.932 141.61 164.781C141.766 164.628 141.887 164.437 141.972 164.21L142.944 164.483C142.841 164.812 142.669 165.102 142.428 165.352C142.186 165.599 141.888 165.793 141.533 165.932C141.178 166.068 140.779 166.136 140.336 166.136ZM149.212 160.92L148.309 161.176C148.252 161.026 148.168 160.879 148.057 160.737C147.949 160.592 147.802 160.473 147.614 160.379C147.427 160.286 147.186 160.239 146.894 160.239C146.493 160.239 146.16 160.331 145.892 160.516C145.628 160.697 145.496 160.929 145.496 161.21C145.496 161.46 145.587 161.658 145.769 161.803C145.951 161.947 146.235 162.068 146.621 162.165L147.593 162.403C148.178 162.545 148.614 162.763 148.901 163.055C149.188 163.345 149.331 163.719 149.331 164.176C149.331 164.551 149.223 164.886 149.008 165.182C148.794 165.477 148.496 165.71 148.113 165.881C147.729 166.051 147.283 166.136 146.775 166.136C146.107 166.136 145.554 165.991 145.117 165.702C144.679 165.412 144.402 164.989 144.286 164.432L145.24 164.193C145.331 164.545 145.503 164.81 145.756 164.986C146.012 165.162 146.346 165.25 146.758 165.25C147.226 165.25 147.598 165.151 147.874 164.952C148.152 164.75 148.292 164.509 148.292 164.227C148.292 164 148.212 163.81 148.053 163.656C147.894 163.5 147.65 163.384 147.32 163.307L146.229 163.051C145.63 162.909 145.189 162.689 144.908 162.391C144.63 162.089 144.49 161.713 144.49 161.261C144.49 160.892 144.594 160.565 144.802 160.281C145.012 159.997 145.297 159.774 145.658 159.612C146.022 159.45 146.434 159.369 146.894 159.369C147.542 159.369 148.05 159.511 148.419 159.795C148.792 160.08 149.056 160.455 149.212 160.92ZM153.692 159.455V160.307H150.3V159.455H153.692ZM151.288 157.886H152.294V164.125C152.294 164.409 152.335 164.622 152.418 164.764C152.503 164.903 152.611 164.997 152.742 165.045C152.875 165.091 153.016 165.114 153.163 165.114C153.274 165.114 153.365 165.108 153.436 165.097C153.507 165.082 153.564 165.071 153.607 165.062L153.811 165.966C153.743 165.991 153.648 166.017 153.526 166.043C153.403 166.071 153.249 166.085 153.061 166.085C152.777 166.085 152.499 166.024 152.226 165.902C151.956 165.78 151.732 165.594 151.553 165.344C151.376 165.094 151.288 164.778 151.288 164.398V157.886ZM129.888 184V175.273H130.945V183.062H135.001V184H129.888ZM138.428 184.153C138.013 184.153 137.636 184.075 137.298 183.919C136.96 183.76 136.692 183.531 136.493 183.233C136.294 182.932 136.195 182.568 136.195 182.142C136.195 181.767 136.269 181.463 136.416 181.23C136.564 180.994 136.761 180.81 137.009 180.676C137.256 180.543 137.528 180.443 137.827 180.378C138.128 180.31 138.43 180.256 138.734 180.216C139.132 180.165 139.455 180.126 139.702 180.101C139.952 180.072 140.134 180.026 140.247 179.96C140.364 179.895 140.422 179.781 140.422 179.619V179.585C140.422 179.165 140.307 178.838 140.077 178.605C139.849 178.372 139.504 178.256 139.041 178.256C138.561 178.256 138.185 178.361 137.912 178.571C137.639 178.781 137.447 179.006 137.337 179.244L136.382 178.903C136.553 178.506 136.78 178.196 137.064 177.974C137.351 177.75 137.663 177.594 138.001 177.506C138.342 177.415 138.678 177.369 139.007 177.369C139.217 177.369 139.459 177.395 139.732 177.446C140.007 177.494 140.273 177.595 140.528 177.749C140.787 177.902 141.001 178.134 141.172 178.443C141.342 178.753 141.428 179.168 141.428 179.688V184H140.422V183.114H140.371C140.303 183.256 140.189 183.408 140.03 183.57C139.871 183.732 139.659 183.869 139.395 183.983C139.131 184.097 138.808 184.153 138.428 184.153ZM138.581 183.25C138.979 183.25 139.314 183.172 139.587 183.016C139.862 182.859 140.07 182.658 140.209 182.411C140.351 182.163 140.422 181.903 140.422 181.631V180.71C140.379 180.761 140.286 180.808 140.141 180.851C139.999 180.891 139.834 180.926 139.646 180.957C139.462 180.986 139.281 181.011 139.105 181.034C138.932 181.054 138.791 181.071 138.683 181.085C138.422 181.119 138.178 181.175 137.95 181.251C137.726 181.325 137.544 181.437 137.405 181.588C137.269 181.736 137.2 181.937 137.2 182.193C137.2 182.543 137.33 182.807 137.588 182.986C137.849 183.162 138.18 183.25 138.581 183.25ZM143.4 184V175.273H144.405V178.494H144.49C144.564 178.381 144.667 178.236 144.797 178.06C144.931 177.881 145.121 177.722 145.368 177.582C145.618 177.44 145.956 177.369 146.383 177.369C146.934 177.369 147.419 177.507 147.84 177.783C148.26 178.058 148.588 178.449 148.824 178.955C149.06 179.46 149.178 180.057 149.178 180.744C149.178 181.438 149.06 182.038 148.824 182.547C148.588 183.053 148.262 183.445 147.844 183.723C147.427 183.999 146.945 184.136 146.4 184.136C145.979 184.136 145.642 184.067 145.39 183.928C145.137 183.786 144.942 183.625 144.806 183.446C144.669 183.264 144.564 183.114 144.49 182.994H144.371V184H143.4ZM144.388 180.727C144.388 181.222 144.461 181.658 144.606 182.036C144.75 182.411 144.962 182.705 145.24 182.918C145.519 183.128 145.86 183.233 146.263 183.233C146.684 183.233 147.035 183.122 147.316 182.901C147.6 182.676 147.813 182.375 147.955 181.997C148.1 181.616 148.172 181.193 148.172 180.727C148.172 180.267 148.101 179.852 147.959 179.483C147.82 179.111 147.608 178.817 147.324 178.601C147.043 178.382 146.689 178.273 146.263 178.273C145.854 178.273 145.51 178.376 145.232 178.584C144.954 178.788 144.743 179.075 144.601 179.445C144.459 179.811 144.388 180.239 144.388 180.727ZM153.767 175.273V184H152.711V176.381H152.66L150.529 177.795V176.722L152.711 175.273H153.767Z" fill="black" fill-opacity="0.4"/>
<path d="M167.749 158.794V157.273H174.917V158.794H172.245V166H170.421V158.794H167.749ZM178.097 166.128C177.424 166.128 176.844 165.991 176.358 165.719C175.875 165.443 175.503 165.054 175.242 164.551C174.981 164.045 174.85 163.447 174.85 162.757C174.85 162.084 174.981 161.493 175.242 160.984C175.503 160.476 175.871 160.08 176.346 159.795C176.823 159.511 177.383 159.369 178.025 159.369C178.456 159.369 178.858 159.439 179.231 159.578C179.606 159.714 179.932 159.92 180.211 160.196C180.492 160.472 180.711 160.818 180.867 161.236C181.023 161.651 181.101 162.136 181.101 162.693V163.192H175.574V162.067H179.392C179.392 161.805 179.336 161.574 179.222 161.372C179.108 161.17 178.951 161.013 178.749 160.899C178.55 160.783 178.319 160.724 178.054 160.724C177.779 160.724 177.535 160.788 177.321 160.916C177.111 161.041 176.946 161.21 176.827 161.423C176.708 161.634 176.647 161.868 176.644 162.126V163.196C176.644 163.52 176.704 163.8 176.823 164.036C176.945 164.271 177.117 164.453 177.338 164.581C177.56 164.709 177.823 164.773 178.127 164.773C178.329 164.773 178.513 164.744 178.681 164.688C178.848 164.631 178.992 164.545 179.111 164.432C179.231 164.318 179.321 164.179 179.384 164.014L181.063 164.125C180.978 164.528 180.803 164.881 180.539 165.182C180.277 165.48 179.939 165.713 179.525 165.881C179.113 166.045 178.637 166.128 178.097 166.128ZM187.732 161.321L186.07 161.423C186.042 161.281 185.981 161.153 185.887 161.04C185.793 160.923 185.669 160.831 185.516 160.763C185.365 160.692 185.185 160.656 184.975 160.656C184.694 160.656 184.456 160.716 184.263 160.835C184.07 160.952 183.973 161.108 183.973 161.304C183.973 161.46 184.036 161.592 184.161 161.7C184.286 161.808 184.5 161.895 184.804 161.96L185.989 162.199C186.625 162.33 187.1 162.54 187.412 162.83C187.725 163.119 187.881 163.5 187.881 163.972C187.881 164.401 187.755 164.777 187.502 165.101C187.252 165.425 186.908 165.678 186.471 165.859C186.036 166.038 185.535 166.128 184.966 166.128C184.1 166.128 183.41 165.947 182.895 165.587C182.384 165.223 182.084 164.729 181.996 164.104L183.782 164.01C183.836 164.274 183.966 164.476 184.174 164.615C184.381 164.751 184.647 164.82 184.971 164.82C185.289 164.82 185.544 164.759 185.738 164.636C185.934 164.511 186.033 164.351 186.036 164.155C186.033 163.99 185.963 163.855 185.827 163.75C185.691 163.642 185.481 163.56 185.196 163.503L184.063 163.277C183.424 163.149 182.948 162.928 182.635 162.612C182.326 162.297 182.171 161.895 182.171 161.406C182.171 160.986 182.285 160.624 182.512 160.32C182.742 160.016 183.064 159.781 183.479 159.616C183.897 159.452 184.385 159.369 184.945 159.369C185.772 159.369 186.422 159.544 186.897 159.893C187.374 160.243 187.652 160.719 187.732 161.321ZM192.506 159.455V160.818H188.564V159.455H192.506ZM189.459 157.886H191.274V163.989C191.274 164.156 191.3 164.287 191.351 164.381C191.402 164.472 191.473 164.536 191.564 164.572C191.658 164.609 191.766 164.628 191.888 164.628C191.973 164.628 192.058 164.621 192.144 164.607C192.229 164.589 192.294 164.577 192.34 164.568L192.625 165.919C192.534 165.947 192.406 165.98 192.242 166.017C192.077 166.057 191.876 166.081 191.641 166.089C191.203 166.107 190.82 166.048 190.49 165.915C190.163 165.781 189.909 165.574 189.727 165.293C189.546 165.011 189.456 164.656 189.459 164.227V157.886ZM166.424 184V175.273H168.269V182.479H172.01V184H166.424ZM175.065 184.124C174.647 184.124 174.275 184.051 173.948 183.906C173.621 183.759 173.363 183.541 173.172 183.254C172.985 182.964 172.891 182.604 172.891 182.172C172.891 181.808 172.958 181.503 173.091 181.256C173.225 181.009 173.407 180.81 173.637 180.659C173.867 180.509 174.128 180.395 174.421 180.318C174.716 180.241 175.026 180.188 175.35 180.156C175.731 180.116 176.038 180.08 176.27 180.045C176.503 180.009 176.672 179.955 176.778 179.884C176.883 179.812 176.935 179.707 176.935 179.568V179.543C176.935 179.273 176.85 179.064 176.68 178.916C176.512 178.768 176.273 178.695 175.964 178.695C175.637 178.695 175.377 178.767 175.184 178.912C174.991 179.054 174.863 179.233 174.8 179.449L173.121 179.312C173.207 178.915 173.374 178.571 173.624 178.281C173.874 177.989 174.197 177.764 174.591 177.608C174.989 177.449 175.449 177.369 175.972 177.369C176.336 177.369 176.684 177.412 177.016 177.497C177.351 177.582 177.648 177.714 177.907 177.893C178.168 178.072 178.374 178.303 178.525 178.584C178.675 178.862 178.751 179.196 178.751 179.585V184H177.029V183.092H176.978C176.873 183.297 176.732 183.477 176.556 183.634C176.38 183.787 176.168 183.908 175.921 183.996C175.674 184.081 175.388 184.124 175.065 184.124ZM175.584 182.871C175.851 182.871 176.087 182.818 176.292 182.713C176.496 182.605 176.657 182.46 176.773 182.278C176.89 182.097 176.948 181.891 176.948 181.661V180.966C176.891 181.003 176.813 181.037 176.714 181.068C176.617 181.097 176.508 181.124 176.386 181.149C176.263 181.172 176.141 181.193 176.019 181.213C175.897 181.23 175.786 181.246 175.687 181.26C175.474 181.291 175.288 181.341 175.128 181.409C174.969 181.477 174.846 181.57 174.758 181.686C174.67 181.8 174.626 181.942 174.626 182.112C174.626 182.359 174.715 182.548 174.894 182.679C175.076 182.807 175.306 182.871 175.584 182.871ZM180.193 184V175.273H182.008V178.554H182.064C182.143 178.378 182.258 178.199 182.409 178.017C182.562 177.832 182.761 177.679 183.006 177.557C183.253 177.432 183.56 177.369 183.926 177.369C184.403 177.369 184.844 177.494 185.247 177.744C185.65 177.991 185.973 178.365 186.214 178.865C186.456 179.362 186.577 179.986 186.577 180.736C186.577 181.466 186.459 182.082 186.223 182.585C185.99 183.085 185.672 183.464 185.268 183.723C184.868 183.979 184.419 184.107 183.922 184.107C183.569 184.107 183.27 184.048 183.023 183.932C182.778 183.815 182.578 183.669 182.422 183.493C182.266 183.314 182.146 183.134 182.064 182.952H181.983V184H180.193ZM181.97 180.727C181.97 181.116 182.024 181.456 182.132 181.746C182.24 182.036 182.396 182.261 182.601 182.423C182.805 182.582 183.054 182.662 183.346 182.662C183.642 182.662 183.892 182.581 184.096 182.419C184.301 182.254 184.456 182.027 184.561 181.737C184.669 181.445 184.723 181.108 184.723 180.727C184.723 180.349 184.67 180.017 184.565 179.73C184.46 179.443 184.305 179.219 184.101 179.057C183.896 178.895 183.645 178.814 183.346 178.814C183.051 178.814 182.801 178.892 182.596 179.048C182.395 179.205 182.24 179.426 182.132 179.713C182.024 180 181.97 180.338 181.97 180.727ZM187.771 184V182.67L190.877 179.794C191.142 179.538 191.363 179.308 191.542 179.104C191.724 178.899 191.862 178.699 191.955 178.503C192.049 178.304 192.096 178.089 192.096 177.859C192.096 177.604 192.038 177.384 191.921 177.199C191.805 177.011 191.646 176.868 191.444 176.768C191.242 176.666 191.014 176.615 190.758 176.615C190.491 176.615 190.258 176.669 190.059 176.777C189.86 176.885 189.707 177.04 189.599 177.241C189.491 177.443 189.437 177.683 189.437 177.962H187.686C187.686 177.391 187.815 176.895 188.073 176.474C188.332 176.054 188.694 175.729 189.16 175.499C189.626 175.268 190.163 175.153 190.771 175.153C191.396 175.153 191.94 175.264 192.403 175.486C192.869 175.705 193.231 176.009 193.49 176.398C193.748 176.787 193.877 177.233 193.877 177.736C193.877 178.065 193.812 178.391 193.681 178.712C193.554 179.033 193.325 179.389 192.995 179.781C192.666 180.17 192.201 180.638 191.602 181.183L190.328 182.432V182.491H193.992V184H187.771Z" fill="#38487A"/>
<path d="M206.582 158.21V157.273H213.128V158.21H210.384V166H209.327V158.21H206.582ZM216.418 166.136C215.787 166.136 215.243 165.997 214.786 165.719C214.331 165.438 213.98 165.045 213.733 164.543C213.489 164.037 213.367 163.449 213.367 162.778C213.367 162.108 213.489 161.517 213.733 161.006C213.98 160.491 214.324 160.091 214.764 159.804C215.207 159.514 215.724 159.369 216.315 159.369C216.656 159.369 216.993 159.426 217.325 159.54C217.658 159.653 217.96 159.838 218.233 160.094C218.506 160.347 218.723 160.682 218.885 161.099C219.047 161.517 219.128 162.031 219.128 162.642V163.068H214.082V162.199H218.105C218.105 161.83 218.031 161.5 217.884 161.21C217.739 160.92 217.531 160.692 217.261 160.524C216.994 160.357 216.679 160.273 216.315 160.273C215.915 160.273 215.568 160.372 215.276 160.571C214.986 160.767 214.763 161.023 214.607 161.338C214.45 161.653 214.372 161.991 214.372 162.352V162.932C214.372 163.426 214.457 163.845 214.628 164.189C214.801 164.53 215.041 164.79 215.348 164.969C215.655 165.145 216.011 165.233 216.418 165.233C216.682 165.233 216.921 165.196 217.134 165.122C217.349 165.045 217.536 164.932 217.692 164.781C217.848 164.628 217.969 164.437 218.054 164.21L219.026 164.483C218.923 164.812 218.751 165.102 218.51 165.352C218.269 165.599 217.97 165.793 217.615 165.932C217.26 166.068 216.861 166.136 216.418 166.136ZM225.294 160.92L224.391 161.176C224.334 161.026 224.25 160.879 224.139 160.737C224.031 160.592 223.884 160.473 223.696 160.379C223.509 160.286 223.269 160.239 222.976 160.239C222.575 160.239 222.242 160.331 221.974 160.516C221.71 160.697 221.578 160.929 221.578 161.21C221.578 161.46 221.669 161.658 221.851 161.803C222.033 161.947 222.317 162.068 222.703 162.165L223.675 162.403C224.26 162.545 224.696 162.763 224.983 163.055C225.27 163.345 225.413 163.719 225.413 164.176C225.413 164.551 225.305 164.886 225.09 165.182C224.876 165.477 224.578 165.71 224.195 165.881C223.811 166.051 223.365 166.136 222.857 166.136C222.189 166.136 221.636 165.991 221.199 165.702C220.761 165.412 220.484 164.989 220.368 164.432L221.322 164.193C221.413 164.545 221.585 164.81 221.838 164.986C222.094 165.162 222.428 165.25 222.84 165.25C223.308 165.25 223.68 165.151 223.956 164.952C224.234 164.75 224.374 164.509 224.374 164.227C224.374 164 224.294 163.81 224.135 163.656C223.976 163.5 223.732 163.384 223.402 163.307L222.311 163.051C221.712 162.909 221.271 162.689 220.99 162.391C220.712 162.089 220.572 161.713 220.572 161.261C220.572 160.892 220.676 160.565 220.884 160.281C221.094 159.997 221.379 159.774 221.74 159.612C222.104 159.45 222.516 159.369 222.976 159.369C223.624 159.369 224.132 159.511 224.501 159.795C224.874 160.08 225.138 160.455 225.294 160.92ZM229.774 159.455V160.307H226.382V159.455H229.774ZM227.37 157.886H228.376V164.125C228.376 164.409 228.417 164.622 228.5 164.764C228.585 164.903 228.693 164.997 228.824 165.045C228.957 165.091 229.098 165.114 229.245 165.114C229.356 165.114 229.447 165.108 229.518 165.097C229.589 165.082 229.646 165.071 229.689 165.062L229.893 165.966C229.825 165.991 229.73 166.017 229.608 166.043C229.485 166.071 229.331 166.085 229.143 166.085C228.859 166.085 228.581 166.024 228.308 165.902C228.038 165.78 227.814 165.594 227.635 165.344C227.459 165.094 227.37 164.778 227.37 164.398V157.886ZM204.939 184V175.273H205.995V183.062H210.052V184H204.939ZM213.478 184.153C213.064 184.153 212.687 184.075 212.349 183.919C212.011 183.76 211.743 183.531 211.544 183.233C211.345 182.932 211.245 182.568 211.245 182.142C211.245 181.767 211.319 181.463 211.467 181.23C211.615 180.994 211.812 180.81 212.059 180.676C212.307 180.543 212.579 180.443 212.878 180.378C213.179 180.31 213.481 180.256 213.785 180.216C214.183 180.165 214.505 180.126 214.753 180.101C215.003 180.072 215.184 180.026 215.298 179.96C215.414 179.895 215.473 179.781 215.473 179.619V179.585C215.473 179.165 215.358 178.838 215.128 178.605C214.9 178.372 214.555 178.256 214.092 178.256C213.612 178.256 213.235 178.361 212.963 178.571C212.69 178.781 212.498 179.006 212.387 179.244L211.433 178.903C211.603 178.506 211.831 178.196 212.115 177.974C212.402 177.75 212.714 177.594 213.052 177.506C213.393 177.415 213.728 177.369 214.058 177.369C214.268 177.369 214.51 177.395 214.782 177.446C215.058 177.494 215.324 177.595 215.579 177.749C215.838 177.902 216.052 178.134 216.223 178.443C216.393 178.753 216.478 179.168 216.478 179.688V184H215.473V183.114H215.422C215.353 183.256 215.24 183.408 215.081 183.57C214.922 183.732 214.71 183.869 214.446 183.983C214.182 184.097 213.859 184.153 213.478 184.153ZM213.632 183.25C214.03 183.25 214.365 183.172 214.637 183.016C214.913 182.859 215.12 182.658 215.26 182.411C215.402 182.163 215.473 181.903 215.473 181.631V180.71C215.43 180.761 215.336 180.808 215.191 180.851C215.049 180.891 214.885 180.926 214.697 180.957C214.512 180.986 214.332 181.011 214.156 181.034C213.983 181.054 213.842 181.071 213.734 181.085C213.473 181.119 213.228 181.175 213.001 181.251C212.777 181.325 212.595 181.437 212.456 181.588C212.319 181.736 212.251 181.937 212.251 182.193C212.251 182.543 212.38 182.807 212.639 182.986C212.9 183.162 213.231 183.25 213.632 183.25ZM218.45 184V175.273H219.456V178.494H219.541C219.615 178.381 219.717 178.236 219.848 178.06C219.982 177.881 220.172 177.722 220.419 177.582C220.669 177.44 221.007 177.369 221.433 177.369C221.984 177.369 222.47 177.507 222.891 177.783C223.311 178.058 223.639 178.449 223.875 178.955C224.111 179.46 224.229 180.057 224.229 180.744C224.229 181.438 224.111 182.038 223.875 182.547C223.639 183.053 223.313 183.445 222.895 183.723C222.477 183.999 221.996 184.136 221.45 184.136C221.03 184.136 220.693 184.067 220.44 183.928C220.188 183.786 219.993 183.625 219.857 183.446C219.72 183.264 219.615 183.114 219.541 182.994H219.422V184H218.45ZM219.439 180.727C219.439 181.222 219.511 181.658 219.656 182.036C219.801 182.411 220.013 182.705 220.291 182.918C220.57 183.128 220.911 183.233 221.314 183.233C221.734 183.233 222.085 183.122 222.367 182.901C222.651 182.676 222.864 182.375 223.006 181.997C223.151 181.616 223.223 181.193 223.223 180.727C223.223 180.267 223.152 179.852 223.01 179.483C222.871 179.111 222.659 178.817 222.375 178.601C222.094 178.382 221.74 178.273 221.314 178.273C220.905 178.273 220.561 178.376 220.283 178.584C220.004 178.788 219.794 179.075 219.652 179.445C219.51 179.811 219.439 180.239 219.439 180.727ZM228.699 184.119C228.136 184.119 227.635 184.023 227.195 183.83C226.757 183.636 226.409 183.368 226.151 183.024C225.895 182.678 225.756 182.276 225.733 181.818H226.807C226.83 182.099 226.926 182.342 227.097 182.547C227.267 182.749 227.49 182.905 227.766 183.016C228.041 183.126 228.347 183.182 228.682 183.182C229.057 183.182 229.389 183.116 229.679 182.986C229.969 182.855 230.196 182.673 230.361 182.44C230.526 182.207 230.608 181.938 230.608 181.631C230.608 181.31 230.528 181.027 230.369 180.783C230.21 180.536 229.977 180.342 229.671 180.203C229.364 180.064 228.989 179.994 228.546 179.994H227.847V179.057H228.546C228.892 179.057 229.196 178.994 229.457 178.869C229.722 178.744 229.928 178.568 230.075 178.341C230.226 178.114 230.301 177.847 230.301 177.54C230.301 177.244 230.236 176.987 230.105 176.768C229.974 176.55 229.79 176.379 229.551 176.257C229.315 176.135 229.037 176.074 228.716 176.074C228.415 176.074 228.131 176.129 227.864 176.24C227.599 176.348 227.384 176.506 227.216 176.713C227.048 176.918 226.957 177.165 226.943 177.455H225.921C225.938 176.997 226.075 176.597 226.334 176.253C226.592 175.906 226.93 175.636 227.348 175.443C227.769 175.25 228.23 175.153 228.733 175.153C229.273 175.153 229.736 175.263 230.122 175.482C230.509 175.697 230.805 175.983 231.013 176.338C231.22 176.693 231.324 177.077 231.324 177.489C231.324 177.98 231.195 178.399 230.936 178.746C230.68 179.092 230.332 179.332 229.892 179.466V179.534C230.443 179.625 230.874 179.859 231.183 180.237C231.493 180.612 231.648 181.077 231.648 181.631C231.648 182.105 231.519 182.531 231.26 182.909C231.004 183.284 230.655 183.58 230.212 183.795C229.769 184.011 229.264 184.119 228.699 184.119Z" fill="black" fill-opacity="0.4"/>
<path d="M244.023 166V157.273H249.256V158.21H245.079V161.159H248.864V162.097H245.079V166H244.023ZM250.929 166V159.455H251.935V166H250.929ZM251.441 158.364C251.245 158.364 251.076 158.297 250.933 158.163C250.794 158.03 250.725 157.869 250.725 157.682C250.725 157.494 250.794 157.334 250.933 157.2C251.076 157.067 251.245 157 251.441 157C251.637 157 251.804 157.067 251.943 157.2C252.085 157.334 252.156 157.494 252.156 157.682C252.156 157.869 252.085 158.03 251.943 158.163C251.804 158.297 251.637 158.364 251.441 158.364ZM254.783 162.062V166H253.777V159.455H254.748V160.477H254.834C254.987 160.145 255.22 159.878 255.533 159.676C255.845 159.472 256.248 159.369 256.743 159.369C257.186 159.369 257.574 159.46 257.906 159.642C258.239 159.821 258.497 160.094 258.682 160.46C258.866 160.824 258.959 161.284 258.959 161.841V166H257.953V161.909C257.953 161.395 257.819 160.994 257.552 160.707C257.285 160.418 256.919 160.273 256.453 160.273C256.132 160.273 255.845 160.342 255.592 160.482C255.342 160.621 255.145 160.824 255 161.091C254.855 161.358 254.783 161.682 254.783 162.062ZM262.723 166.153C262.308 166.153 261.931 166.075 261.593 165.919C261.255 165.76 260.987 165.531 260.788 165.233C260.589 164.932 260.49 164.568 260.49 164.142C260.49 163.767 260.563 163.463 260.711 163.23C260.859 162.994 261.056 162.81 261.304 162.676C261.551 162.543 261.823 162.443 262.122 162.378C262.423 162.31 262.725 162.256 263.029 162.216C263.427 162.165 263.75 162.126 263.997 162.101C264.247 162.072 264.429 162.026 264.542 161.96C264.659 161.895 264.717 161.781 264.717 161.619V161.585C264.717 161.165 264.602 160.838 264.372 160.605C264.144 160.372 263.799 160.256 263.336 160.256C262.856 160.256 262.48 160.361 262.207 160.571C261.934 160.781 261.742 161.006 261.632 161.244L260.677 160.903C260.848 160.506 261.075 160.196 261.359 159.974C261.646 159.75 261.958 159.594 262.296 159.506C262.637 159.415 262.973 159.369 263.302 159.369C263.512 159.369 263.754 159.395 264.027 159.446C264.302 159.494 264.568 159.595 264.823 159.749C265.082 159.902 265.296 160.134 265.467 160.443C265.637 160.753 265.723 161.168 265.723 161.688V166H264.717V165.114H264.666C264.598 165.256 264.484 165.408 264.325 165.57C264.166 165.732 263.954 165.869 263.69 165.983C263.426 166.097 263.103 166.153 262.723 166.153ZM262.876 165.25C263.274 165.25 263.609 165.172 263.882 165.016C264.157 164.859 264.365 164.658 264.504 164.411C264.646 164.163 264.717 163.903 264.717 163.631V162.71C264.674 162.761 264.58 162.808 264.436 162.851C264.294 162.891 264.129 162.926 263.941 162.957C263.757 162.986 263.576 163.011 263.4 163.034C263.227 163.054 263.086 163.071 262.978 163.085C262.717 163.119 262.473 163.175 262.245 163.251C262.021 163.325 261.839 163.437 261.7 163.588C261.563 163.736 261.495 163.937 261.495 164.193C261.495 164.543 261.625 164.807 261.883 164.986C262.144 165.162 262.475 165.25 262.876 165.25ZM268.564 157.273V166H267.558V157.273H268.564Z" fill="black" fill-opacity="0.4"/>
<path d="M57.2705 66.6238C57.2705 64.4146 59.0614 62.6238 61.2705 62.6238H71.2705C73.4796 62.6238 75.2705 64.4146 75.2705 66.6238V135.624H57.2705V66.6238Z" fill="#BAEDBD"/>
<path d="M97.2256 56.6238C97.2256 54.4146 99.0164 52.6238 101.226 52.6238H111.226C113.435 52.6238 115.226 54.4146 115.226 56.6238V135.624H97.2256V56.6238Z" fill="#C6C7F8"/>
<path d="M137.181 63.6238C137.181 61.4146 138.972 59.6238 141.181 59.6238H151.181C153.39 59.6238 155.181 61.4146 155.181 63.6238V135.624H137.181V63.6238Z" fill="#1C1C1C"/>
<path d="M177.136 17.6238C177.136 15.4146 178.927 13.6238 181.136 13.6238H191.136C193.345 13.6238 195.136 15.4146 195.136 17.6238V135.624H177.136V17.6238Z" fill="#5D5FEF"/>
</svg>
