<svg width="376" height="108" viewBox="0 0 376 108" fill="none" xmlns="http://www.w3.org/2000/svg">
<path d="M5.34561 4.27273V13H4.2888V5.38068H4.23766L2.10698 6.79545V5.72159L4.2888 4.27273H5.34561ZM10.7021 13.1193C10.0601 13.1193 9.51323 12.9446 9.06152 12.5952C8.60982 12.2429 8.26465 11.733 8.02601 11.0653C7.78738 10.3949 7.66806 9.58523 7.66806 8.63636C7.66806 7.69318 7.78738 6.88778 8.02601 6.22017C8.26749 5.54972 8.61408 5.03835 9.06578 4.68608C9.52033 4.33097 10.0658 4.15341 10.7021 4.15341C11.3385 4.15341 11.8825 4.33097 12.3343 4.68608C12.7888 5.03835 13.1354 5.54972 13.374 6.22017C13.6155 6.88778 13.7362 7.69318 13.7362 8.63636C13.7362 9.58523 13.6169 10.3949 13.3783 11.0653C13.1396 11.733 12.7945 12.2429 12.3428 12.5952C11.8911 12.9446 11.3442 13.1193 10.7021 13.1193ZM10.7021 12.1818C11.3385 12.1818 11.8328 11.875 12.1851 11.2614C12.5374 10.6477 12.7135 9.77273 12.7135 8.63636C12.7135 7.88068 12.6325 7.23722 12.4706 6.70597C12.3115 6.17472 12.0814 5.76989 11.7803 5.49148C11.482 5.21307 11.1226 5.07386 10.7021 5.07386C10.0715 5.07386 9.57857 5.38494 9.22346 6.0071C8.86834 6.62642 8.69078 7.50284 8.69078 8.63636C8.69078 9.39205 8.77033 10.0341 8.92942 10.5625C9.08851 11.0909 9.31721 11.4929 9.6155 11.7685C9.91664 12.044 10.2789 12.1818 10.7021 12.1818ZM18.2021 13.1193C17.5601 13.1193 17.0132 12.9446 16.5615 12.5952C16.1098 12.2429 15.7646 11.733 15.526 11.0653C15.2874 10.3949 15.1681 9.58523 15.1681 8.63636C15.1681 7.69318 15.2874 6.88778 15.526 6.22017C15.7675 5.54972 16.1141 5.03835 16.5658 4.68608C17.0203 4.33097 17.5658 4.15341 18.2021 4.15341C18.8385 4.15341 19.3825 4.33097 19.8343 4.68608C20.2888 5.03835 20.6354 5.54972 20.874 6.22017C21.1155 6.88778 21.2362 7.69318 21.2362 8.63636C21.2362 9.58523 21.1169 10.3949 20.8783 11.0653C20.6396 11.733 20.2945 12.2429 19.8428 12.5952C19.3911 12.9446 18.8442 13.1193 18.2021 13.1193ZM18.2021 12.1818C18.8385 12.1818 19.3328 11.875 19.6851 11.2614C20.0374 10.6477 20.2135 9.77273 20.2135 8.63636C20.2135 7.88068 20.1325 7.23722 19.9706 6.70597C19.8115 6.17472 19.5814 5.76989 19.2803 5.49148C18.982 5.21307 18.6226 5.07386 18.2021 5.07386C17.5715 5.07386 17.0786 5.38494 16.7235 6.0071C16.3683 6.62642 16.1908 7.50284 16.1908 8.63636C16.1908 9.39205 16.2703 10.0341 16.4294 10.5625C16.5885 11.0909 16.8172 11.4929 17.1155 11.7685C17.4166 12.044 17.7789 12.1818 18.2021 12.1818ZM27.3044 11.3636V10.9034C27.3044 10.5852 27.3698 10.294 27.5004 10.0298C27.634 9.76278 27.8271 9.54972 28.08 9.39062C28.3357 9.22869 28.6453 9.14773 29.009 9.14773C29.3783 9.14773 29.6879 9.22869 29.9379 9.39062C30.1879 9.54972 30.3769 9.76278 30.5047 10.0298C30.6325 10.294 30.6965 10.5852 30.6965 10.9034V11.3636C30.6965 11.6818 30.6311 11.9744 30.5004 12.2415C30.3726 12.5057 30.1823 12.7187 29.9294 12.8807C29.6794 13.0398 29.3726 13.1193 29.009 13.1193C28.6396 13.1193 28.3286 13.0398 28.0757 12.8807C27.8229 12.7187 27.6311 12.5057 27.5004 12.2415C27.3698 11.9744 27.3044 11.6818 27.3044 11.3636ZM28.1737 10.9034V11.3636C28.1737 11.6278 28.2362 11.8651 28.3612 12.0753C28.4862 12.2827 28.7021 12.3864 29.009 12.3864C29.3073 12.3864 29.5175 12.2827 29.6396 12.0753C29.7646 11.8651 29.8271 11.6278 29.8271 11.3636V10.9034C29.8271 10.6392 29.7675 10.4034 29.6482 10.196C29.5289 9.9858 29.3158 9.88068 29.009 9.88068C28.7107 9.88068 28.4962 9.9858 28.3655 10.196C28.2377 10.4034 28.1737 10.6392 28.1737 10.9034ZM22.9578 6.36932V5.90909C22.9578 5.59091 23.0232 5.29972 23.1539 5.03551C23.2874 4.76847 23.4806 4.5554 23.7334 4.39631C23.9891 4.23437 24.2987 4.15341 24.6624 4.15341C25.0317 4.15341 25.3414 4.23437 25.5914 4.39631C25.8414 4.5554 26.0303 4.76847 26.1581 5.03551C26.286 5.29972 26.3499 5.59091 26.3499 5.90909V6.36932C26.3499 6.6875 26.2845 6.98011 26.1539 7.24716C26.026 7.51136 25.8357 7.72443 25.5828 7.88636C25.3328 8.04545 25.026 8.125 24.6624 8.125C24.2931 8.125 23.982 8.04545 23.7291 7.88636C23.4763 7.72443 23.2845 7.51136 23.1539 7.24716C23.0232 6.98011 22.9578 6.6875 22.9578 6.36932ZM23.8271 5.90909V6.36932C23.8271 6.63352 23.8896 6.87074 24.0146 7.08097C24.1396 7.28835 24.3556 7.39205 24.6624 7.39205C24.9607 7.39205 25.1709 7.28835 25.2931 7.08097C25.4181 6.87074 25.4806 6.63352 25.4806 6.36932V5.90909C25.4806 5.64489 25.4209 5.40909 25.3016 5.2017C25.1823 4.99148 24.9692 4.88636 24.6624 4.88636C24.3641 4.88636 24.1496 4.99148 24.0189 5.2017C23.8911 5.40909 23.8271 5.64489 23.8271 5.90909ZM23.2817 13L29.2817 4.27273H30.2533L24.2533 13H23.2817Z" fill="black" fill-opacity="0.4"/>
<path d="M10.765 60.1193C10.407 60.1136 10.0491 60.0455 9.69114 59.9148C9.33319 59.7841 9.00648 59.5639 8.71103 59.2543C8.41557 58.9418 8.17836 58.5199 7.99938 57.9886C7.8204 57.4545 7.73091 56.7841 7.73091 55.9773C7.73091 55.2045 7.80336 54.5199 7.94824 53.9233C8.09313 53.3239 8.30336 52.8196 8.57892 52.4105C8.85449 51.9986 9.18688 51.6861 9.57608 51.473C9.96813 51.2599 10.4099 51.1534 10.9014 51.1534C11.39 51.1534 11.8247 51.2514 12.2053 51.4474C12.5889 51.6406 12.9014 51.9105 13.1428 52.2571C13.3843 52.6037 13.5406 53.0028 13.6116 53.4545H12.5718C12.4752 53.0625 12.2877 52.7372 12.0093 52.4787C11.7309 52.2202 11.3616 52.0909 10.9014 52.0909C10.2252 52.0909 9.69256 52.3849 9.30336 52.973C8.91699 53.5611 8.72239 54.3864 8.71955 55.4489H8.78773C8.94682 55.2074 9.13574 55.0014 9.35449 54.831C9.57608 54.6577 9.8204 54.5241 10.0874 54.4304C10.3545 54.3366 10.6372 54.2898 10.9355 54.2898C11.4355 54.2898 11.8928 54.4148 12.3076 54.6648C12.7224 54.9119 13.0548 55.2543 13.3048 55.6918C13.5548 56.1264 13.6798 56.625 13.6798 57.1875C13.6798 57.7273 13.559 58.2216 13.3176 58.6705C13.0761 59.1165 12.7366 59.4716 12.2991 59.7358C11.8644 59.9972 11.3531 60.125 10.765 60.1193ZM10.765 59.1818C11.123 59.1818 11.444 59.0923 11.7281 58.9134C12.015 58.7344 12.2409 58.4943 12.4056 58.1932C12.5732 57.892 12.657 57.5568 12.657 57.1875C12.657 56.8267 12.5761 56.4986 12.4142 56.2031C12.2551 55.9048 12.0349 55.6676 11.7536 55.4915C11.4752 55.3153 11.157 55.2273 10.7991 55.2273C10.5292 55.2273 10.2778 55.2812 10.0448 55.3892C9.81188 55.4943 9.60733 55.6392 9.4312 55.8239C9.2579 56.0085 9.12154 56.2202 9.02211 56.4588C8.92267 56.6946 8.87296 56.9432 8.87296 57.2045C8.87296 57.5511 8.95392 57.875 9.11586 58.1761C9.28063 58.4773 9.50506 58.7202 9.78915 58.9048C10.0761 59.0895 10.4014 59.1818 10.765 59.1818ZM18.2021 60.1193C17.5601 60.1193 17.0132 59.9446 16.5615 59.5952C16.1098 59.2429 15.7646 58.733 15.526 58.0653C15.2874 57.3949 15.1681 56.5852 15.1681 55.6364C15.1681 54.6932 15.2874 53.8878 15.526 53.2202C15.7675 52.5497 16.1141 52.0384 16.5658 51.6861C17.0203 51.331 17.5658 51.1534 18.2021 51.1534C18.8385 51.1534 19.3825 51.331 19.8343 51.6861C20.2888 52.0384 20.6354 52.5497 20.874 53.2202C21.1155 53.8878 21.2362 54.6932 21.2362 55.6364C21.2362 56.5852 21.1169 57.3949 20.8783 58.0653C20.6396 58.733 20.2945 59.2429 19.8428 59.5952C19.3911 59.9446 18.8442 60.1193 18.2021 60.1193ZM18.2021 59.1818C18.8385 59.1818 19.3328 58.875 19.6851 58.2614C20.0374 57.6477 20.2135 56.7727 20.2135 55.6364C20.2135 54.8807 20.1325 54.2372 19.9706 53.706C19.8115 53.1747 19.5814 52.7699 19.2803 52.4915C18.982 52.2131 18.6226 52.0739 18.2021 52.0739C17.5715 52.0739 17.0786 52.3849 16.7235 53.0071C16.3683 53.6264 16.1908 54.5028 16.1908 55.6364C16.1908 56.392 16.2703 57.0341 16.4294 57.5625C16.5885 58.0909 16.8172 58.4929 17.1155 58.7685C17.4166 59.044 17.7789 59.1818 18.2021 59.1818ZM27.3044 58.3636V57.9034C27.3044 57.5852 27.3698 57.294 27.5004 57.0298C27.634 56.7628 27.8271 56.5497 28.08 56.3906C28.3357 56.2287 28.6453 56.1477 29.009 56.1477C29.3783 56.1477 29.6879 56.2287 29.9379 56.3906C30.1879 56.5497 30.3769 56.7628 30.5047 57.0298C30.6325 57.294 30.6965 57.5852 30.6965 57.9034V58.3636C30.6965 58.6818 30.6311 58.9744 30.5004 59.2415C30.3726 59.5057 30.1823 59.7187 29.9294 59.8807C29.6794 60.0398 29.3726 60.1193 29.009 60.1193C28.6396 60.1193 28.3286 60.0398 28.0757 59.8807C27.8229 59.7187 27.6311 59.5057 27.5004 59.2415C27.3698 58.9744 27.3044 58.6818 27.3044 58.3636ZM28.1737 57.9034V58.3636C28.1737 58.6278 28.2362 58.8651 28.3612 59.0753C28.4862 59.2827 28.7021 59.3864 29.009 59.3864C29.3073 59.3864 29.5175 59.2827 29.6396 59.0753C29.7646 58.8651 29.8271 58.6278 29.8271 58.3636V57.9034C29.8271 57.6392 29.7675 57.4034 29.6482 57.196C29.5289 56.9858 29.3158 56.8807 29.009 56.8807C28.7107 56.8807 28.4962 56.9858 28.3655 57.196C28.2377 57.4034 28.1737 57.6392 28.1737 57.9034ZM22.9578 53.3693V52.9091C22.9578 52.5909 23.0232 52.2997 23.1539 52.0355C23.2874 51.7685 23.4806 51.5554 23.7334 51.3963C23.9891 51.2344 24.2987 51.1534 24.6624 51.1534C25.0317 51.1534 25.3414 51.2344 25.5914 51.3963C25.8414 51.5554 26.0303 51.7685 26.1581 52.0355C26.286 52.2997 26.3499 52.5909 26.3499 52.9091V53.3693C26.3499 53.6875 26.2845 53.9801 26.1539 54.2472C26.026 54.5114 25.8357 54.7244 25.5828 54.8864C25.3328 55.0455 25.026 55.125 24.6624 55.125C24.2931 55.125 23.982 55.0455 23.7291 54.8864C23.4763 54.7244 23.2845 54.5114 23.1539 54.2472C23.0232 53.9801 22.9578 53.6875 22.9578 53.3693ZM23.8271 52.9091V53.3693C23.8271 53.6335 23.8896 53.8707 24.0146 54.081C24.1396 54.2884 24.3556 54.392 24.6624 54.392C24.9607 54.392 25.1709 54.2884 25.2931 54.081C25.4181 53.8707 25.4806 53.6335 25.4806 53.3693V52.9091C25.4806 52.6449 25.4209 52.4091 25.3016 52.2017C25.1823 51.9915 24.9692 51.8864 24.6624 51.8864C24.3641 51.8864 24.1496 51.9915 24.0189 52.2017C23.8911 52.4091 23.8271 52.6449 23.8271 52.9091ZM23.2817 60L29.2817 51.2727H30.2533L24.2533 60H23.2817Z" fill="black" fill-opacity="0.4"/>
<path d="M7.45179 105.21V104.341L11.287 98.2727H11.9177V99.6193H11.4916L8.59384 104.205V104.273H13.7586V105.21H7.45179ZM11.5597 107V104.946V104.541V98.2727H12.5654V107H11.5597ZM18.2021 107.119C17.5601 107.119 17.0132 106.945 16.5615 106.595C16.1098 106.243 15.7646 105.733 15.526 105.065C15.2874 104.395 15.1681 103.585 15.1681 102.636C15.1681 101.693 15.2874 100.888 15.526 100.22C15.7675 99.5497 16.1141 99.0384 16.5658 98.6861C17.0203 98.331 17.5658 98.1534 18.2021 98.1534C18.8385 98.1534 19.3825 98.331 19.8343 98.6861C20.2888 99.0384 20.6354 99.5497 20.874 100.22C21.1155 100.888 21.2362 101.693 21.2362 102.636C21.2362 103.585 21.1169 104.395 20.8783 105.065C20.6396 105.733 20.2945 106.243 19.8428 106.595C19.3911 106.945 18.8442 107.119 18.2021 107.119ZM18.2021 106.182C18.8385 106.182 19.3328 105.875 19.6851 105.261C20.0374 104.648 20.2135 103.773 20.2135 102.636C20.2135 101.881 20.1325 101.237 19.9706 100.706C19.8115 100.175 19.5814 99.7699 19.2803 99.4915C18.982 99.2131 18.6226 99.0739 18.2021 99.0739C17.5715 99.0739 17.0786 99.3849 16.7235 100.007C16.3683 100.626 16.1908 101.503 16.1908 102.636C16.1908 103.392 16.2703 104.034 16.4294 104.562C16.5885 105.091 16.8172 105.493 17.1155 105.768C17.4166 106.044 17.7789 106.182 18.2021 106.182ZM27.3044 105.364V104.903C27.3044 104.585 27.3698 104.294 27.5004 104.03C27.634 103.763 27.8271 103.55 28.08 103.391C28.3357 103.229 28.6453 103.148 29.009 103.148C29.3783 103.148 29.6879 103.229 29.9379 103.391C30.1879 103.55 30.3769 103.763 30.5047 104.03C30.6325 104.294 30.6965 104.585 30.6965 104.903V105.364C30.6965 105.682 30.6311 105.974 30.5004 106.241C30.3726 106.506 30.1823 106.719 29.9294 106.881C29.6794 107.04 29.3726 107.119 29.009 107.119C28.6396 107.119 28.3286 107.04 28.0757 106.881C27.8229 106.719 27.6311 106.506 27.5004 106.241C27.3698 105.974 27.3044 105.682 27.3044 105.364ZM28.1737 104.903V105.364C28.1737 105.628 28.2362 105.865 28.3612 106.075C28.4862 106.283 28.7021 106.386 29.009 106.386C29.3073 106.386 29.5175 106.283 29.6396 106.075C29.7646 105.865 29.8271 105.628 29.8271 105.364V104.903C29.8271 104.639 29.7675 104.403 29.6482 104.196C29.5289 103.986 29.3158 103.881 29.009 103.881C28.7107 103.881 28.4962 103.986 28.3655 104.196C28.2377 104.403 28.1737 104.639 28.1737 104.903ZM22.9578 100.369V99.9091C22.9578 99.5909 23.0232 99.2997 23.1539 99.0355C23.2874 98.7685 23.4806 98.5554 23.7334 98.3963C23.9891 98.2344 24.2987 98.1534 24.6624 98.1534C25.0317 98.1534 25.3414 98.2344 25.5914 98.3963C25.8414 98.5554 26.0303 98.7685 26.1581 99.0355C26.286 99.2997 26.3499 99.5909 26.3499 99.9091V100.369C26.3499 100.687 26.2845 100.98 26.1539 101.247C26.026 101.511 25.8357 101.724 25.5828 101.886C25.3328 102.045 25.026 102.125 24.6624 102.125C24.2931 102.125 23.982 102.045 23.7291 101.886C23.4763 101.724 23.2845 101.511 23.1539 101.247C23.0232 100.98 22.9578 100.687 22.9578 100.369ZM23.8271 99.9091V100.369C23.8271 100.634 23.8896 100.871 24.0146 101.081C24.1396 101.288 24.3556 101.392 24.6624 101.392C24.9607 101.392 25.1709 101.288 25.2931 101.081C25.4181 100.871 25.4806 100.634 25.4806 100.369V99.9091C25.4806 99.6449 25.4209 99.4091 25.3016 99.2017C25.1823 98.9915 24.9692 98.8864 24.6624 98.8864C24.3641 98.8864 24.1496 98.9915 24.0189 99.2017C23.8911 99.4091 23.8271 99.6449 23.8271 99.9091ZM23.2817 107L29.2817 98.2727H30.2533L24.2533 107H23.2817Z" fill="black" fill-opacity="0.4"/>
<line x1="48.2021" y1="15.5" x2="375.202" y2="15.5" stroke="black" stroke-opacity="0.05" stroke-linecap="round"/>
<line x1="48.2021" y1="63.1667" x2="375.202" y2="63.1667" stroke="black" stroke-opacity="0.05" stroke-linecap="round"/>
<path d="M65.7021 62C65.7021 59.7909 67.493 58 69.7021 58H79.7021C81.9113 58 83.7021 59.7909 83.7021 62V158H65.7021V62Z" fill="#BAEDBD"/>
<path d="M120.202 47C120.202 44.7909 121.993 43 124.202 43H134.202C136.411 43 138.202 44.7909 138.202 47V158H120.202V47Z" fill="#C6C7F8"/>
<path d="M174.702 58C174.702 55.7909 176.493 54 178.702 54H188.702C190.911 54 192.702 55.7909 192.702 58V158H174.702V58Z" fill="#1C1C1C"/>
<path d="M229.202 24C229.202 21.7909 230.993 20 233.202 20H243.202C245.411 20 247.202 21.7909 247.202 24V158H229.202V24Z" fill="#B1E3FF"/>
<path d="M283.702 47C283.702 44.7909 285.493 43 287.702 43H297.702C299.911 43 301.702 44.7909 301.702 47V158H283.702V47Z" fill="#95A4FC"/>
<path d="M338.202 27C338.202 24.7909 339.993 23 342.202 23H352.202C354.411 23 356.202 24.7909 356.202 27V158H338.202V27Z" fill="#A1E3CB"/>
</svg>
