<svg width="597" height="236" viewBox="0 0 597 236" fill="none" xmlns="http://www.w3.org/2000/svg">
<path d="M5.34171 8.27273V17H4.28489V9.38068H4.23375L2.10307 10.7955V9.72159L4.28489 8.27273H5.34171ZM10.6982 17.1193C10.0562 17.1193 9.50932 16.9446 9.05762 16.5952C8.60591 16.2429 8.26074 15.733 8.02211 15.0653C7.78347 14.3949 7.66415 13.5852 7.66415 12.6364C7.66415 11.6932 7.78347 10.8878 8.02211 10.2202C8.26358 9.54972 8.61017 9.03835 9.06188 8.68608C9.51642 8.33097 10.0619 8.15341 10.6982 8.15341C11.3346 8.15341 11.8786 8.33097 12.3303 8.68608C12.7849 9.03835 13.1315 9.54972 13.3701 10.2202C13.6116 10.8878 13.7323 11.6932 13.7323 12.6364C13.7323 13.5852 13.613 14.3949 13.3744 15.0653C13.1357 15.733 12.7906 16.2429 12.3389 16.5952C11.8872 16.9446 11.3403 17.1193 10.6982 17.1193ZM10.6982 16.1818C11.3346 16.1818 11.8289 15.875 12.1812 15.2614C12.5335 14.6477 12.7096 13.7727 12.7096 12.6364C12.7096 11.8807 12.6286 11.2372 12.4667 10.706C12.3076 10.1747 12.0775 9.76989 11.7764 9.49148C11.4781 9.21307 11.1187 9.07386 10.6982 9.07386C10.0676 9.07386 9.57466 9.38494 9.21955 10.0071C8.86444 10.6264 8.68688 11.5028 8.68688 12.6364C8.68688 13.392 8.76642 14.0341 8.92551 14.5625C9.08461 15.0909 9.3133 15.4929 9.61159 15.7685C9.91273 16.044 10.2749 16.1818 10.6982 16.1818ZM16.564 15.8068L16.4958 16.267C16.4475 16.5909 16.3737 16.9375 16.2742 17.3068C16.1776 17.6761 16.0768 18.0241 15.9717 18.3509C15.8666 18.6776 15.7799 18.9375 15.7117 19.1307H14.9447C14.9816 18.9489 15.0299 18.7088 15.0896 18.4105C15.1492 18.1122 15.2089 17.7784 15.2686 17.4091C15.3311 17.0426 15.3822 16.6676 15.422 16.2841L15.4731 15.8068H16.564ZM20.9521 17.1193C20.3101 17.1193 19.7632 16.9446 19.3115 16.5952C18.8598 16.2429 18.5146 15.733 18.276 15.0653C18.0374 14.3949 17.9181 13.5852 17.9181 12.6364C17.9181 11.6932 18.0374 10.8878 18.276 10.2202C18.5175 9.54972 18.8641 9.03835 19.3158 8.68608C19.7703 8.33097 20.3158 8.15341 20.9521 8.15341C21.5885 8.15341 22.1325 8.33097 22.5843 8.68608C23.0388 9.03835 23.3854 9.54972 23.624 10.2202C23.8655 10.8878 23.9862 11.6932 23.9862 12.6364C23.9862 13.5852 23.8669 14.3949 23.6283 15.0653C23.3896 15.733 23.0445 16.2429 22.5928 16.5952C22.1411 16.9446 21.5942 17.1193 20.9521 17.1193ZM20.9521 16.1818C21.5885 16.1818 22.0828 15.875 22.4351 15.2614C22.7874 14.6477 22.9635 13.7727 22.9635 12.6364C22.9635 11.8807 22.8825 11.2372 22.7206 10.706C22.5615 10.1747 22.3314 9.76989 22.0303 9.49148C21.732 9.21307 21.3726 9.07386 20.9521 9.07386C20.3215 9.07386 19.8286 9.38494 19.4735 10.0071C19.1183 10.6264 18.9408 11.5028 18.9408 12.6364C18.9408 13.392 19.0203 14.0341 19.1794 14.5625C19.3385 15.0909 19.5672 15.4929 19.8655 15.7685C20.1666 16.044 20.5289 16.1818 20.9521 16.1818Z" fill="black" fill-opacity="0.4"/>
<path d="M10.6418 54.1534C10.9997 54.1562 11.3577 54.2244 11.7156 54.358C12.0736 54.4915 12.4003 54.7131 12.6958 55.0227C12.9912 55.3295 13.2284 55.7486 13.4074 56.2798C13.5864 56.8111 13.6759 57.4773 13.6759 58.2784C13.6759 59.054 13.602 59.7429 13.4543 60.3452C13.3094 60.9446 13.0992 61.4503 12.8236 61.8622C12.5509 62.2741 12.2185 62.5866 11.8264 62.7997C11.4372 63.0128 10.9969 63.1193 10.5054 63.1193C10.0168 63.1193 9.5807 63.0227 9.19718 62.8295C8.8165 62.6335 8.504 62.3622 8.25968 62.0156C8.0182 61.6662 7.86337 61.2614 7.79519 60.8011H8.83496C8.92871 61.2017 9.11479 61.5327 9.3932 61.794C9.67445 62.0526 10.0452 62.1818 10.5054 62.1818C11.1787 62.1818 11.71 61.8878 12.0992 61.2997C12.4912 60.7116 12.6872 59.8807 12.6872 58.8068H12.6191C12.46 59.0455 12.271 59.2514 12.0523 59.4247C11.8335 59.598 11.5906 59.7315 11.3236 59.8253C11.0566 59.919 10.7725 59.9659 10.4713 59.9659C9.97132 59.9659 9.51252 59.8423 9.0949 59.5952C8.68013 59.3452 8.34775 59.0028 8.09775 58.5682C7.85059 58.1307 7.72701 57.6307 7.72701 57.0682C7.72701 56.5341 7.84632 56.0455 8.08496 55.6023C8.32644 55.1562 8.66451 54.8011 9.09917 54.5369C9.53667 54.2727 10.0509 54.1449 10.6418 54.1534ZM10.6418 55.0909C10.2838 55.0909 9.96138 55.1804 9.67445 55.3594C9.39036 55.5355 9.16451 55.7741 8.99689 56.0753C8.83212 56.3736 8.74973 56.7045 8.74973 57.0682C8.74973 57.4318 8.82928 57.7628 8.98837 58.0611C9.1503 58.3565 9.37047 58.5923 9.64888 58.7685C9.93013 58.9418 10.2497 59.0284 10.6077 59.0284C10.8776 59.0284 11.129 58.9759 11.3619 58.8707C11.5949 58.7628 11.798 58.6165 11.9713 58.4318C12.1475 58.2443 12.2852 58.0327 12.3847 57.7969C12.4841 57.5582 12.5338 57.3097 12.5338 57.0511C12.5338 56.7102 12.4514 56.3906 12.2867 56.0923C12.1247 55.794 11.9003 55.5526 11.6134 55.3679C11.3293 55.1832 11.0054 55.0909 10.6418 55.0909ZM16.564 61.8068L16.4958 62.267C16.4475 62.5909 16.3737 62.9375 16.2742 63.3068C16.1776 63.6761 16.0768 64.0241 15.9717 64.3509C15.8666 64.6776 15.7799 64.9375 15.7117 65.1307H14.9447C14.9816 64.9489 15.0299 64.7088 15.0896 64.4105C15.1492 64.1122 15.2089 63.7784 15.2686 63.4091C15.3311 63.0426 15.3822 62.6676 15.422 62.2841L15.4731 61.8068H16.564ZM20.9521 63.1193C20.3101 63.1193 19.7632 62.9446 19.3115 62.5952C18.8598 62.2429 18.5146 61.733 18.276 61.0653C18.0374 60.3949 17.9181 59.5852 17.9181 58.6364C17.9181 57.6932 18.0374 56.8878 18.276 56.2202C18.5175 55.5497 18.8641 55.0384 19.3158 54.6861C19.7703 54.331 20.3158 54.1534 20.9521 54.1534C21.5885 54.1534 22.1325 54.331 22.5843 54.6861C23.0388 55.0384 23.3854 55.5497 23.624 56.2202C23.8655 56.8878 23.9862 57.6932 23.9862 58.6364C23.9862 59.5852 23.8669 60.3949 23.6283 61.0653C23.3896 61.733 23.0445 62.2429 22.5928 62.5952C22.1411 62.9446 21.5942 63.1193 20.9521 63.1193ZM20.9521 62.1818C21.5885 62.1818 22.0828 61.875 22.4351 61.2614C22.7874 60.6477 22.9635 59.7727 22.9635 58.6364C22.9635 57.8807 22.8825 57.2372 22.7206 56.706C22.5615 56.1747 22.3314 55.7699 22.0303 55.4915C21.732 55.2131 21.3726 55.0739 20.9521 55.0739C20.3215 55.0739 19.8286 55.3849 19.4735 56.0071C19.1183 56.6264 18.9408 57.5028 18.9408 58.6364C18.9408 59.392 19.0203 60.0341 19.1794 60.5625C19.3385 61.0909 19.5672 61.4929 19.8655 61.7685C20.1666 62.044 20.5289 62.1818 20.9521 62.1818Z" fill="black" fill-opacity="0.4"/>
<path d="M10.7174 109.119C10.1322 109.119 9.61515 109.016 9.16628 108.808C8.72026 108.598 8.37225 108.31 8.12225 107.943C7.87225 107.574 7.74867 107.153 7.75151 106.682C7.74867 106.312 7.82111 105.972 7.96884 105.659C8.11657 105.344 8.31827 105.081 8.57395 104.871C8.83248 104.658 9.12083 104.523 9.43901 104.466V104.415C9.0214 104.307 8.68901 104.072 8.44185 103.712C8.19469 103.348 8.07253 102.935 8.07537 102.472C8.07253 102.028 8.18475 101.632 8.41202 101.283C8.63929 100.933 8.95179 100.658 9.34952 100.456C9.75009 100.254 10.2061 100.153 10.7174 100.153C11.2231 100.153 11.6748 100.254 12.0725 100.456C12.4703 100.658 12.7828 100.933 13.01 101.283C13.2401 101.632 13.3566 102.028 13.3595 102.472C13.3566 102.935 13.2302 103.348 12.9802 103.712C12.733 104.072 12.4049 104.307 11.9958 104.415V104.466C12.3112 104.523 12.5953 104.658 12.8481 104.871C13.1009 105.081 13.3026 105.344 13.4532 105.659C13.6038 105.972 13.6805 106.312 13.6833 106.682C13.6805 107.153 13.5526 107.574 13.2998 107.943C13.0498 108.31 12.7018 108.598 12.2558 108.808C11.8126 109.016 11.2998 109.119 10.7174 109.119ZM10.7174 108.182C11.1123 108.182 11.4532 108.118 11.7401 107.99C12.0271 107.862 12.2487 107.682 12.4049 107.449C12.5612 107.216 12.6407 106.943 12.6436 106.631C12.6407 106.301 12.5555 106.01 12.3879 105.757C12.2203 105.504 11.9916 105.305 11.7018 105.161C11.4149 105.016 11.0867 104.943 10.7174 104.943C10.3453 104.943 10.0129 105.016 9.72026 105.161C9.43049 105.305 9.20179 105.504 9.03418 105.757C8.86941 106.01 8.78844 106.301 8.79128 106.631C8.78844 106.943 8.86373 107.216 9.01713 107.449C9.17338 107.682 9.3964 107.862 9.68617 107.99C9.97594 108.118 10.3197 108.182 10.7174 108.182ZM10.7174 104.04C11.0299 104.04 11.3069 103.977 11.5484 103.852C11.7927 103.727 11.9845 103.553 12.1237 103.328C12.2629 103.104 12.3339 102.841 12.3367 102.54C12.3339 102.244 12.2643 101.987 12.1279 101.768C11.9916 101.547 11.8026 101.376 11.5612 101.257C11.3197 101.135 11.0384 101.074 10.7174 101.074C10.3907 101.074 10.1052 101.135 9.86088 101.257C9.61657 101.376 9.42765 101.547 9.29412 101.768C9.1606 101.987 9.09526 102.244 9.0981 102.54C9.09526 102.841 9.16202 103.104 9.29838 103.328C9.43759 103.553 9.62935 103.727 9.87367 103.852C10.118 103.977 10.3992 104.04 10.7174 104.04ZM16.564 107.807L16.4958 108.267C16.4475 108.591 16.3737 108.938 16.2742 109.307C16.1776 109.676 16.0768 110.024 15.9717 110.351C15.8666 110.678 15.7799 110.938 15.7117 111.131H14.9447C14.9816 110.949 15.0299 110.709 15.0896 110.411C15.1492 110.112 15.2089 109.778 15.2686 109.409C15.3311 109.043 15.3822 108.668 15.422 108.284L15.4731 107.807H16.564ZM20.9521 109.119C20.3101 109.119 19.7632 108.945 19.3115 108.595C18.8598 108.243 18.5146 107.733 18.276 107.065C18.0374 106.395 17.9181 105.585 17.9181 104.636C17.9181 103.693 18.0374 102.888 18.276 102.22C18.5175 101.55 18.8641 101.038 19.3158 100.686C19.7703 100.331 20.3158 100.153 20.9521 100.153C21.5885 100.153 22.1325 100.331 22.5843 100.686C23.0388 101.038 23.3854 101.55 23.624 102.22C23.8655 102.888 23.9862 103.693 23.9862 104.636C23.9862 105.585 23.8669 106.395 23.6283 107.065C23.3896 107.733 23.0445 108.243 22.5928 108.595C22.1411 108.945 21.5942 109.119 20.9521 109.119ZM20.9521 108.182C21.5885 108.182 22.0828 107.875 22.4351 107.261C22.7874 106.648 22.9635 105.773 22.9635 104.636C22.9635 103.881 22.8825 103.237 22.7206 102.706C22.5615 102.175 22.3314 101.77 22.0303 101.491C21.732 101.213 21.3726 101.074 20.9521 101.074C20.3215 101.074 19.8286 101.385 19.4735 102.007C19.1183 102.626 18.9408 103.503 18.9408 104.636C18.9408 105.392 19.0203 106.034 19.1794 106.562C19.3385 107.091 19.5672 107.493 19.8655 107.768C20.1666 108.044 20.5289 108.182 20.9521 108.182Z" fill="black" fill-opacity="0.4"/>
<path d="M9.96422 155L13.8676 147.278V147.21H9.36763V146.273H14.9585V147.261L11.0722 155H9.96422ZM16.564 153.807L16.4958 154.267C16.4475 154.591 16.3737 154.938 16.2742 155.307C16.1776 155.676 16.0768 156.024 15.9717 156.351C15.8666 156.678 15.7799 156.938 15.7117 157.131H14.9447C14.9816 156.949 15.0299 156.709 15.0896 156.411C15.1492 156.112 15.2089 155.778 15.2686 155.409C15.3311 155.043 15.3822 154.668 15.422 154.284L15.4731 153.807H16.564ZM20.9521 155.119C20.3101 155.119 19.7632 154.945 19.3115 154.595C18.8598 154.243 18.5146 153.733 18.276 153.065C18.0374 152.395 17.9181 151.585 17.9181 150.636C17.9181 149.693 18.0374 148.888 18.276 148.22C18.5175 147.55 18.8641 147.038 19.3158 146.686C19.7703 146.331 20.3158 146.153 20.9521 146.153C21.5885 146.153 22.1325 146.331 22.5843 146.686C23.0388 147.038 23.3854 147.55 23.624 148.22C23.8655 148.888 23.9862 149.693 23.9862 150.636C23.9862 151.585 23.8669 152.395 23.6283 153.065C23.3896 153.733 23.0445 154.243 22.5928 154.595C22.1411 154.945 21.5942 155.119 20.9521 155.119ZM20.9521 154.182C21.5885 154.182 22.0828 153.875 22.4351 153.261C22.7874 152.648 22.9635 151.773 22.9635 150.636C22.9635 149.881 22.8825 149.237 22.7206 148.706C22.5615 148.175 22.3314 147.77 22.0303 147.491C21.732 147.213 21.3726 147.074 20.9521 147.074C20.3215 147.074 19.8286 147.385 19.4735 148.007C19.1183 148.626 18.9408 149.503 18.9408 150.636C18.9408 151.392 19.0203 152.034 19.1794 152.562C19.3385 153.091 19.5672 153.493 19.8655 153.768C20.1666 154.044 20.5289 154.182 20.9521 154.182Z" fill="black" fill-opacity="0.4"/>
<path d="M10.8666 201.119C10.5086 201.114 10.1507 201.045 9.7927 200.915C9.43475 200.784 9.10804 200.564 8.81259 200.254C8.51713 199.942 8.27992 199.52 8.10094 198.989C7.92196 198.455 7.83248 197.784 7.83248 196.977C7.83248 196.205 7.90492 195.52 8.0498 194.923C8.19469 194.324 8.40492 193.82 8.68049 193.411C8.95605 192.999 9.28844 192.686 9.67765 192.473C10.0697 192.26 10.5115 192.153 11.0029 192.153C11.4916 192.153 11.9262 192.251 12.3069 192.447C12.6904 192.641 13.0029 192.911 13.2444 193.257C13.4859 193.604 13.6421 194.003 13.7132 194.455H12.6734C12.5768 194.062 12.3893 193.737 12.1109 193.479C11.8325 193.22 11.4632 193.091 11.0029 193.091C10.3268 193.091 9.79412 193.385 9.40492 193.973C9.01855 194.561 8.82395 195.386 8.82111 196.449H8.88929C9.04838 196.207 9.2373 196.001 9.45605 195.831C9.67765 195.658 9.92196 195.524 10.189 195.43C10.4561 195.337 10.7387 195.29 11.037 195.29C11.537 195.29 11.9944 195.415 12.4092 195.665C12.824 195.912 13.1563 196.254 13.4063 196.692C13.6563 197.126 13.7813 197.625 13.7813 198.188C13.7813 198.727 13.6606 199.222 13.4191 199.67C13.1776 200.116 12.8382 200.472 12.4007 200.736C11.966 200.997 11.4546 201.125 10.8666 201.119ZM10.8666 200.182C11.2245 200.182 11.5455 200.092 11.8296 199.913C12.1166 199.734 12.3424 199.494 12.5072 199.193C12.6748 198.892 12.7586 198.557 12.7586 198.188C12.7586 197.827 12.6776 197.499 12.5157 197.203C12.3566 196.905 12.1365 196.668 11.8552 196.491C11.5768 196.315 11.2586 196.227 10.9007 196.227C10.6308 196.227 10.3794 196.281 10.1464 196.389C9.91344 196.494 9.7089 196.639 9.53276 196.824C9.35946 197.009 9.2231 197.22 9.12367 197.459C9.02424 197.695 8.97452 197.943 8.97452 198.205C8.97452 198.551 9.05549 198.875 9.21742 199.176C9.38219 199.477 9.60662 199.72 9.89071 199.905C10.1776 200.089 10.5029 200.182 10.8666 200.182ZM16.564 199.807L16.4958 200.267C16.4475 200.591 16.3737 200.938 16.2742 201.307C16.1776 201.676 16.0768 202.024 15.9717 202.351C15.8666 202.678 15.7799 202.938 15.7117 203.131H14.9447C14.9816 202.949 15.0299 202.709 15.0896 202.411C15.1492 202.112 15.2089 201.778 15.2686 201.409C15.3311 201.043 15.3822 200.668 15.422 200.284L15.4731 199.807H16.564ZM20.9521 201.119C20.3101 201.119 19.7632 200.945 19.3115 200.595C18.8598 200.243 18.5146 199.733 18.276 199.065C18.0374 198.395 17.9181 197.585 17.9181 196.636C17.9181 195.693 18.0374 194.888 18.276 194.22C18.5175 193.55 18.8641 193.038 19.3158 192.686C19.7703 192.331 20.3158 192.153 20.9521 192.153C21.5885 192.153 22.1325 192.331 22.5843 192.686C23.0388 193.038 23.3854 193.55 23.624 194.22C23.8655 194.888 23.9862 195.693 23.9862 196.636C23.9862 197.585 23.8669 198.395 23.6283 199.065C23.3896 199.733 23.0445 200.243 22.5928 200.595C22.1411 200.945 21.5942 201.119 20.9521 201.119ZM20.9521 200.182C21.5885 200.182 22.0828 199.875 22.4351 199.261C22.7874 198.648 22.9635 197.773 22.9635 196.636C22.9635 195.881 22.8825 195.237 22.7206 194.706C22.5615 194.175 22.3314 193.77 22.0303 193.491C21.732 193.213 21.3726 193.074 20.9521 193.074C20.3215 193.074 19.8286 193.385 19.4735 194.007C19.1183 194.626 18.9408 195.503 18.9408 196.636C18.9408 197.392 19.0203 198.034 19.1794 198.562C19.3385 199.091 19.5672 199.493 19.8655 199.768C20.1666 200.044 20.5289 200.182 20.9521 200.182Z" fill="black" fill-opacity="0.4"/>
<line x1="41.2021" y1="19.5" x2="596.202" y2="19.5" stroke="black" stroke-opacity="0.05" stroke-linecap="round"/>
<line x1="41.2021" y1="66" x2="596.202" y2="66" stroke="black" stroke-opacity="0.05" stroke-linecap="round"/>
<line x1="41.2021" y1="112.5" x2="596.202" y2="112.5" stroke="black" stroke-opacity="0.05" stroke-linecap="round"/>
<line x1="41.2021" y1="159" x2="596.202" y2="159" stroke="black" stroke-opacity="0.05" stroke-linecap="round"/>
<line x1="41.2021" y1="205.5" x2="596.202" y2="205.5" stroke="black" stroke-opacity="0.2" stroke-linecap="round"/>
<path d="M63.787 224.455C63.7359 224.023 63.5285 223.688 63.1648 223.449C62.8012 223.21 62.3552 223.091 61.8268 223.091C61.4404 223.091 61.1023 223.153 60.8126 223.278C60.5256 223.403 60.3012 223.575 60.1393 223.794C59.9802 224.013 59.9006 224.261 59.9006 224.54C59.9006 224.773 59.956 224.973 60.0668 225.141C60.1805 225.305 60.3253 225.443 60.5015 225.554C60.6776 225.662 60.8623 225.751 61.0555 225.822C61.2486 225.891 61.4262 225.946 61.5881 225.989L62.4745 226.227C62.7018 226.287 62.9546 226.369 63.233 226.474C63.5143 226.58 63.7827 226.723 64.0384 226.905C64.2969 227.084 64.51 227.314 64.6776 227.595C64.8452 227.876 64.929 228.222 64.929 228.631C64.929 229.102 64.8055 229.528 64.5583 229.909C64.314 230.29 63.956 230.592 63.4844 230.817C63.0157 231.041 62.4461 231.153 61.7756 231.153C61.1506 231.153 60.6094 231.053 60.1521 230.851C59.6975 230.649 59.3396 230.368 59.0782 230.007C58.8197 229.646 58.6734 229.227 58.6393 228.75H59.7302C59.7586 229.08 59.8694 229.352 60.0626 229.568C60.2586 229.781 60.5057 229.94 60.804 230.045C61.1052 230.148 61.429 230.199 61.7756 230.199C62.179 230.199 62.5413 230.134 62.8623 230.003C63.1833 229.869 63.4376 229.685 63.6251 229.449C63.8126 229.21 63.9063 228.932 63.9063 228.614C63.9063 228.324 63.8253 228.088 63.6634 227.906C63.5015 227.724 63.2884 227.577 63.0242 227.463C62.76 227.349 62.4745 227.25 62.1677 227.165L61.0938 226.858C60.412 226.662 59.8722 226.382 59.4745 226.018C59.0768 225.655 58.8779 225.179 58.8779 224.591C58.8779 224.102 59.01 223.676 59.2742 223.312C59.5413 222.946 59.8992 222.662 60.3481 222.46C60.7998 222.256 61.304 222.153 61.8609 222.153C62.4234 222.153 62.9234 222.254 63.3609 222.456C63.7984 222.655 64.145 222.928 64.4006 223.274C64.6592 223.621 64.7955 224.014 64.8097 224.455H63.787ZM69.2746 231.136C68.6439 231.136 68.0999 230.997 67.6425 230.719C67.1879 230.438 66.8371 230.045 66.5899 229.543C66.3456 229.037 66.2234 228.449 66.2234 227.778C66.2234 227.108 66.3456 226.517 66.5899 226.006C66.8371 225.491 67.1808 225.091 67.6212 224.804C68.0643 224.514 68.5814 224.369 69.1723 224.369C69.5132 224.369 69.8499 224.426 70.1822 224.54C70.5146 224.653 70.8172 224.838 71.0899 225.094C71.3626 225.347 71.58 225.682 71.7419 226.099C71.9038 226.517 71.9848 227.031 71.9848 227.642V228.068H66.9393V227.199H70.9621C70.9621 226.83 70.8882 226.5 70.7405 226.21C70.5956 225.92 70.3882 225.692 70.1183 225.524C69.8513 225.357 69.5359 225.273 69.1723 225.273C68.7717 225.273 68.4251 225.372 68.1325 225.571C67.8427 225.767 67.6197 226.023 67.4635 226.338C67.3072 226.653 67.2291 226.991 67.2291 227.352V227.932C67.2291 228.426 67.3143 228.845 67.4848 229.189C67.6581 229.53 67.8981 229.79 68.205 229.969C68.5118 230.145 68.8683 230.233 69.2746 230.233C69.5388 230.233 69.7774 230.196 69.9905 230.122C70.2064 230.045 70.3925 229.932 70.5487 229.781C70.705 229.628 70.8257 229.437 70.9109 229.21L71.8825 229.483C71.7802 229.812 71.6084 230.102 71.3669 230.352C71.1254 230.599 70.8271 230.793 70.472 230.932C70.1169 231.068 69.7177 231.136 69.2746 231.136ZM73.5146 233.455V224.455H74.4862V225.494H74.6055C74.6794 225.381 74.7817 225.236 74.9124 225.06C75.0459 224.881 75.2362 224.722 75.4834 224.582C75.7334 224.44 76.0714 224.369 76.4976 224.369C77.0487 224.369 77.5345 224.507 77.955 224.783C78.3754 225.058 78.7035 225.449 78.9393 225.955C79.1751 226.46 79.293 227.057 79.293 227.744C79.293 228.438 79.1751 229.038 78.9393 229.547C78.7035 230.053 78.3768 230.445 77.9592 230.723C77.5416 230.999 77.0601 231.136 76.5146 231.136C76.0942 231.136 75.7575 231.067 75.5047 230.928C75.2518 230.786 75.0572 230.625 74.9209 230.446C74.7845 230.264 74.6794 230.114 74.6055 229.994H74.5203V233.455H73.5146ZM74.5033 227.727C74.5033 228.222 74.5757 228.658 74.7206 229.036C74.8655 229.411 75.0771 229.705 75.3555 229.918C75.6339 230.128 75.9749 230.233 76.3783 230.233C76.7987 230.233 77.1496 230.122 77.4308 229.901C77.7149 229.676 77.928 229.375 78.07 228.997C78.2149 228.616 78.2874 228.193 78.2874 227.727C78.2874 227.267 78.2163 226.852 78.0743 226.483C77.9351 226.111 77.7234 225.817 77.4393 225.601C77.1581 225.382 76.8044 225.273 76.3783 225.273C75.9692 225.273 75.6254 225.376 75.347 225.584C75.0686 225.788 74.8584 226.075 74.7163 226.445C74.5743 226.811 74.5033 227.239 74.5033 227.727ZM83.6737 224.455V225.307H80.2817V224.455H83.6737ZM81.2703 222.886H82.276V229.125C82.276 229.409 82.3172 229.622 82.3996 229.764C82.4848 229.903 82.5927 229.997 82.7234 230.045C82.857 230.091 82.9976 230.114 83.1453 230.114C83.2561 230.114 83.347 230.108 83.418 230.097C83.4891 230.082 83.5459 230.071 83.5885 230.062L83.793 230.966C83.7249 230.991 83.6297 231.017 83.5075 231.043C83.3854 231.071 83.2305 231.085 83.043 231.085C82.7589 231.085 82.4805 231.024 82.2078 230.902C81.9379 230.78 81.7135 230.594 81.5345 230.344C81.3584 230.094 81.2703 229.778 81.2703 229.398V222.886ZM88.2206 225V224.233C88.2206 224 88.2618 223.753 88.3442 223.491C88.4294 223.227 88.5516 222.973 88.7106 222.729C88.8726 222.482 89.0672 222.267 89.2945 222.085L89.8399 222.528C89.6609 222.784 89.5047 223.051 89.3712 223.33C89.2405 223.605 89.1751 223.901 89.1751 224.216V225H88.2206ZM90.9351 231V230.233L93.8158 227.08C94.1538 226.71 94.4322 226.389 94.651 226.116C94.8697 225.841 95.0317 225.582 95.1368 225.341C95.2447 225.097 95.2987 224.841 95.2987 224.574C95.2987 224.267 95.2249 224.001 95.0771 223.777C94.9322 223.553 94.7334 223.379 94.4805 223.257C94.2277 223.135 93.9436 223.074 93.6283 223.074C93.293 223.074 93.0004 223.143 92.7504 223.283C92.5033 223.419 92.3115 223.611 92.1751 223.858C92.0416 224.105 91.9749 224.395 91.9749 224.727H90.9692C90.9692 224.216 91.0871 223.767 91.3229 223.381C91.5587 222.994 91.8797 222.693 92.2859 222.477C92.695 222.261 93.1538 222.153 93.6624 222.153C94.1737 222.153 94.6268 222.261 95.0217 222.477C95.4166 222.693 95.7263 222.984 95.9507 223.351C96.1751 223.717 96.2874 224.125 96.2874 224.574C96.2874 224.895 96.2291 225.209 96.1126 225.516C95.999 225.82 95.8001 226.159 95.516 226.534C95.2348 226.906 94.8442 227.361 94.3442 227.898L92.3839 229.994V230.062H96.4408V231H90.9351ZM101.269 222.273V231H100.212V223.381H100.161L98.0302 224.795V223.722L100.212 222.273H101.269Z" fill="black" fill-opacity="0.4"/>
<path d="M158.164 226.636C158.164 227.557 157.998 228.352 157.665 229.023C157.333 229.693 156.877 230.21 156.298 230.574C155.718 230.938 155.056 231.119 154.312 231.119C153.567 231.119 152.906 230.938 152.326 230.574C151.746 230.21 151.29 229.693 150.958 229.023C150.626 228.352 150.459 227.557 150.459 226.636C150.459 225.716 150.626 224.92 150.958 224.25C151.29 223.58 151.746 223.062 152.326 222.699C152.906 222.335 153.567 222.153 154.312 222.153C155.056 222.153 155.718 222.335 156.298 222.699C156.877 223.062 157.333 223.58 157.665 224.25C157.998 224.92 158.164 225.716 158.164 226.636ZM157.141 226.636C157.141 225.881 157.015 225.243 156.762 224.723C156.512 224.203 156.173 223.81 155.744 223.543C155.317 223.276 154.84 223.142 154.312 223.142C153.783 223.142 153.305 223.276 152.876 223.543C152.45 223.81 152.11 224.203 151.857 224.723C151.607 225.243 151.482 225.881 151.482 226.636C151.482 227.392 151.607 228.03 151.857 228.55C152.11 229.07 152.45 229.463 152.876 229.73C153.305 229.997 153.783 230.131 154.312 230.131C154.84 230.131 155.317 229.997 155.744 229.73C156.173 229.463 156.512 229.07 156.762 228.55C157.015 228.03 157.141 227.392 157.141 226.636ZM162.464 231.136C161.85 231.136 161.322 230.991 160.879 230.702C160.435 230.412 160.094 230.013 159.856 229.504C159.617 228.996 159.498 228.415 159.498 227.761C159.498 227.097 159.62 226.51 159.864 226.001C160.111 225.49 160.455 225.091 160.896 224.804C161.339 224.514 161.856 224.369 162.447 224.369C162.907 224.369 163.322 224.455 163.691 224.625C164.06 224.795 164.363 225.034 164.599 225.341C164.834 225.648 164.981 226.006 165.038 226.415H164.032C163.955 226.116 163.785 225.852 163.521 225.622C163.259 225.389 162.907 225.273 162.464 225.273C162.072 225.273 161.728 225.375 161.433 225.58C161.14 225.781 160.911 226.067 160.746 226.436C160.584 226.803 160.504 227.233 160.504 227.727C160.504 228.233 160.583 228.673 160.742 229.048C160.904 229.423 161.131 229.714 161.424 229.922C161.719 230.129 162.066 230.233 162.464 230.233C162.725 230.233 162.962 230.188 163.175 230.097C163.388 230.006 163.569 229.875 163.717 229.705C163.864 229.534 163.969 229.33 164.032 229.091H165.038C164.981 229.477 164.84 229.825 164.616 230.135C164.394 230.442 164.1 230.686 163.734 230.868C163.37 231.047 162.947 231.136 162.464 231.136ZM169.354 224.455V225.307H165.962V224.455H169.354ZM166.951 222.886H167.957V229.125C167.957 229.409 167.998 229.622 168.08 229.764C168.165 229.903 168.273 229.997 168.404 230.045C168.538 230.091 168.678 230.114 168.826 230.114C168.937 230.114 169.028 230.108 169.099 230.097C169.17 230.082 169.227 230.071 169.269 230.062L169.474 230.966C169.406 230.991 169.31 231.017 169.188 231.043C169.066 231.071 168.911 231.085 168.724 231.085C168.44 231.085 168.161 231.024 167.888 230.902C167.619 230.78 167.394 230.594 167.215 230.344C167.039 230.094 166.951 229.778 166.951 229.398V222.886Z" fill="black" fill-opacity="0.4"/>
<path d="M235.931 222.273V231H234.908L230.152 224.148H230.067V231H229.01V222.273H230.033L234.806 229.142H234.891V222.273H235.931ZM240.568 231.136C239.977 231.136 239.459 230.996 239.013 230.714C238.57 230.433 238.223 230.04 237.973 229.534C237.726 229.028 237.602 228.437 237.602 227.761C237.602 227.08 237.726 226.484 237.973 225.976C238.223 225.467 238.57 225.072 239.013 224.791C239.459 224.51 239.977 224.369 240.568 224.369C241.159 224.369 241.676 224.51 242.119 224.791C242.565 225.072 242.912 225.467 243.159 225.976C243.409 226.484 243.534 227.08 243.534 227.761C243.534 228.437 243.409 229.028 243.159 229.534C242.912 230.04 242.565 230.433 242.119 230.714C241.676 230.996 241.159 231.136 240.568 231.136ZM240.568 230.233C241.017 230.233 241.386 230.118 241.676 229.888C241.966 229.658 242.18 229.355 242.32 228.98C242.459 228.605 242.528 228.199 242.528 227.761C242.528 227.324 242.459 226.916 242.32 226.538C242.18 226.161 241.966 225.855 241.676 225.622C241.386 225.389 241.017 225.273 240.568 225.273C240.119 225.273 239.75 225.389 239.46 225.622C239.171 225.855 238.956 226.161 238.817 226.538C238.678 226.916 238.608 227.324 238.608 227.761C238.608 228.199 238.678 228.605 238.817 228.98C238.956 229.355 239.171 229.658 239.46 229.888C239.75 230.118 240.119 230.233 240.568 230.233ZM250.187 224.455L247.767 231H246.744L244.324 224.455H245.414L247.221 229.67H247.289L249.096 224.455H250.187Z" fill="black" fill-opacity="0.4"/>
<path d="M313.365 231H310.671V222.273H313.484C314.331 222.273 315.055 222.447 315.657 222.797C316.26 223.143 316.721 223.642 317.042 224.293C317.363 224.94 317.524 225.716 317.524 226.619C317.524 227.528 317.362 228.311 317.038 228.967C316.714 229.621 316.243 230.124 315.623 230.476C315.004 230.825 314.251 231 313.365 231ZM311.728 230.062H313.296C314.018 230.062 314.616 229.923 315.091 229.645C315.565 229.366 315.919 228.97 316.152 228.456C316.385 227.942 316.501 227.33 316.501 226.619C316.501 225.915 316.386 225.308 316.156 224.8C315.926 224.288 315.582 223.896 315.125 223.624C314.667 223.348 314.098 223.21 313.416 223.21H311.728V230.062ZM319.16 231V224.455H320.166V231H319.16ZM319.671 223.364C319.475 223.364 319.306 223.297 319.164 223.163C319.025 223.03 318.956 222.869 318.956 222.682C318.956 222.494 319.025 222.334 319.164 222.2C319.306 222.067 319.475 222 319.671 222C319.868 222 320.035 222.067 320.174 222.2C320.316 222.334 320.387 222.494 320.387 222.682C320.387 222.869 320.316 223.03 320.174 223.163C320.035 223.297 319.868 223.364 319.671 223.364ZM324.667 231.136C324.053 231.136 323.525 230.991 323.082 230.702C322.638 230.412 322.298 230.013 322.059 229.504C321.82 228.996 321.701 228.415 321.701 227.761C321.701 227.097 321.823 226.51 322.067 226.001C322.315 225.49 322.658 225.091 323.099 224.804C323.542 224.514 324.059 224.369 324.65 224.369C325.11 224.369 325.525 224.455 325.894 224.625C326.263 224.795 326.566 225.034 326.802 225.341C327.038 225.648 327.184 226.006 327.241 226.415H326.235C326.158 226.116 325.988 225.852 325.724 225.622C325.462 225.389 325.11 225.273 324.667 225.273C324.275 225.273 323.931 225.375 323.636 225.58C323.343 225.781 323.114 226.067 322.95 226.436C322.788 226.803 322.707 227.233 322.707 227.727C322.707 228.233 322.786 228.673 322.945 229.048C323.107 229.423 323.334 229.714 323.627 229.922C323.923 230.129 324.269 230.233 324.667 230.233C324.928 230.233 325.165 230.188 325.379 230.097C325.592 230.006 325.772 229.875 325.92 229.705C326.067 229.534 326.173 229.33 326.235 229.091H327.241C327.184 229.477 327.043 229.825 326.819 230.135C326.597 230.442 326.303 230.686 325.937 230.868C325.573 231.047 325.15 231.136 324.667 231.136Z" fill="black" fill-opacity="0.4"/>
<path d="M378.451 231V222.273H383.718V223.21H379.508V226.159H383.445V227.097H379.508V230.062H383.786V231H378.451ZM386.492 227.062V231H385.486V224.455H386.458V225.477H386.543C386.697 225.145 386.929 224.878 387.242 224.676C387.554 224.472 387.958 224.369 388.452 224.369C388.895 224.369 389.283 224.46 389.616 224.642C389.948 224.821 390.206 225.094 390.391 225.46C390.576 225.824 390.668 226.284 390.668 226.841V231H389.662V226.909C389.662 226.395 389.529 225.994 389.262 225.707C388.995 225.418 388.628 225.273 388.162 225.273C387.841 225.273 387.554 225.342 387.302 225.482C387.052 225.621 386.854 225.824 386.709 226.091C386.564 226.358 386.492 226.682 386.492 227.062ZM395.25 231.136C394.619 231.136 394.075 230.997 393.618 230.719C393.164 230.438 392.813 230.045 392.565 229.543C392.321 229.037 392.199 228.449 392.199 227.778C392.199 227.108 392.321 226.517 392.565 226.006C392.813 225.491 393.156 225.091 393.597 224.804C394.04 224.514 394.557 224.369 395.148 224.369C395.489 224.369 395.825 224.426 396.158 224.54C396.49 224.653 396.793 224.838 397.065 225.094C397.338 225.347 397.556 225.682 397.717 226.099C397.879 226.517 397.96 227.031 397.96 227.642V228.068H392.915V227.199H396.938C396.938 226.83 396.864 226.5 396.716 226.21C396.571 225.92 396.364 225.692 396.094 225.524C395.827 225.357 395.512 225.273 395.148 225.273C394.747 225.273 394.401 225.372 394.108 225.571C393.818 225.767 393.595 226.023 393.439 226.338C393.283 226.653 393.205 226.991 393.205 227.352V227.932C393.205 228.426 393.29 228.845 393.46 229.189C393.634 229.53 393.874 229.79 394.181 229.969C394.487 230.145 394.844 230.233 395.25 230.233C395.514 230.233 395.753 230.196 395.966 230.122C396.182 230.045 396.368 229.932 396.524 229.781C396.681 229.628 396.801 229.437 396.887 229.21L397.858 229.483C397.756 229.812 397.584 230.102 397.342 230.352C397.101 230.599 396.803 230.793 396.448 230.932C396.092 231.068 395.693 231.136 395.25 231.136ZM402.524 225V224.233C402.524 224 402.565 223.753 402.648 223.491C402.733 223.227 402.855 222.973 403.014 222.729C403.176 222.482 403.371 222.267 403.598 222.085L404.144 222.528C403.965 222.784 403.808 223.051 403.675 223.33C403.544 223.605 403.479 223.901 403.479 224.216V225H402.524ZM405.239 231V230.233L408.119 227.08C408.458 226.71 408.736 226.389 408.955 226.116C409.173 225.841 409.335 225.582 409.44 225.341C409.548 225.097 409.602 224.841 409.602 224.574C409.602 224.267 409.529 224.001 409.381 223.777C409.236 223.553 409.037 223.379 408.784 223.257C408.531 223.135 408.247 223.074 407.932 223.074C407.597 223.074 407.304 223.143 407.054 223.283C406.807 223.419 406.615 223.611 406.479 223.858C406.345 224.105 406.279 224.395 406.279 224.727H405.273C405.273 224.216 405.391 223.767 405.627 223.381C405.862 222.994 406.183 222.693 406.59 222.477C406.999 222.261 407.458 222.153 407.966 222.153C408.477 222.153 408.931 222.261 409.325 222.477C409.72 222.693 410.03 222.984 410.254 223.351C410.479 223.717 410.591 224.125 410.591 224.574C410.591 224.895 410.533 225.209 410.416 225.516C410.303 225.82 410.104 226.159 409.82 226.534C409.539 226.906 409.148 227.361 408.648 227.898L406.688 229.994V230.062H410.744V231H405.239ZM412.504 231V230.233L415.385 227.08C415.723 226.71 416.002 226.389 416.22 226.116C416.439 225.841 416.601 225.582 416.706 225.341C416.814 225.097 416.868 224.841 416.868 224.574C416.868 224.267 416.794 224.001 416.646 223.777C416.502 223.553 416.303 223.379 416.05 223.257C415.797 223.135 415.513 223.074 415.198 223.074C414.862 223.074 414.57 223.143 414.32 223.283C414.073 223.419 413.881 223.611 413.744 223.858C413.611 224.105 413.544 224.395 413.544 224.727H412.539C412.539 224.216 412.656 223.767 412.892 223.381C413.128 222.994 413.449 222.693 413.855 222.477C414.264 222.261 414.723 222.153 415.232 222.153C415.743 222.153 416.196 222.261 416.591 222.477C416.986 222.693 417.296 222.984 417.52 223.351C417.744 223.717 417.857 224.125 417.857 224.574C417.857 224.895 417.798 225.209 417.682 225.516C417.568 225.82 417.369 226.159 417.085 226.534C416.804 226.906 416.414 227.361 415.914 227.898L413.953 229.994V230.062H418.01V231H412.504Z" fill="black" fill-opacity="0.4"/>
<path d="M468.116 231V222.273H473.349V223.21H469.173V226.159H472.957V227.097H469.173V231H468.116ZM477.286 231.136C476.656 231.136 476.112 230.997 475.654 230.719C475.2 230.438 474.849 230.045 474.602 229.543C474.357 229.037 474.235 228.449 474.235 227.778C474.235 227.108 474.357 226.517 474.602 226.006C474.849 225.491 475.193 225.091 475.633 224.804C476.076 224.514 476.593 224.369 477.184 224.369C477.525 224.369 477.862 224.426 478.194 224.54C478.526 224.653 478.829 224.838 479.102 225.094C479.374 225.347 479.592 225.682 479.754 226.099C479.916 226.517 479.997 227.031 479.997 227.642V228.068H474.951V227.199H478.974C478.974 226.83 478.9 226.5 478.752 226.21C478.607 225.92 478.4 225.692 478.13 225.524C477.863 225.357 477.548 225.273 477.184 225.273C476.783 225.273 476.437 225.372 476.144 225.571C475.854 225.767 475.631 226.023 475.475 226.338C475.319 226.653 475.241 226.991 475.241 227.352V227.932C475.241 228.426 475.326 228.845 475.497 229.189C475.67 229.53 475.91 229.79 476.217 229.969C476.524 230.145 476.88 230.233 477.286 230.233C477.55 230.233 477.789 230.196 478.002 230.122C478.218 230.045 478.404 229.932 478.56 229.781C478.717 229.628 478.837 229.437 478.923 229.21L479.894 229.483C479.792 229.812 479.62 230.102 479.379 230.352C479.137 230.599 478.839 230.793 478.484 230.932C478.129 231.068 477.729 231.136 477.286 231.136ZM481.663 231V222.273H482.668V225.494H482.754C482.827 225.381 482.93 225.236 483.06 225.06C483.194 224.881 483.384 224.722 483.631 224.582C483.881 224.44 484.22 224.369 484.646 224.369C485.197 224.369 485.683 224.507 486.103 224.783C486.524 225.058 486.852 225.449 487.087 225.955C487.323 226.46 487.441 227.057 487.441 227.744C487.441 228.438 487.323 229.038 487.087 229.547C486.852 230.053 486.525 230.445 486.107 230.723C485.69 230.999 485.208 231.136 484.663 231.136C484.242 231.136 483.906 231.067 483.653 230.928C483.4 230.786 483.205 230.625 483.069 230.446C482.933 230.264 482.827 230.114 482.754 229.994H482.634V231H481.663ZM482.651 227.727C482.651 228.222 482.724 228.658 482.869 229.036C483.014 229.411 483.225 229.705 483.504 229.918C483.782 230.128 484.123 230.233 484.526 230.233C484.947 230.233 485.298 230.122 485.579 229.901C485.863 229.676 486.076 229.375 486.218 228.997C486.363 228.616 486.435 228.193 486.435 227.727C486.435 227.267 486.364 226.852 486.222 226.483C486.083 226.111 485.872 225.817 485.587 225.601C485.306 225.382 484.952 225.273 484.526 225.273C484.117 225.273 483.774 225.376 483.495 225.584C483.217 225.788 483.006 226.075 482.864 226.445C482.722 226.811 482.651 227.239 482.651 227.727Z" fill="black" fill-opacity="0.4"/>
<path d="M547.093 222.273H548.355L551.321 229.517H551.423L554.389 222.273H555.65V231H554.662V224.369H554.576L551.849 231H550.895L548.167 224.369H548.082V231H547.093V222.273ZM559.559 231.153C559.144 231.153 558.768 231.075 558.43 230.919C558.092 230.76 557.823 230.531 557.624 230.233C557.425 229.932 557.326 229.568 557.326 229.142C557.326 228.767 557.4 228.463 557.548 228.23C557.695 227.994 557.893 227.81 558.14 227.676C558.387 227.543 558.66 227.443 558.958 227.378C559.259 227.31 559.562 227.256 559.866 227.216C560.263 227.165 560.586 227.126 560.833 227.101C561.083 227.072 561.265 227.026 561.379 226.96C561.495 226.895 561.553 226.781 561.553 226.619V226.585C561.553 226.165 561.438 225.838 561.208 225.605C560.981 225.372 560.636 225.256 560.173 225.256C559.692 225.256 559.316 225.361 559.043 225.571C558.771 225.781 558.579 226.006 558.468 226.244L557.513 225.903C557.684 225.506 557.911 225.196 558.195 224.974C558.482 224.75 558.795 224.594 559.133 224.506C559.474 224.415 559.809 224.369 560.138 224.369C560.349 224.369 560.59 224.395 560.863 224.446C561.138 224.494 561.404 224.595 561.66 224.749C561.918 224.902 562.133 225.134 562.303 225.443C562.474 225.753 562.559 226.168 562.559 226.688V231H561.553V230.114H561.502C561.434 230.256 561.32 230.408 561.161 230.57C561.002 230.732 560.79 230.869 560.526 230.983C560.262 231.097 559.94 231.153 559.559 231.153ZM559.712 230.25C560.11 230.25 560.445 230.172 560.718 230.016C560.994 229.859 561.201 229.658 561.34 229.411C561.482 229.163 561.553 228.903 561.553 228.631V227.71C561.511 227.761 561.417 227.808 561.272 227.851C561.13 227.891 560.965 227.926 560.778 227.957C560.593 227.986 560.413 228.011 560.236 228.034C560.063 228.054 559.923 228.071 559.815 228.085C559.553 228.119 559.309 228.175 559.082 228.251C558.857 228.325 558.675 228.437 558.536 228.588C558.4 228.736 558.332 228.937 558.332 229.193C558.332 229.543 558.461 229.807 558.719 229.986C558.981 230.162 559.312 230.25 559.712 230.25ZM564.395 231V224.455H565.366V225.443H565.434C565.554 225.119 565.77 224.857 566.082 224.655C566.395 224.453 566.747 224.352 567.139 224.352C567.213 224.352 567.305 224.354 567.416 224.357C567.527 224.359 567.61 224.364 567.667 224.369V225.392C567.633 225.384 567.555 225.371 567.433 225.354C567.314 225.334 567.187 225.324 567.054 225.324C566.735 225.324 566.451 225.391 566.201 225.524C565.954 225.655 565.758 225.837 565.613 226.07C565.471 226.3 565.4 226.562 565.4 226.858V231H564.395Z" fill="black" fill-opacity="0.4"/>
<path d="M65.7021 157C74.1312 150.386 93.3599 137.323 102.843 137.984C114.696 138.811 124.969 148.732 138.402 148.732C151.836 148.732 163.199 123.102 179.494 129.717C214.552 143.947 206.361 121.449 237.97 129.717C263.257 136.331 286.964 128.063 295.656 123.102C305.666 118.693 333.113 110.37 362.825 112.354C399.966 114.835 429.994 112.354 445.798 96.6456C450.955 91.5207 474.246 73.496 502.694 80.1102C531.142 86.7244 561.961 55.3071 566.702 52" stroke="#1C1C1C" stroke-width="3" stroke-linecap="round" stroke-linejoin="round"/>
<path d="M55.7021 145.908C62.4644 137.741 82.7512 122.008 109.8 124.408C143.612 127.408 155.07 142.766 163.415 145.908C192.88 157 188.049 145.908 217.513 116.408C260.093 73.7758 269.196 116.408 292.864 116.408C309.287 116.408 314.828 83.429 362.419 95.4076C384.638 101 404.442 100.408 414.585 87.4076C424.729 74.4076 456.125 64.4076 477.861 70.4076C499.596 76.4076 515.637 70.8549 520.849 67.4076C538.238 55.9076 551.28 64.9076 567.702 74.4076" stroke="#A8C5DA" stroke-width="3" stroke-linecap="round" stroke-linejoin="round"/>
<g filter="url(#filter0_d_538_1539)">
<circle r="4.5" transform="matrix(-1 0 0 1 399.702 97)" fill="#A8C5DA" stroke="white" stroke-width="3"/>
</g>
<rect x="359.702" y="59" width="81" height="28" rx="8" fill="black" fill-opacity="0.8"/>
<path d="M369.068 77V68.2727H374.335V69.2102H370.124V72.1591H374.062V73.0966H370.124V76.0625H374.403V77H369.068ZM377.109 73.0625V77H376.103V70.4545H377.075V71.4773H377.16C377.313 71.1449 377.546 70.8778 377.859 70.6761C378.171 70.4716 378.575 70.3693 379.069 70.3693C379.512 70.3693 379.9 70.4602 380.232 70.642C380.565 70.821 380.823 71.0938 381.008 71.4602C381.193 71.8239 381.285 72.2841 381.285 72.8409V77H380.279V72.9091C380.279 72.3949 380.146 71.9943 379.879 71.7074C379.612 71.4176 379.245 71.2727 378.779 71.2727C378.458 71.2727 378.171 71.3423 377.918 71.4815C377.668 71.6207 377.471 71.8239 377.326 72.0909C377.181 72.358 377.109 72.6818 377.109 73.0625ZM385.867 77.1364C385.236 77.1364 384.692 76.9972 384.235 76.7188C383.78 76.4375 383.429 76.0455 383.182 75.5426C382.938 75.0369 382.816 74.4489 382.816 73.7784C382.816 73.108 382.938 72.517 383.182 72.0057C383.429 71.4915 383.773 71.0909 384.214 70.804C384.657 70.5142 385.174 70.3693 385.765 70.3693C386.106 70.3693 386.442 70.4261 386.775 70.5398C387.107 70.6534 387.41 70.8381 387.682 71.0938C387.955 71.3466 388.172 71.6818 388.334 72.0994C388.496 72.517 388.577 73.0312 388.577 73.642V74.0682H383.532V73.1989H387.554C387.554 72.8295 387.481 72.5 387.333 72.2102C387.188 71.9205 386.981 71.6918 386.711 71.5241C386.444 71.3565 386.128 71.2727 385.765 71.2727C385.364 71.2727 385.017 71.3722 384.725 71.571C384.435 71.767 384.212 72.0227 384.056 72.3381C383.9 72.6534 383.821 72.9915 383.821 73.3523V73.9318C383.821 74.4261 383.907 74.8452 384.077 75.1889C384.25 75.5298 384.491 75.7898 384.797 75.9688C385.104 76.1449 385.461 76.233 385.867 76.233C386.131 76.233 386.37 76.196 386.583 76.1222C386.799 76.0455 386.985 75.9318 387.141 75.7812C387.297 75.6278 387.418 75.4375 387.503 75.2102L388.475 75.483C388.373 75.8125 388.201 76.1023 387.959 76.3523C387.718 76.5994 387.419 76.7926 387.064 76.9318C386.709 77.0682 386.31 77.1364 385.867 77.1364ZM390.107 77V70.4545H391.079V71.4432H391.147C391.266 71.1193 391.482 70.8565 391.794 70.6548C392.107 70.4531 392.459 70.3523 392.851 70.3523C392.925 70.3523 393.017 70.3537 393.128 70.3565C393.239 70.3594 393.323 70.3636 393.38 70.3693V71.392C393.346 71.3835 393.267 71.3707 393.145 71.3537C393.026 71.3338 392.9 71.3239 392.766 71.3239C392.448 71.3239 392.164 71.3906 391.914 71.5241C391.667 71.6548 391.471 71.8366 391.326 72.0696C391.184 72.2997 391.113 72.5625 391.113 72.858V77H390.107ZM397.032 77.1364C396.441 77.1364 395.922 76.9957 395.476 76.7145C395.033 76.4332 394.687 76.0398 394.437 75.5341C394.189 75.0284 394.066 74.4375 394.066 73.7614C394.066 73.0795 394.189 72.4844 394.437 71.9759C394.687 71.4673 395.033 71.0724 395.476 70.7912C395.922 70.5099 396.441 70.3693 397.032 70.3693C397.623 70.3693 398.14 70.5099 398.583 70.7912C399.029 71.0724 399.375 71.4673 399.623 71.9759C399.873 72.4844 399.998 73.0795 399.998 73.7614C399.998 74.4375 399.873 75.0284 399.623 75.5341C399.375 76.0398 399.029 76.4332 398.583 76.7145C398.14 76.9957 397.623 77.1364 397.032 77.1364ZM397.032 76.233C397.481 76.233 397.85 76.1179 398.14 75.8878C398.429 75.6577 398.644 75.3551 398.783 74.9801C398.922 74.6051 398.992 74.1989 398.992 73.7614C398.992 73.3239 398.922 72.9162 398.783 72.5384C398.644 72.1605 398.429 71.8551 398.14 71.6222C397.85 71.3892 397.481 71.2727 397.032 71.2727C396.583 71.2727 396.214 71.3892 395.924 71.6222C395.634 71.8551 395.419 72.1605 395.28 72.5384C395.141 72.9162 395.071 73.3239 395.071 73.7614C395.071 74.1989 395.141 74.6051 395.28 74.9801C395.419 75.3551 395.634 75.6577 395.924 75.8878C396.214 76.1179 396.583 76.233 397.032 76.233ZM402.266 77.0682C402.055 77.0682 401.875 76.9929 401.725 76.8423C401.574 76.6918 401.499 76.5114 401.499 76.3011C401.499 76.0909 401.574 75.9105 401.725 75.7599C401.875 75.6094 402.055 75.5341 402.266 75.5341C402.476 75.5341 402.656 75.6094 402.807 75.7599C402.957 75.9105 403.033 76.0909 403.033 76.3011C403.033 76.4403 402.997 76.5682 402.926 76.6847C402.858 76.8011 402.766 76.8949 402.649 76.9659C402.536 77.0341 402.408 77.0682 402.266 77.0682ZM402.266 72.2102C402.055 72.2102 401.875 72.1349 401.725 71.9844C401.574 71.8338 401.499 71.6534 401.499 71.4432C401.499 71.233 401.574 71.0526 401.725 70.902C401.875 70.7514 402.055 70.6761 402.266 70.6761C402.476 70.6761 402.656 70.7514 402.807 70.902C402.957 71.0526 403.033 71.233 403.033 71.4432C403.033 71.5824 402.997 71.7102 402.926 71.8267C402.858 71.9432 402.766 72.0369 402.649 72.108C402.536 72.1761 402.408 72.2102 402.266 72.2102ZM410.991 77.1193C410.406 77.1193 409.889 77.0156 409.44 76.8082C408.994 76.598 408.646 76.3097 408.396 75.9432C408.146 75.5739 408.022 75.1534 408.025 74.6818C408.022 74.3125 408.095 73.9716 408.242 73.6591C408.39 73.3437 408.592 73.081 408.847 72.8707C409.106 72.6577 409.394 72.5227 409.712 72.4659V72.4148C409.295 72.3068 408.962 72.0724 408.715 71.7116C408.468 71.348 408.346 70.9347 408.349 70.4716C408.346 70.0284 408.458 69.6321 408.685 69.2827C408.913 68.9332 409.225 68.6577 409.623 68.456C410.024 68.2543 410.479 68.1534 410.991 68.1534C411.497 68.1534 411.948 68.2543 412.346 68.456C412.744 68.6577 413.056 68.9332 413.283 69.2827C413.514 69.6321 413.63 70.0284 413.633 70.4716C413.63 70.9347 413.504 71.348 413.254 71.7116C413.006 72.0724 412.678 72.3068 412.269 72.4148V72.4659C412.585 72.5227 412.869 72.6577 413.122 72.8707C413.374 73.081 413.576 73.3437 413.727 73.6591C413.877 73.9716 413.954 74.3125 413.957 74.6818C413.954 75.1534 413.826 75.5739 413.573 75.9432C413.323 76.3097 412.975 76.598 412.529 76.8082C412.086 77.0156 411.573 77.1193 410.991 77.1193ZM410.991 76.1818C411.386 76.1818 411.727 76.1179 412.014 75.9901C412.301 75.8622 412.522 75.6818 412.678 75.4489C412.835 75.2159 412.914 74.9432 412.917 74.6307C412.914 74.3011 412.829 74.0099 412.661 73.7571C412.494 73.5043 412.265 73.3054 411.975 73.1605C411.688 73.0156 411.36 72.9432 410.991 72.9432C410.619 72.9432 410.286 73.0156 409.994 73.1605C409.704 73.3054 409.475 73.5043 409.308 73.7571C409.143 74.0099 409.062 74.3011 409.065 74.6307C409.062 74.9432 409.137 75.2159 409.291 75.4489C409.447 75.6818 409.67 75.8622 409.96 75.9901C410.249 76.1179 410.593 76.1818 410.991 76.1818ZM410.991 72.0398C411.303 72.0398 411.58 71.9773 411.822 71.8523C412.066 71.7273 412.258 71.5526 412.397 71.3281C412.536 71.1037 412.607 70.8409 412.61 70.5398C412.607 70.2443 412.538 69.9872 412.401 69.7685C412.265 69.5469 412.076 69.3764 411.835 69.2571C411.593 69.1349 411.312 69.0739 410.991 69.0739C410.664 69.0739 410.379 69.1349 410.134 69.2571C409.89 69.3764 409.701 69.5469 409.568 69.7685C409.434 69.9872 409.369 70.2443 409.372 70.5398C409.369 70.8409 409.435 71.1037 409.572 71.3281C409.711 71.5526 409.903 71.7273 410.147 71.8523C410.391 71.9773 410.673 72.0398 410.991 72.0398ZM416.837 75.8068L416.769 76.267C416.721 76.5909 416.647 76.9375 416.548 77.3068C416.451 77.6761 416.35 78.0241 416.245 78.3509C416.14 78.6776 416.053 78.9375 415.985 79.1307H415.218C415.255 78.9489 415.303 78.7088 415.363 78.4105C415.423 78.1122 415.482 77.7784 415.542 77.4091C415.604 77.0426 415.656 76.6676 415.695 76.2841L415.747 75.8068H416.837ZM421.304 77.1193C420.742 77.1193 420.241 77.0227 419.8 76.8295C419.363 76.6364 419.015 76.3679 418.756 76.0241C418.5 75.6776 418.361 75.2756 418.339 74.8182H419.412C419.435 75.0994 419.532 75.3423 419.702 75.5469C419.873 75.7486 420.096 75.9048 420.371 76.0156C420.647 76.1264 420.952 76.1818 421.287 76.1818C421.662 76.1818 421.995 76.1165 422.285 75.9858C422.574 75.8551 422.802 75.6733 422.966 75.4403C423.131 75.2074 423.214 74.9375 423.214 74.6307C423.214 74.3097 423.134 74.027 422.975 73.7827C422.816 73.5355 422.583 73.3423 422.276 73.2031C421.969 73.0639 421.594 72.9943 421.151 72.9943H420.452V72.0568H421.151C421.498 72.0568 421.802 71.9943 422.063 71.8693C422.327 71.7443 422.533 71.5682 422.681 71.3409C422.831 71.1136 422.907 70.8466 422.907 70.5398C422.907 70.2443 422.841 69.9872 422.711 69.7685C422.58 69.5497 422.395 69.3793 422.157 69.2571C421.921 69.1349 421.642 69.0739 421.321 69.0739C421.02 69.0739 420.736 69.1293 420.469 69.2401C420.205 69.348 419.989 69.5057 419.821 69.7131C419.654 69.9176 419.563 70.1648 419.549 70.4545H418.526C418.543 69.9972 418.681 69.5966 418.939 69.2528C419.198 68.9062 419.536 68.6364 419.954 68.4432C420.374 68.25 420.836 68.1534 421.339 68.1534C421.878 68.1534 422.341 68.2628 422.728 68.4815C423.114 68.6974 423.411 68.983 423.618 69.3381C423.826 69.6932 423.929 70.0767 423.929 70.4886C423.929 70.9801 423.8 71.3991 423.542 71.7457C423.286 72.0923 422.938 72.3324 422.498 72.4659V72.5341C423.049 72.625 423.479 72.8594 423.789 73.2372C424.098 73.6122 424.253 74.0767 424.253 74.6307C424.253 75.1051 424.124 75.5312 423.866 75.9091C423.61 76.2841 423.26 76.5795 422.817 76.7955C422.374 77.0114 421.87 77.1193 421.304 77.1193ZM428.723 77.1193C428.223 77.1193 427.773 77.0199 427.373 76.821C426.972 76.6222 426.651 76.3494 426.41 76.0028C426.168 75.6562 426.036 75.2614 426.013 74.8182H427.036C427.076 75.2131 427.255 75.5398 427.573 75.7983C427.894 76.054 428.277 76.1818 428.723 76.1818C429.081 76.1818 429.4 76.098 429.678 75.9304C429.959 75.7628 430.179 75.5327 430.339 75.2401C430.5 74.9446 430.581 74.6108 430.581 74.2386C430.581 73.858 430.498 73.5185 430.33 73.2202C430.165 72.919 429.938 72.6818 429.648 72.5085C429.358 72.3352 429.027 72.2472 428.655 72.2443C428.388 72.2415 428.114 72.2827 427.833 72.3679C427.552 72.4503 427.32 72.5568 427.138 72.6875L426.15 72.5682L426.678 68.2727H431.212V69.2102H427.564L427.258 71.7841H427.309C427.488 71.642 427.712 71.5241 427.982 71.4304C428.252 71.3366 428.533 71.2898 428.826 71.2898C429.36 71.2898 429.836 71.4176 430.253 71.6733C430.674 71.9261 431.003 72.2727 431.242 72.7131C431.483 73.1534 431.604 73.6562 431.604 74.2216C431.604 74.7784 431.479 75.2756 431.229 75.7131C430.982 76.1477 430.641 76.4915 430.206 76.7443C429.772 76.9943 429.277 77.1193 428.723 77.1193Z" fill="white"/>
<defs>
<filter id="filter0_d_538_1539" x="391.702" y="91" width="16" height="16" filterUnits="userSpaceOnUse" color-interpolation-filters="sRGB">
<feFlood flood-opacity="0" result="BackgroundImageFix"/>
<feColorMatrix in="SourceAlpha" type="matrix" values="0 0 0 0 0 0 0 0 0 0 0 0 0 0 0 0 0 0 127 0" result="hardAlpha"/>
<feOffset dy="2"/>
<feGaussianBlur stdDeviation="1"/>
<feComposite in2="hardAlpha" operator="out"/>
<feColorMatrix type="matrix" values="0 0 0 0 0 0 0 0 0 0 0 0 0 0 0 0 0 0 0.1 0"/>
<feBlend mode="normal" in2="BackgroundImageFix" result="effect1_dropShadow_538_1539"/>
<feBlend mode="normal" in="SourceGraphic" in2="effect1_dropShadow_538_1539" result="shape"/>
</filter>
</defs>
</svg>
