<svg width="793" height="314" viewBox="0 0 793 314" fill="none" xmlns="http://www.w3.org/2000/svg">
<path d="M4.63956 8.27273V17H3.58274V9.38068H3.53161L1.40092 10.7955V9.72159L3.58274 8.27273H4.63956ZM9.99609 17.1193C9.35405 17.1193 8.80717 16.9446 8.35547 16.5952C7.90376 16.2429 7.55859 15.733 7.31996 15.0653C7.08132 14.3949 6.962 13.5852 6.962 12.6364C6.962 11.6932 7.08132 10.8878 7.31996 10.2202C7.56143 9.54972 7.90803 9.03835 8.35973 8.68608C8.81428 8.33097 9.35973 8.15341 9.99609 8.15341C10.6325 8.15341 11.1765 8.33097 11.6282 8.68608C12.0827 9.03835 12.4293 9.54972 12.668 10.2202C12.9094 10.8878 13.0302 11.6932 13.0302 12.6364C13.0302 13.5852 12.9109 14.3949 12.6722 15.0653C12.4336 15.733 12.0884 16.2429 11.6367 16.5952C11.185 16.9446 10.6381 17.1193 9.99609 17.1193ZM9.99609 16.1818C10.6325 16.1818 11.1268 15.875 11.479 15.2614C11.8313 14.6477 12.0075 13.7727 12.0075 12.6364C12.0075 11.8807 11.9265 11.2372 11.7646 10.706C11.6055 10.1747 11.3754 9.76989 11.0742 9.49148C10.7759 9.21307 10.4165 9.07386 9.99609 9.07386C9.36541 9.07386 8.87251 9.38494 8.5174 10.0071C8.16229 10.6264 7.98473 11.5028 7.98473 12.6364C7.98473 13.392 8.06428 14.0341 8.22337 14.5625C8.38246 15.0909 8.61115 15.4929 8.90945 15.7685C9.21058 16.044 9.5728 16.1818 9.99609 16.1818ZM15.8619 15.8068L15.7937 16.267C15.7454 16.5909 15.6715 16.9375 15.5721 17.3068C15.4755 17.6761 15.3746 18.0241 15.2695 18.3509C15.1644 18.6776 15.0778 18.9375 15.0096 19.1307H14.2425C14.2795 18.9489 14.3278 18.7088 14.3874 18.4105C14.4471 18.1122 14.5067 17.7784 14.5664 17.4091C14.6289 17.0426 14.68 16.6676 14.7198 16.2841L14.771 15.8068H15.8619ZM20.25 17.1193C19.608 17.1193 19.0611 16.9446 18.6094 16.5952C18.1577 16.2429 17.8125 15.733 17.5739 15.0653C17.3352 14.3949 17.2159 13.5852 17.2159 12.6364C17.2159 11.6932 17.3352 10.8878 17.5739 10.2202C17.8153 9.54972 18.1619 9.03835 18.6136 8.68608C19.0682 8.33097 19.6136 8.15341 20.25 8.15341C20.8864 8.15341 21.4304 8.33097 21.8821 8.68608C22.3366 9.03835 22.6832 9.54972 22.9219 10.2202C23.1634 10.8878 23.2841 11.6932 23.2841 12.6364C23.2841 13.5852 23.1648 14.3949 22.9261 15.0653C22.6875 15.733 22.3423 16.2429 21.8906 16.5952C21.4389 16.9446 20.892 17.1193 20.25 17.1193ZM20.25 16.1818C20.8864 16.1818 21.3807 15.875 21.733 15.2614C22.0852 14.6477 22.2614 13.7727 22.2614 12.6364C22.2614 11.8807 22.1804 11.2372 22.0185 10.706C21.8594 10.1747 21.6293 9.76989 21.3281 9.49148C21.0298 9.21307 20.6705 9.07386 20.25 9.07386C19.6193 9.07386 19.1264 9.38494 18.7713 10.0071C18.4162 10.6264 18.2386 11.5028 18.2386 12.6364C18.2386 13.392 18.3182 14.0341 18.4773 14.5625C18.6364 15.0909 18.8651 15.4929 19.1634 15.7685C19.4645 16.044 19.8267 16.1818 20.25 16.1818Z" fill="black" fill-opacity="0.4"/>
<path d="M9.93963 73.6534C10.2976 73.6562 10.6555 73.7244 11.0135 73.858C11.3714 73.9915 11.6982 74.2131 11.9936 74.5227C12.2891 74.8295 12.5263 75.2486 12.7053 75.7798C12.8842 76.3111 12.9737 76.9773 12.9737 77.7784C12.9737 78.554 12.8999 79.2429 12.7521 79.8452C12.6072 80.4446 12.397 80.9503 12.1214 81.3622C11.8487 81.7741 11.5163 82.0866 11.1243 82.2997C10.7351 82.5128 10.2947 82.6193 9.80327 82.6193C9.31463 82.6193 8.87855 82.5227 8.49503 82.3295C8.11435 82.1335 7.80185 81.8622 7.55753 81.5156C7.31605 81.1662 7.16122 80.7614 7.09304 80.3011H8.13281C8.22656 80.7017 8.41264 81.0327 8.69105 81.294C8.9723 81.5526 9.34304 81.6818 9.80327 81.6818C10.4766 81.6818 11.0078 81.3878 11.397 80.7997C11.7891 80.2116 11.9851 79.3807 11.9851 78.3068H11.9169C11.7578 78.5455 11.5689 78.7514 11.3501 78.9247C11.1314 79.098 10.8885 79.2315 10.6214 79.3253C10.3544 79.419 10.0703 79.4659 9.76918 79.4659C9.26918 79.4659 8.81037 79.3423 8.39276 79.0952C7.97798 78.8452 7.6456 78.5028 7.3956 78.0682C7.14844 77.6307 7.02486 77.1307 7.02486 76.5682C7.02486 76.0341 7.14418 75.5455 7.38281 75.1023C7.62429 74.6562 7.96236 74.3011 8.39702 74.0369C8.83452 73.7727 9.34872 73.6449 9.93963 73.6534ZM9.93963 74.5909C9.58168 74.5909 9.25923 74.6804 8.9723 74.8594C8.68821 75.0355 8.46236 75.2741 8.29474 75.5753C8.12997 75.8736 8.04759 76.2045 8.04759 76.5682C8.04759 76.9318 8.12713 77.2628 8.28622 77.5611C8.44815 77.8565 8.66832 78.0923 8.94673 78.2685C9.22798 78.4418 9.54759 78.5284 9.90554 78.5284C10.1754 78.5284 10.4268 78.4759 10.6598 78.3707C10.8928 78.2628 11.0959 78.1165 11.2692 77.9318C11.4453 77.7443 11.5831 77.5327 11.6825 77.2969C11.782 77.0582 11.8317 76.8097 11.8317 76.5511C11.8317 76.2102 11.7493 75.8906 11.5845 75.5923C11.4226 75.294 11.1982 75.0526 10.9112 74.8679C10.6271 74.6832 10.3033 74.5909 9.93963 74.5909ZM15.8619 81.3068L15.7937 81.767C15.7454 82.0909 15.6715 82.4375 15.5721 82.8068C15.4755 83.1761 15.3746 83.5241 15.2695 83.8509C15.1644 84.1776 15.0778 84.4375 15.0096 84.6307H14.2425C14.2795 84.4489 14.3278 84.2088 14.3874 83.9105C14.4471 83.6122 14.5067 83.2784 14.5664 82.9091C14.6289 82.5426 14.68 82.1676 14.7198 81.7841L14.771 81.3068H15.8619ZM20.25 82.6193C19.608 82.6193 19.0611 82.4446 18.6094 82.0952C18.1577 81.7429 17.8125 81.233 17.5739 80.5653C17.3352 79.8949 17.2159 79.0852 17.2159 78.1364C17.2159 77.1932 17.3352 76.3878 17.5739 75.7202C17.8153 75.0497 18.1619 74.5384 18.6136 74.1861C19.0682 73.831 19.6136 73.6534 20.25 73.6534C20.8864 73.6534 21.4304 73.831 21.8821 74.1861C22.3366 74.5384 22.6832 75.0497 22.9219 75.7202C23.1634 76.3878 23.2841 77.1932 23.2841 78.1364C23.2841 79.0852 23.1648 79.8949 22.9261 80.5653C22.6875 81.233 22.3423 81.7429 21.8906 82.0952C21.4389 82.4446 20.892 82.6193 20.25 82.6193ZM20.25 81.6818C20.8864 81.6818 21.3807 81.375 21.733 80.7614C22.0852 80.1477 22.2614 79.2727 22.2614 78.1364C22.2614 77.3807 22.1804 76.7372 22.0185 76.206C21.8594 75.6747 21.6293 75.2699 21.3281 74.9915C21.0298 74.7131 20.6705 74.5739 20.25 74.5739C19.6193 74.5739 19.1264 74.8849 18.7713 75.5071C18.4162 76.1264 18.2386 77.0028 18.2386 78.1364C18.2386 78.892 18.3182 79.5341 18.4773 80.0625C18.6364 80.5909 18.8651 80.9929 19.1634 81.2685C19.4645 81.544 19.8267 81.6818 20.25 81.6818Z" fill="black" fill-opacity="0.4"/>
<path d="M10.0153 148.119C9.43004 148.119 8.913 148.016 8.46413 147.808C8.01811 147.598 7.6701 147.31 7.4201 146.943C7.1701 146.574 7.04652 146.153 7.04936 145.682C7.04652 145.312 7.11896 144.972 7.26669 144.659C7.41442 144.344 7.61612 144.081 7.8718 143.871C8.13033 143.658 8.41868 143.523 8.73686 143.466V143.415C8.31925 143.307 7.98686 143.072 7.7397 142.712C7.49254 142.348 7.37038 141.935 7.37322 141.472C7.37038 141.028 7.4826 140.632 7.70987 140.283C7.93714 139.933 8.24964 139.658 8.64737 139.456C9.04794 139.254 9.50391 139.153 10.0153 139.153C10.521 139.153 10.9727 139.254 11.3704 139.456C11.7681 139.658 12.0806 139.933 12.3079 140.283C12.538 140.632 12.6545 141.028 12.6573 141.472C12.6545 141.935 12.5281 142.348 12.2781 142.712C12.0309 143.072 11.7028 143.307 11.2937 143.415V143.466C11.609 143.523 11.8931 143.658 12.146 143.871C12.3988 144.081 12.6005 144.344 12.7511 144.659C12.9016 144.972 12.9783 145.312 12.9812 145.682C12.9783 146.153 12.8505 146.574 12.5977 146.943C12.3477 147.31 11.9996 147.598 11.5536 147.808C11.1104 148.016 10.5977 148.119 10.0153 148.119ZM10.0153 147.182C10.4102 147.182 10.7511 147.118 11.038 146.99C11.3249 146.862 11.5465 146.682 11.7028 146.449C11.859 146.216 11.9386 145.943 11.9414 145.631C11.9386 145.301 11.8533 145.01 11.6857 144.757C11.5181 144.504 11.2894 144.305 10.9996 144.161C10.7127 144.016 10.3846 143.943 10.0153 143.943C9.64311 143.943 9.31072 144.016 9.01811 144.161C8.72834 144.305 8.49964 144.504 8.33203 144.757C8.16726 145.01 8.08629 145.301 8.08913 145.631C8.08629 145.943 8.16158 146.216 8.31499 146.449C8.47124 146.682 8.69425 146.862 8.98402 146.99C9.27379 147.118 9.61754 147.182 10.0153 147.182ZM10.0153 143.04C10.3278 143.04 10.6048 142.977 10.8462 142.852C11.0906 142.727 11.2823 142.553 11.4215 142.328C11.5607 142.104 11.6317 141.841 11.6346 141.54C11.6317 141.244 11.5621 140.987 11.4258 140.768C11.2894 140.547 11.1005 140.376 10.859 140.257C10.6175 140.135 10.3363 140.074 10.0153 140.074C9.68857 140.074 9.40305 140.135 9.15874 140.257C8.91442 140.376 8.7255 140.547 8.59197 140.768C8.45845 140.987 8.39311 141.244 8.39595 141.54C8.39311 141.841 8.45987 142.104 8.59624 142.328C8.73544 142.553 8.9272 142.727 9.17152 142.852C9.41584 142.977 9.69709 143.04 10.0153 143.04ZM15.8619 146.807L15.7937 147.267C15.7454 147.591 15.6715 147.938 15.5721 148.307C15.4755 148.676 15.3746 149.024 15.2695 149.351C15.1644 149.678 15.0778 149.938 15.0096 150.131H14.2425C14.2795 149.949 14.3278 149.709 14.3874 149.411C14.4471 149.112 14.5067 148.778 14.5664 148.409C14.6289 148.043 14.68 147.668 14.7198 147.284L14.771 146.807H15.8619ZM20.25 148.119C19.608 148.119 19.0611 147.945 18.6094 147.595C18.1577 147.243 17.8125 146.733 17.5739 146.065C17.3352 145.395 17.2159 144.585 17.2159 143.636C17.2159 142.693 17.3352 141.888 17.5739 141.22C17.8153 140.55 18.1619 140.038 18.6136 139.686C19.0682 139.331 19.6136 139.153 20.25 139.153C20.8864 139.153 21.4304 139.331 21.8821 139.686C22.3366 140.038 22.6832 140.55 22.9219 141.22C23.1634 141.888 23.2841 142.693 23.2841 143.636C23.2841 144.585 23.1648 145.395 22.9261 146.065C22.6875 146.733 22.3423 147.243 21.8906 147.595C21.4389 147.945 20.892 148.119 20.25 148.119ZM20.25 147.182C20.8864 147.182 21.3807 146.875 21.733 146.261C22.0852 145.648 22.2614 144.773 22.2614 143.636C22.2614 142.881 22.1804 142.237 22.0185 141.706C21.8594 141.175 21.6293 140.77 21.3281 140.491C21.0298 140.213 20.6705 140.074 20.25 140.074C19.6193 140.074 19.1264 140.385 18.7713 141.007C18.4162 141.626 18.2386 142.503 18.2386 143.636C18.2386 144.392 18.3182 145.034 18.4773 145.562C18.6364 146.091 18.8651 146.493 19.1634 146.768C19.4645 147.044 19.8267 147.182 20.25 147.182Z" fill="black" fill-opacity="0.4"/>
<path d="M9.26207 213.5L13.1655 205.778V205.71H8.66548V204.773H14.2564V205.761L10.37 213.5H9.26207ZM15.8619 212.307L15.7937 212.767C15.7454 213.091 15.6715 213.438 15.5721 213.807C15.4755 214.176 15.3746 214.524 15.2695 214.851C15.1644 215.178 15.0778 215.438 15.0096 215.631H14.2425C14.2795 215.449 14.3278 215.209 14.3874 214.911C14.4471 214.612 14.5067 214.278 14.5664 213.909C14.6289 213.543 14.68 213.168 14.7198 212.784L14.771 212.307H15.8619ZM20.25 213.619C19.608 213.619 19.0611 213.445 18.6094 213.095C18.1577 212.743 17.8125 212.233 17.5739 211.565C17.3352 210.895 17.2159 210.085 17.2159 209.136C17.2159 208.193 17.3352 207.388 17.5739 206.72C17.8153 206.05 18.1619 205.538 18.6136 205.186C19.0682 204.831 19.6136 204.653 20.25 204.653C20.8864 204.653 21.4304 204.831 21.8821 205.186C22.3366 205.538 22.6832 206.05 22.9219 206.72C23.1634 207.388 23.2841 208.193 23.2841 209.136C23.2841 210.085 23.1648 210.895 22.9261 211.565C22.6875 212.233 22.3423 212.743 21.8906 213.095C21.4389 213.445 20.892 213.619 20.25 213.619ZM20.25 212.682C20.8864 212.682 21.3807 212.375 21.733 211.761C22.0852 211.148 22.2614 210.273 22.2614 209.136C22.2614 208.381 22.1804 207.737 22.0185 207.206C21.8594 206.675 21.6293 206.27 21.3281 205.991C21.0298 205.713 20.6705 205.574 20.25 205.574C19.6193 205.574 19.1264 205.885 18.7713 206.507C18.4162 207.126 18.2386 208.003 18.2386 209.136C18.2386 209.892 18.3182 210.534 18.4773 211.062C18.6364 211.591 18.8651 211.993 19.1634 212.268C19.4645 212.544 19.8267 212.682 20.25 212.682Z" fill="black" fill-opacity="0.4"/>
<path d="M10.1644 279.119C9.80646 279.114 9.44851 279.045 9.09055 278.915C8.7326 278.784 8.40589 278.564 8.11044 278.254C7.81499 277.942 7.57777 277.52 7.39879 276.989C7.21982 276.455 7.13033 275.784 7.13033 274.977C7.13033 274.205 7.20277 273.52 7.34766 272.923C7.49254 272.324 7.70277 271.82 7.97834 271.411C8.25391 270.999 8.58629 270.686 8.9755 270.473C9.36754 270.26 9.8093 270.153 10.3008 270.153C10.7894 270.153 11.2241 270.251 11.6048 270.447C11.9883 270.641 12.3008 270.911 12.5423 271.257C12.7837 271.604 12.94 272.003 13.011 272.455H11.9712C11.8746 272.062 11.6871 271.737 11.4087 271.479C11.1303 271.22 10.761 271.091 10.3008 271.091C9.62464 271.091 9.09197 271.385 8.70277 271.973C8.31641 272.561 8.1218 273.386 8.11896 274.449H8.18714C8.34624 274.207 8.53516 274.001 8.75391 273.831C8.9755 273.658 9.21982 273.524 9.48686 273.43C9.75391 273.337 10.0366 273.29 10.3349 273.29C10.8349 273.29 11.2923 273.415 11.707 273.665C12.1218 273.912 12.4542 274.254 12.7042 274.692C12.9542 275.126 13.0792 275.625 13.0792 276.188C13.0792 276.727 12.9585 277.222 12.717 277.67C12.4755 278.116 12.136 278.472 11.6985 278.736C11.2638 278.997 10.7525 279.125 10.1644 279.119ZM10.1644 278.182C10.5224 278.182 10.8434 278.092 11.1275 277.913C11.4144 277.734 11.6403 277.494 11.805 277.193C11.9727 276.892 12.0565 276.557 12.0565 276.188C12.0565 275.827 11.9755 275.499 11.8136 275.203C11.6545 274.905 11.4343 274.668 11.1531 274.491C10.8746 274.315 10.5565 274.227 10.1985 274.227C9.92862 274.227 9.6772 274.281 9.44425 274.389C9.21129 274.494 9.00675 274.639 8.83061 274.824C8.65732 275.009 8.52095 275.22 8.42152 275.459C8.32209 275.695 8.27237 275.943 8.27237 276.205C8.27237 276.551 8.35334 276.875 8.51527 277.176C8.68004 277.477 8.90447 277.72 9.18857 277.905C9.4755 278.089 9.80078 278.182 10.1644 278.182ZM15.8619 277.807L15.7937 278.267C15.7454 278.591 15.6715 278.938 15.5721 279.307C15.4755 279.676 15.3746 280.024 15.2695 280.351C15.1644 280.678 15.0778 280.938 15.0096 281.131H14.2425C14.2795 280.949 14.3278 280.709 14.3874 280.411C14.4471 280.112 14.5067 279.778 14.5664 279.409C14.6289 279.043 14.68 278.668 14.7198 278.284L14.771 277.807H15.8619ZM20.25 279.119C19.608 279.119 19.0611 278.945 18.6094 278.595C18.1577 278.243 17.8125 277.733 17.5739 277.065C17.3352 276.395 17.2159 275.585 17.2159 274.636C17.2159 273.693 17.3352 272.888 17.5739 272.22C17.8153 271.55 18.1619 271.038 18.6136 270.686C19.0682 270.331 19.6136 270.153 20.25 270.153C20.8864 270.153 21.4304 270.331 21.8821 270.686C22.3366 271.038 22.6832 271.55 22.9219 272.22C23.1634 272.888 23.2841 273.693 23.2841 274.636C23.2841 275.585 23.1648 276.395 22.9261 277.065C22.6875 277.733 22.3423 278.243 21.8906 278.595C21.4389 278.945 20.892 279.119 20.25 279.119ZM20.25 278.182C20.8864 278.182 21.3807 277.875 21.733 277.261C22.0852 276.648 22.2614 275.773 22.2614 274.636C22.2614 273.881 22.1804 273.237 22.0185 272.706C21.8594 272.175 21.6293 271.77 21.3281 271.491C21.0298 271.213 20.6705 271.074 20.25 271.074C19.6193 271.074 19.1264 271.385 18.7713 272.007C18.4162 272.626 18.2386 273.503 18.2386 274.636C18.2386 275.392 18.3182 276.034 18.4773 276.562C18.6364 277.091 18.8651 277.493 19.1634 277.768C19.4645 278.044 19.8267 278.182 20.25 278.182Z" fill="black" fill-opacity="0.4"/>
<line x1="40.5" y1="19.5" x2="792.5" y2="19.5" stroke="black" stroke-opacity="0.05" stroke-linecap="round"/>
<line x1="40.5" y1="85.5" x2="792.5" y2="85.5" stroke="black" stroke-opacity="0.05" stroke-linecap="round"/>
<line x1="40.5" y1="151.5" x2="792.5" y2="151.5" stroke="black" stroke-opacity="0.05" stroke-linecap="round"/>
<line x1="40.5" y1="217.5" x2="792.5" y2="217.5" stroke="black" stroke-opacity="0.05" stroke-linecap="round"/>
<line x1="40.5" y1="283.5" x2="792.5" y2="283.5" stroke="black" stroke-opacity="0.2" stroke-linecap="round"/>
<path d="M77.1563 302.455C77.1051 302.023 76.8978 301.688 76.5341 301.449C76.1705 301.21 75.7245 301.091 75.196 301.091C74.8097 301.091 74.4716 301.153 74.1818 301.278C73.8949 301.403 73.6705 301.575 73.5085 301.794C73.3495 302.013 73.2699 302.261 73.2699 302.54C73.2699 302.773 73.3253 302.973 73.4361 303.141C73.5497 303.305 73.6946 303.443 73.8708 303.554C74.0469 303.662 74.2316 303.751 74.4247 303.822C74.6179 303.891 74.7955 303.946 74.9574 303.989L75.8438 304.227C76.071 304.287 76.3239 304.369 76.6023 304.474C76.8835 304.58 77.152 304.723 77.4077 304.905C77.6662 305.084 77.8793 305.314 78.0469 305.595C78.2145 305.876 78.2983 306.222 78.2983 306.631C78.2983 307.102 78.1747 307.528 77.9276 307.909C77.6833 308.29 77.3253 308.592 76.8537 308.817C76.385 309.041 75.8154 309.153 75.1449 309.153C74.5199 309.153 73.9787 309.053 73.5213 308.851C73.0668 308.649 72.7088 308.368 72.4475 308.007C72.1889 307.646 72.0426 307.227 72.0085 306.75H73.0995C73.1279 307.08 73.2387 307.352 73.4318 307.568C73.6279 307.781 73.875 307.94 74.1733 308.045C74.4745 308.148 74.7983 308.199 75.1449 308.199C75.5483 308.199 75.9105 308.134 76.2316 308.003C76.5526 307.869 76.8068 307.685 76.9943 307.449C77.1818 307.21 77.2756 306.932 77.2756 306.614C77.2756 306.324 77.1946 306.088 77.0327 305.906C76.8708 305.724 76.6577 305.577 76.3935 305.463C76.1293 305.349 75.8438 305.25 75.537 305.165L74.4631 304.858C73.7813 304.662 73.2415 304.382 72.8438 304.018C72.446 303.655 72.2472 303.179 72.2472 302.591C72.2472 302.102 72.3793 301.676 72.6435 301.312C72.9105 300.946 73.2685 300.662 73.7174 300.46C74.1691 300.256 74.6733 300.153 75.2301 300.153C75.7926 300.153 76.2926 300.254 76.7301 300.456C77.1676 300.655 77.5142 300.928 77.7699 301.274C78.0284 301.621 78.1648 302.014 78.179 302.455H77.1563ZM82.6438 309.136C82.0132 309.136 81.4691 308.997 81.0117 308.719C80.5572 308.438 80.2063 308.045 79.9592 307.543C79.7149 307.037 79.5927 306.449 79.5927 305.778C79.5927 305.108 79.7149 304.517 79.9592 304.006C80.2063 303.491 80.5501 303.091 80.9904 302.804C81.4336 302.514 81.9507 302.369 82.5416 302.369C82.8825 302.369 83.2191 302.426 83.5515 302.54C83.8839 302.653 84.1865 302.838 84.4592 303.094C84.7319 303.347 84.9492 303.682 85.1112 304.099C85.2731 304.517 85.3541 305.031 85.3541 305.642V306.068H80.3086V305.199H84.3313C84.3313 304.83 84.2575 304.5 84.1098 304.21C83.9649 303.92 83.7575 303.692 83.4876 303.524C83.2206 303.357 82.9052 303.273 82.5416 303.273C82.141 303.273 81.7944 303.372 81.5018 303.571C81.212 303.767 80.989 304.023 80.8328 304.338C80.6765 304.653 80.5984 304.991 80.5984 305.352V305.932C80.5984 306.426 80.6836 306.845 80.8541 307.189C81.0274 307.53 81.2674 307.79 81.5742 307.969C81.8811 308.145 82.2376 308.233 82.6438 308.233C82.9081 308.233 83.1467 308.196 83.3598 308.122C83.5757 308.045 83.7617 307.932 83.918 307.781C84.0742 307.628 84.195 307.437 84.2802 307.21L85.2518 307.483C85.1495 307.812 84.9777 308.102 84.7362 308.352C84.4947 308.599 84.1964 308.793 83.8413 308.932C83.4862 309.068 83.087 309.136 82.6438 309.136ZM86.8839 311.455V302.455H87.8555V303.494H87.9748C88.0487 303.381 88.1509 303.236 88.2816 303.06C88.4152 302.881 88.6055 302.722 88.8527 302.582C89.1027 302.44 89.4407 302.369 89.8669 302.369C90.418 302.369 90.9038 302.507 91.3242 302.783C91.7447 303.058 92.0728 303.449 92.3086 303.955C92.5444 304.46 92.6623 305.057 92.6623 305.744C92.6623 306.438 92.5444 307.038 92.3086 307.547C92.0728 308.053 91.7461 308.445 91.3285 308.723C90.9109 308.999 90.4294 309.136 89.8839 309.136C89.4634 309.136 89.1268 309.067 88.874 308.928C88.6211 308.786 88.4265 308.625 88.2902 308.446C88.1538 308.264 88.0487 308.114 87.9748 307.994H87.8896V311.455H86.8839ZM87.8725 305.727C87.8725 306.222 87.945 306.658 88.0899 307.036C88.2348 307.411 88.4464 307.705 88.7248 307.918C89.0032 308.128 89.3441 308.233 89.7475 308.233C90.168 308.233 90.5188 308.122 90.8001 307.901C91.0842 307.676 91.2973 307.375 91.4393 306.997C91.5842 306.616 91.6566 306.193 91.6566 305.727C91.6566 305.267 91.5856 304.852 91.4436 304.483C91.3044 304.111 91.0927 303.817 90.8086 303.601C90.5274 303.382 90.1737 303.273 89.7475 303.273C89.3384 303.273 88.9947 303.376 88.7163 303.584C88.4379 303.788 88.2277 304.075 88.0856 304.445C87.9436 304.811 87.8725 305.239 87.8725 305.727ZM97.043 302.455V303.307H93.6509V302.455H97.043ZM94.6396 300.886H95.6453V307.125C95.6453 307.409 95.6865 307.622 95.7688 307.764C95.8541 307.903 95.962 307.997 96.0927 308.045C96.2262 308.091 96.3669 308.114 96.5146 308.114C96.6254 308.114 96.7163 308.108 96.7873 308.097C96.8583 308.082 96.9152 308.071 96.9578 308.062L97.1623 308.966C97.0941 308.991 96.999 309.017 96.8768 309.043C96.7546 309.071 96.5998 309.085 96.4123 309.085C96.1282 309.085 95.8498 309.024 95.5771 308.902C95.3072 308.78 95.0828 308.594 94.9038 308.344C94.7277 308.094 94.6396 307.778 94.6396 307.398V300.886ZM101.59 303V302.233C101.59 302 101.631 301.753 101.713 301.491C101.799 301.227 101.921 300.973 102.08 300.729C102.242 300.482 102.436 300.267 102.664 300.085L103.209 300.528C103.03 300.784 102.874 301.051 102.74 301.33C102.61 301.605 102.544 301.901 102.544 302.216V303H101.59ZM104.304 309V308.233L107.185 305.08C107.523 304.71 107.802 304.389 108.02 304.116C108.239 303.841 108.401 303.582 108.506 303.341C108.614 303.097 108.668 302.841 108.668 302.574C108.668 302.267 108.594 302.001 108.446 301.777C108.302 301.553 108.103 301.379 107.85 301.257C107.597 301.135 107.313 301.074 106.998 301.074C106.662 301.074 106.37 301.143 106.12 301.283C105.873 301.419 105.681 301.611 105.544 301.858C105.411 302.105 105.344 302.395 105.344 302.727H104.338C104.338 302.216 104.456 301.767 104.692 301.381C104.928 300.994 105.249 300.693 105.655 300.477C106.064 300.261 106.523 300.153 107.032 300.153C107.543 300.153 107.996 300.261 108.391 300.477C108.786 300.693 109.096 300.984 109.32 301.351C109.544 301.717 109.657 302.125 109.657 302.574C109.657 302.895 109.598 303.209 109.482 303.516C109.368 303.82 109.169 304.159 108.885 304.534C108.604 304.906 108.213 305.361 107.713 305.898L105.753 307.994V308.062H109.81V309H104.304ZM114.638 300.273V309H113.581V301.381H113.53L111.4 302.795V301.722L113.581 300.273H114.638Z" fill="black" fill-opacity="0.4"/>
<path d="M199.676 304.636C199.676 305.557 199.51 306.352 199.177 307.023C198.845 307.693 198.389 308.21 197.809 308.574C197.23 308.938 196.568 309.119 195.824 309.119C195.079 309.119 194.417 308.938 193.838 308.574C193.258 308.21 192.802 307.693 192.47 307.023C192.138 306.352 191.971 305.557 191.971 304.636C191.971 303.716 192.138 302.92 192.47 302.25C192.802 301.58 193.258 301.062 193.838 300.699C194.417 300.335 195.079 300.153 195.824 300.153C196.568 300.153 197.23 300.335 197.809 300.699C198.389 301.062 198.845 301.58 199.177 302.25C199.51 302.92 199.676 303.716 199.676 304.636ZM198.653 304.636C198.653 303.881 198.527 303.243 198.274 302.723C198.024 302.203 197.684 301.81 197.255 301.543C196.829 301.276 196.352 301.142 195.824 301.142C195.295 301.142 194.817 301.276 194.388 301.543C193.961 301.81 193.622 302.203 193.369 302.723C193.119 303.243 192.994 303.881 192.994 304.636C192.994 305.392 193.119 306.03 193.369 306.55C193.622 307.07 193.961 307.463 194.388 307.73C194.817 307.997 195.295 308.131 195.824 308.131C196.352 308.131 196.829 307.997 197.255 307.73C197.684 307.463 198.024 307.07 198.274 306.55C198.527 306.03 198.653 305.392 198.653 304.636ZM203.976 309.136C203.362 309.136 202.834 308.991 202.39 308.702C201.947 308.412 201.606 308.013 201.368 307.504C201.129 306.996 201.01 306.415 201.01 305.761C201.01 305.097 201.132 304.51 201.376 304.001C201.623 303.49 201.967 303.091 202.407 302.804C202.851 302.514 203.368 302.369 203.959 302.369C204.419 302.369 204.834 302.455 205.203 302.625C205.572 302.795 205.875 303.034 206.111 303.341C206.346 303.648 206.493 304.006 206.549 304.415H205.544C205.467 304.116 205.297 303.852 205.032 303.622C204.771 303.389 204.419 303.273 203.976 303.273C203.584 303.273 203.24 303.375 202.944 303.58C202.652 303.781 202.423 304.067 202.258 304.436C202.096 304.803 202.015 305.233 202.015 305.727C202.015 306.233 202.095 306.673 202.254 307.048C202.416 307.423 202.643 307.714 202.936 307.922C203.231 308.129 203.578 308.233 203.976 308.233C204.237 308.233 204.474 308.188 204.687 308.097C204.9 308.006 205.081 307.875 205.228 307.705C205.376 307.534 205.481 307.33 205.544 307.091H206.549C206.493 307.477 206.352 307.825 206.128 308.135C205.906 308.442 205.612 308.686 205.245 308.868C204.882 309.047 204.459 309.136 203.976 309.136ZM210.866 302.455V303.307H207.474V302.455H210.866ZM208.463 300.886H209.469V307.125C209.469 307.409 209.51 307.622 209.592 307.764C209.677 307.903 209.785 307.997 209.916 308.045C210.049 308.091 210.19 308.114 210.338 308.114C210.449 308.114 210.54 308.108 210.611 308.097C210.682 308.082 210.738 308.071 210.781 308.062L210.986 308.966C210.917 308.991 210.822 309.017 210.7 309.043C210.578 309.071 210.423 309.085 210.236 309.085C209.951 309.085 209.673 309.024 209.4 308.902C209.13 308.78 208.906 308.594 208.727 308.344C208.551 308.094 208.463 307.778 208.463 307.398V300.886Z" fill="black" fill-opacity="0.4"/>
<path d="M305.585 300.273V309H304.563L299.807 302.148H299.722V309H298.665V300.273H299.688L304.46 307.142H304.545V300.273H305.585ZM310.223 309.136C309.632 309.136 309.113 308.996 308.667 308.714C308.224 308.433 307.878 308.04 307.628 307.534C307.38 307.028 307.257 306.437 307.257 305.761C307.257 305.08 307.38 304.484 307.628 303.976C307.878 303.467 308.224 303.072 308.667 302.791C309.113 302.51 309.632 302.369 310.223 302.369C310.814 302.369 311.331 302.51 311.774 302.791C312.22 303.072 312.566 303.467 312.814 303.976C313.064 304.484 313.189 305.08 313.189 305.761C313.189 306.437 313.064 307.028 312.814 307.534C312.566 308.04 312.22 308.433 311.774 308.714C311.331 308.996 310.814 309.136 310.223 309.136ZM310.223 308.233C310.672 308.233 311.041 308.118 311.331 307.888C311.62 307.658 311.835 307.355 311.974 306.98C312.113 306.605 312.183 306.199 312.183 305.761C312.183 305.324 312.113 304.916 311.974 304.538C311.835 304.161 311.62 303.855 311.331 303.622C311.041 303.389 310.672 303.273 310.223 303.273C309.774 303.273 309.404 303.389 309.115 303.622C308.825 303.855 308.61 304.161 308.471 304.538C308.332 304.916 308.262 305.324 308.262 305.761C308.262 306.199 308.332 306.605 308.471 306.98C308.61 307.355 308.825 307.658 309.115 307.888C309.404 308.118 309.774 308.233 310.223 308.233ZM319.842 302.455L317.421 309H316.398L313.978 302.455H315.069L316.876 307.67H316.944L318.751 302.455H319.842Z" fill="black" fill-opacity="0.4"/>
<path d="M411.162 309H408.469V300.273H411.281C412.128 300.273 412.852 300.447 413.454 300.797C414.057 301.143 414.518 301.642 414.839 302.293C415.16 302.94 415.321 303.716 415.321 304.619C415.321 305.528 415.159 306.311 414.835 306.967C414.511 307.621 414.04 308.124 413.42 308.476C412.801 308.825 412.048 309 411.162 309ZM409.525 308.062H411.094C411.815 308.062 412.413 307.923 412.888 307.645C413.362 307.366 413.716 306.97 413.949 306.456C414.182 305.942 414.298 305.33 414.298 304.619C414.298 303.915 414.183 303.308 413.953 302.8C413.723 302.288 413.379 301.896 412.922 301.624C412.464 301.348 411.895 301.21 411.213 301.21H409.525V308.062ZM416.957 309V302.455H417.963V309H416.957ZM417.469 301.364C417.272 301.364 417.103 301.297 416.961 301.163C416.822 301.03 416.753 300.869 416.753 300.682C416.753 300.494 416.822 300.334 416.961 300.2C417.103 300.067 417.272 300 417.469 300C417.665 300 417.832 300.067 417.971 300.2C418.113 300.334 418.184 300.494 418.184 300.682C418.184 300.869 418.113 301.03 417.971 301.163C417.832 301.297 417.665 301.364 417.469 301.364ZM422.464 309.136C421.85 309.136 421.322 308.991 420.879 308.702C420.435 308.412 420.095 308.013 419.856 307.504C419.617 306.996 419.498 306.415 419.498 305.761C419.498 305.097 419.62 304.51 419.864 304.001C420.112 303.49 420.455 303.091 420.896 302.804C421.339 302.514 421.856 302.369 422.447 302.369C422.907 302.369 423.322 302.455 423.691 302.625C424.06 302.795 424.363 303.034 424.599 303.341C424.835 303.648 424.981 304.006 425.038 304.415H424.032C423.955 304.116 423.785 303.852 423.521 303.622C423.259 303.389 422.907 303.273 422.464 303.273C422.072 303.273 421.728 303.375 421.433 303.58C421.14 303.781 420.911 304.067 420.747 304.436C420.585 304.803 420.504 305.233 420.504 305.727C420.504 306.233 420.583 306.673 420.742 307.048C420.904 307.423 421.132 307.714 421.424 307.922C421.72 308.129 422.066 308.233 422.464 308.233C422.725 308.233 422.962 308.188 423.176 308.097C423.389 308.006 423.569 307.875 423.717 307.705C423.864 307.534 423.97 307.33 424.032 307.091H425.038C424.981 307.477 424.84 307.825 424.616 308.135C424.394 308.442 424.1 308.686 423.734 308.868C423.37 309.047 422.947 309.136 422.464 309.136Z" fill="black" fill-opacity="0.4"/>
<path d="M504.392 309V300.273H509.659V301.21H505.449V304.159H509.387V305.097H505.449V308.062H509.728V309H504.392ZM512.434 305.062V309H511.428V302.455H512.399V303.477H512.485C512.638 303.145 512.871 302.878 513.184 302.676C513.496 302.472 513.899 302.369 514.394 302.369C514.837 302.369 515.225 302.46 515.557 302.642C515.889 302.821 516.148 303.094 516.333 303.46C516.517 303.824 516.61 304.284 516.61 304.841V309H515.604V304.909C515.604 304.395 515.47 303.994 515.203 303.707C514.936 303.418 514.57 303.273 514.104 303.273C513.783 303.273 513.496 303.342 513.243 303.482C512.993 303.621 512.796 303.824 512.651 304.091C512.506 304.358 512.434 304.682 512.434 305.062ZM521.192 309.136C520.561 309.136 520.017 308.997 519.56 308.719C519.105 308.438 518.754 308.045 518.507 307.543C518.263 307.037 518.141 306.449 518.141 305.778C518.141 305.108 518.263 304.517 518.507 304.006C518.754 303.491 519.098 303.091 519.538 302.804C519.981 302.514 520.499 302.369 521.089 302.369C521.43 302.369 521.767 302.426 522.099 302.54C522.432 302.653 522.734 302.838 523.007 303.094C523.28 303.347 523.497 303.682 523.659 304.099C523.821 304.517 523.902 305.031 523.902 305.642V306.068H518.856V305.199H522.879C522.879 304.83 522.805 304.5 522.658 304.21C522.513 303.92 522.305 303.692 522.035 303.524C521.768 303.357 521.453 303.273 521.089 303.273C520.689 303.273 520.342 303.372 520.05 303.571C519.76 303.767 519.537 304.023 519.381 304.338C519.224 304.653 519.146 304.991 519.146 305.352V305.932C519.146 306.426 519.231 306.845 519.402 307.189C519.575 307.53 519.815 307.79 520.122 307.969C520.429 308.145 520.785 308.233 521.192 308.233C521.456 308.233 521.695 308.196 521.908 308.122C522.124 308.045 522.31 307.932 522.466 307.781C522.622 307.628 522.743 307.437 522.828 307.21L523.8 307.483C523.697 307.812 523.526 308.102 523.284 308.352C523.043 308.599 522.744 308.793 522.389 308.932C522.034 309.068 521.635 309.136 521.192 309.136ZM528.466 303V302.233C528.466 302 528.507 301.753 528.589 301.491C528.675 301.227 528.797 300.973 528.956 300.729C529.118 300.482 529.312 300.267 529.54 300.085L530.085 300.528C529.906 300.784 529.75 301.051 529.616 301.33C529.486 301.605 529.42 301.901 529.42 302.216V303H528.466ZM531.18 309V308.233L534.061 305.08C534.399 304.71 534.677 304.389 534.896 304.116C535.115 303.841 535.277 303.582 535.382 303.341C535.49 303.097 535.544 302.841 535.544 302.574C535.544 302.267 535.47 302.001 535.322 301.777C535.177 301.553 534.979 301.379 534.726 301.257C534.473 301.135 534.189 301.074 533.874 301.074C533.538 301.074 533.246 301.143 532.996 301.283C532.749 301.419 532.557 301.611 532.42 301.858C532.287 302.105 532.22 302.395 532.22 302.727H531.214C531.214 302.216 531.332 301.767 531.568 301.381C531.804 300.994 532.125 300.693 532.531 300.477C532.94 300.261 533.399 300.153 533.908 300.153C534.419 300.153 534.872 300.261 535.267 300.477C535.662 300.693 535.972 300.984 536.196 301.351C536.42 301.717 536.533 302.125 536.533 302.574C536.533 302.895 536.474 303.209 536.358 303.516C536.244 303.82 536.045 304.159 535.761 304.534C535.48 304.906 535.089 305.361 534.589 305.898L532.629 307.994V308.062H536.686V309H531.18ZM538.446 309V308.233L541.327 305.08C541.665 304.71 541.943 304.389 542.162 304.116C542.381 303.841 542.543 303.582 542.648 303.341C542.756 303.097 542.81 302.841 542.81 302.574C542.81 302.267 542.736 302.001 542.588 301.777C542.443 301.553 542.244 301.379 541.991 301.257C541.739 301.135 541.454 301.074 541.139 301.074C540.804 301.074 540.511 301.143 540.261 301.283C540.014 301.419 539.822 301.611 539.686 301.858C539.552 302.105 539.486 302.395 539.486 302.727H538.48C538.48 302.216 538.598 301.767 538.834 301.381C539.07 300.994 539.391 300.693 539.797 300.477C540.206 300.261 540.665 300.153 541.173 300.153C541.685 300.153 542.138 300.261 542.533 300.477C542.927 300.693 543.237 300.984 543.462 301.351C543.686 301.717 543.798 302.125 543.798 302.574C543.798 302.895 543.74 303.209 543.624 303.516C543.51 303.82 543.311 304.159 543.027 304.534C542.746 304.906 542.355 305.361 541.855 305.898L539.895 307.994V308.062H543.952V309H538.446Z" fill="black" fill-opacity="0.4"/>
<path d="M622.2 309V300.273H627.433V301.21H623.257V304.159H627.041V305.097H623.257V309H622.2ZM631.37 309.136C630.74 309.136 630.196 308.997 629.738 308.719C629.284 308.438 628.933 308.045 628.686 307.543C628.441 307.037 628.319 306.449 628.319 305.778C628.319 305.108 628.441 304.517 628.686 304.006C628.933 303.491 629.277 303.091 629.717 302.804C630.16 302.514 630.677 302.369 631.268 302.369C631.609 302.369 631.946 302.426 632.278 302.54C632.61 302.653 632.913 302.838 633.186 303.094C633.458 303.347 633.676 303.682 633.838 304.099C634 304.517 634.081 305.031 634.081 305.642V306.068H629.035V305.199H633.058C633.058 304.83 632.984 304.5 632.836 304.21C632.691 303.92 632.484 303.692 632.214 303.524C631.947 303.357 631.632 303.273 631.268 303.273C630.868 303.273 630.521 303.372 630.228 303.571C629.939 303.767 629.716 304.023 629.559 304.338C629.403 304.653 629.325 304.991 629.325 305.352V305.932C629.325 306.426 629.41 306.845 629.581 307.189C629.754 307.53 629.994 307.79 630.301 307.969C630.608 308.145 630.964 308.233 631.37 308.233C631.635 308.233 631.873 308.196 632.086 308.122C632.302 308.045 632.488 307.932 632.645 307.781C632.801 307.628 632.922 307.437 633.007 307.21L633.978 307.483C633.876 307.812 633.704 308.102 633.463 308.352C633.221 308.599 632.923 308.793 632.568 308.932C632.213 309.068 631.814 309.136 631.37 309.136ZM635.747 309V300.273H636.753V303.494H636.838C636.912 303.381 637.014 303.236 637.145 303.06C637.278 302.881 637.468 302.722 637.716 302.582C637.966 302.44 638.304 302.369 638.73 302.369C639.281 302.369 639.767 302.507 640.187 302.783C640.608 303.058 640.936 303.449 641.172 303.955C641.407 304.46 641.525 305.057 641.525 305.744C641.525 306.438 641.407 307.038 641.172 307.547C640.936 308.053 640.609 308.445 640.191 308.723C639.774 308.999 639.292 309.136 638.747 309.136C638.326 309.136 637.99 309.067 637.737 308.928C637.484 308.786 637.289 308.625 637.153 308.446C637.017 308.264 636.912 308.114 636.838 307.994H636.718V309H635.747ZM636.735 305.727C636.735 306.222 636.808 306.658 636.953 307.036C637.098 307.411 637.309 307.705 637.588 307.918C637.866 308.128 638.207 308.233 638.61 308.233C639.031 308.233 639.382 308.122 639.663 307.901C639.947 307.676 640.16 307.375 640.302 306.997C640.447 306.616 640.52 306.193 640.52 305.727C640.52 305.267 640.449 304.852 640.306 304.483C640.167 304.111 639.956 303.817 639.672 303.601C639.39 303.382 639.037 303.273 638.61 303.273C638.201 303.273 637.858 303.376 637.579 303.584C637.301 303.788 637.091 304.075 636.949 304.445C636.806 304.811 636.735 305.239 636.735 305.727Z" fill="black" fill-opacity="0.4"/>
<path d="M729.32 300.273H730.581L733.547 307.517H733.65L736.616 300.273H737.877V309H736.888V302.369H736.803L734.076 309H733.121L730.394 302.369H730.309V309H729.32V300.273ZM741.786 309.153C741.371 309.153 740.994 309.075 740.656 308.919C740.318 308.76 740.05 308.531 739.851 308.233C739.652 307.932 739.553 307.568 739.553 307.142C739.553 306.767 739.627 306.463 739.774 306.23C739.922 305.994 740.119 305.81 740.367 305.676C740.614 305.543 740.886 305.443 741.185 305.378C741.486 305.31 741.788 305.256 742.092 305.216C742.49 305.165 742.813 305.126 743.06 305.101C743.31 305.072 743.492 305.026 743.605 304.96C743.722 304.895 743.78 304.781 743.78 304.619V304.585C743.78 304.165 743.665 303.838 743.435 303.605C743.207 303.372 742.862 303.256 742.399 303.256C741.919 303.256 741.543 303.361 741.27 303.571C740.997 303.781 740.806 304.006 740.695 304.244L739.74 303.903C739.911 303.506 740.138 303.196 740.422 302.974C740.709 302.75 741.021 302.594 741.359 302.506C741.7 302.415 742.036 302.369 742.365 302.369C742.575 302.369 742.817 302.395 743.09 302.446C743.365 302.494 743.631 302.595 743.886 302.749C744.145 302.902 744.359 303.134 744.53 303.443C744.7 303.753 744.786 304.168 744.786 304.688V309H743.78V308.114H743.729C743.661 308.256 743.547 308.408 743.388 308.57C743.229 308.732 743.017 308.869 742.753 308.983C742.489 309.097 742.166 309.153 741.786 309.153ZM741.939 308.25C742.337 308.25 742.672 308.172 742.945 308.016C743.22 307.859 743.428 307.658 743.567 307.411C743.709 307.163 743.78 306.903 743.78 306.631V305.71C743.737 305.761 743.644 305.808 743.499 305.851C743.357 305.891 743.192 305.926 743.004 305.957C742.82 305.986 742.639 306.011 742.463 306.034C742.29 306.054 742.149 306.071 742.041 306.085C741.78 306.119 741.536 306.175 741.308 306.251C741.084 306.325 740.902 306.437 740.763 306.588C740.627 306.736 740.558 306.937 740.558 307.193C740.558 307.543 740.688 307.807 740.946 307.986C741.207 308.162 741.538 308.25 741.939 308.25ZM746.621 309V302.455H747.593V303.443H747.661C747.78 303.119 747.996 302.857 748.309 302.655C748.621 302.453 748.973 302.352 749.366 302.352C749.439 302.352 749.532 302.354 749.643 302.357C749.753 302.359 749.837 302.364 749.894 302.369V303.392C749.86 303.384 749.782 303.371 749.66 303.354C749.54 303.334 749.414 303.324 749.28 303.324C748.962 303.324 748.678 303.391 748.428 303.524C748.181 303.655 747.985 303.837 747.84 304.07C747.698 304.3 747.627 304.562 747.627 304.858V309H746.621Z" fill="black" fill-opacity="0.4"/>
<path d="M65 235C76.7434 223.472 103.533 200.705 116.744 201.858C133.259 203.299 147.571 220.591 166.287 220.591C185.003 220.591 200.834 175.921 223.536 187.449C272.38 212.251 260.968 173.039 305.006 187.449C340.237 198.976 373.265 184.567 385.375 175.921C399.321 168.236 437.56 153.731 478.956 157.189C530.7 161.512 572.536 157.189 594.555 129.811C601.739 120.879 634.189 89.4645 673.823 100.992C713.457 112.52 756.394 57.7638 763 52" stroke="#1C1C1C" stroke-width="3" stroke-linecap="round" stroke-linejoin="round"/>
<path d="M55 220.172C64.3642 204.777 92.4566 175.119 129.913 179.643C176.734 185.298 192.601 214.249 204.158 220.172C244.958 241.082 238.27 220.172 279.071 164.562C338.034 84.1982 350.64 164.562 383.414 164.562C406.156 164.562 413.828 102.395 479.731 124.976C510.499 135.518 537.923 134.401 551.969 109.895C566.015 85.3892 609.492 66.5384 639.591 77.8489C669.69 89.1593 691.902 78.6922 699.12 72.1937C723.199 50.5153 741.259 67.481 764 85.3892" stroke="#A8C5DA" stroke-width="3" stroke-linecap="round" stroke-linejoin="round"/>
<g filter="url(#filter0_d_538_1539)">
<circle r="4.5" transform="matrix(-1 0 0 1 525 129)" fill="#A8C5DA" stroke="white" stroke-width="3"/>
</g>
<rect x="484" y="82" width="81" height="28" rx="8" fill="black" fill-opacity="0.8"/>
<path d="M493.365 100V91.2727H498.632V92.2102H494.422V95.1591H498.36V96.0966H494.422V99.0625H498.701V100H493.365ZM501.407 96.0625V100H500.401V93.4545H501.373V94.4773H501.458C501.611 94.1449 501.844 93.8778 502.157 93.6761C502.469 93.4716 502.873 93.3693 503.367 93.3693C503.81 93.3693 504.198 93.4602 504.53 93.642C504.863 93.821 505.121 94.0938 505.306 94.4602C505.49 94.8239 505.583 95.2841 505.583 95.8409V100H504.577V95.9091C504.577 95.3949 504.444 94.9943 504.176 94.7074C503.909 94.4176 503.543 94.2727 503.077 94.2727C502.756 94.2727 502.469 94.3423 502.216 94.4815C501.966 94.6207 501.769 94.8239 501.624 95.0909C501.479 95.358 501.407 95.6818 501.407 96.0625ZM510.165 100.136C509.534 100.136 508.99 99.9972 508.533 99.7188C508.078 99.4375 507.727 99.0455 507.48 98.5426C507.236 98.0369 507.114 97.4489 507.114 96.7784C507.114 96.108 507.236 95.517 507.48 95.0057C507.727 94.4915 508.071 94.0909 508.511 93.804C508.955 93.5142 509.472 93.3693 510.062 93.3693C510.403 93.3693 510.74 93.4261 511.072 93.5398C511.405 93.6534 511.707 93.8381 511.98 94.0938C512.253 94.3466 512.47 94.6818 512.632 95.0994C512.794 95.517 512.875 96.0312 512.875 96.642V97.0682H507.83V96.1989H511.852C511.852 95.8295 511.778 95.5 511.631 95.2102C511.486 94.9205 511.278 94.6918 511.009 94.5241C510.741 94.3565 510.426 94.2727 510.062 94.2727C509.662 94.2727 509.315 94.3722 509.023 94.571C508.733 94.767 508.51 95.0227 508.354 95.3381C508.197 95.6534 508.119 95.9915 508.119 96.3523V96.9318C508.119 97.4261 508.205 97.8452 508.375 98.1889C508.548 98.5298 508.788 98.7898 509.095 98.9688C509.402 99.1449 509.759 99.233 510.165 99.233C510.429 99.233 510.668 99.196 510.881 99.1222C511.097 99.0455 511.283 98.9318 511.439 98.7812C511.595 98.6278 511.716 98.4375 511.801 98.2102L512.773 98.483C512.67 98.8125 512.499 99.1023 512.257 99.3523C512.016 99.5994 511.717 99.7926 511.362 99.9318C511.007 100.068 510.608 100.136 510.165 100.136ZM514.405 100V93.4545H515.376V94.4432H515.445C515.564 94.1193 515.78 93.8565 516.092 93.6548C516.405 93.4531 516.757 93.3523 517.149 93.3523C517.223 93.3523 517.315 93.3537 517.426 93.3565C517.537 93.3594 517.621 93.3636 517.678 93.3693V94.392C517.643 94.3835 517.565 94.3707 517.443 94.3537C517.324 94.3338 517.197 94.3239 517.064 94.3239C516.746 94.3239 516.462 94.3906 516.212 94.5241C515.964 94.6548 515.768 94.8366 515.624 95.0696C515.482 95.2997 515.411 95.5625 515.411 95.858V100H514.405ZM521.33 100.136C520.739 100.136 520.22 99.9957 519.774 99.7145C519.331 99.4332 518.984 99.0398 518.734 98.5341C518.487 98.0284 518.364 97.4375 518.364 96.7614C518.364 96.0795 518.487 95.4844 518.734 94.9759C518.984 94.4673 519.331 94.0724 519.774 93.7912C520.22 93.5099 520.739 93.3693 521.33 93.3693C521.92 93.3693 522.438 93.5099 522.881 93.7912C523.327 94.0724 523.673 94.4673 523.92 94.9759C524.17 95.4844 524.295 96.0795 524.295 96.7614C524.295 97.4375 524.17 98.0284 523.92 98.5341C523.673 99.0398 523.327 99.4332 522.881 99.7145C522.438 99.9957 521.92 100.136 521.33 100.136ZM521.33 99.233C521.778 99.233 522.148 99.1179 522.438 98.8878C522.727 98.6577 522.942 98.3551 523.081 97.9801C523.22 97.6051 523.29 97.1989 523.29 96.7614C523.29 96.3239 523.22 95.9162 523.081 95.5384C522.942 95.1605 522.727 94.8551 522.438 94.6222C522.148 94.3892 521.778 94.2727 521.33 94.2727C520.881 94.2727 520.511 94.3892 520.222 94.6222C519.932 94.8551 519.717 95.1605 519.578 95.5384C519.439 95.9162 519.369 96.3239 519.369 96.7614C519.369 97.1989 519.439 97.6051 519.578 97.9801C519.717 98.3551 519.932 98.6577 520.222 98.8878C520.511 99.1179 520.881 99.233 521.33 99.233ZM526.564 100.068C526.353 100.068 526.173 99.9929 526.022 99.8423C525.872 99.6918 525.797 99.5114 525.797 99.3011C525.797 99.0909 525.872 98.9105 526.022 98.7599C526.173 98.6094 526.353 98.5341 526.564 98.5341C526.774 98.5341 526.954 98.6094 527.105 98.7599C527.255 98.9105 527.331 99.0909 527.331 99.3011C527.331 99.4403 527.295 99.5682 527.224 99.6847C527.156 99.8011 527.064 99.8949 526.947 99.9659C526.833 100.034 526.706 100.068 526.564 100.068ZM526.564 95.2102C526.353 95.2102 526.173 95.1349 526.022 94.9844C525.872 94.8338 525.797 94.6534 525.797 94.4432C525.797 94.233 525.872 94.0526 526.022 93.902C526.173 93.7514 526.353 93.6761 526.564 93.6761C526.774 93.6761 526.954 93.7514 527.105 93.902C527.255 94.0526 527.331 94.233 527.331 94.4432C527.331 94.5824 527.295 94.7102 527.224 94.8267C527.156 94.9432 527.064 95.0369 526.947 95.108C526.833 95.1761 526.706 95.2102 526.564 95.2102ZM535.289 100.119C534.703 100.119 534.186 100.016 533.738 99.8082C533.292 99.598 532.944 99.3097 532.694 98.9432C532.444 98.5739 532.32 98.1534 532.323 97.6818C532.32 97.3125 532.392 96.9716 532.54 96.6591C532.688 96.3437 532.89 96.081 533.145 95.8707C533.404 95.6577 533.692 95.5227 534.01 95.4659V95.4148C533.593 95.3068 533.26 95.0724 533.013 94.7116C532.766 94.348 532.644 93.9347 532.647 93.4716C532.644 93.0284 532.756 92.6321 532.983 92.2827C533.211 91.9332 533.523 91.6577 533.921 91.456C534.321 91.2543 534.777 91.1534 535.289 91.1534C535.794 91.1534 536.246 91.2543 536.644 91.456C537.042 91.6577 537.354 91.9332 537.581 92.2827C537.811 92.6321 537.928 93.0284 537.931 93.4716C537.928 93.9347 537.801 94.348 537.551 94.7116C537.304 95.0724 536.976 95.3068 536.567 95.4148V95.4659C536.882 95.5227 537.167 95.6577 537.419 95.8707C537.672 96.081 537.874 96.3437 538.025 96.6591C538.175 96.9716 538.252 97.3125 538.255 97.6818C538.252 98.1534 538.124 98.5739 537.871 98.9432C537.621 99.3097 537.273 99.598 536.827 99.8082C536.384 100.016 535.871 100.119 535.289 100.119ZM535.289 99.1818C535.684 99.1818 536.025 99.1179 536.311 98.9901C536.598 98.8622 536.82 98.6818 536.976 98.4489C537.132 98.2159 537.212 97.9432 537.215 97.6307C537.212 97.3011 537.127 97.0099 536.959 96.7571C536.792 96.5043 536.563 96.3054 536.273 96.1605C535.986 96.0156 535.658 95.9432 535.289 95.9432C534.917 95.9432 534.584 96.0156 534.292 96.1605C534.002 96.3054 533.773 96.5043 533.605 96.7571C533.441 97.0099 533.36 97.3011 533.363 97.6307C533.36 97.9432 533.435 98.2159 533.588 98.4489C533.745 98.6818 533.968 98.8622 534.257 98.9901C534.547 99.1179 534.891 99.1818 535.289 99.1818ZM535.289 95.0398C535.601 95.0398 535.878 94.9773 536.12 94.8523C536.364 94.7273 536.556 94.5526 536.695 94.3281C536.834 94.1037 536.905 93.8409 536.908 93.5398C536.905 93.2443 536.836 92.9872 536.699 92.7685C536.563 92.5469 536.374 92.3764 536.132 92.2571C535.891 92.1349 535.61 92.0739 535.289 92.0739C534.962 92.0739 534.676 92.1349 534.432 92.2571C534.188 92.3764 533.999 92.5469 533.865 92.7685C533.732 92.9872 533.667 93.2443 533.669 93.5398C533.667 93.8409 533.733 94.1037 533.87 94.3281C534.009 94.5526 534.201 94.7273 534.445 94.8523C534.689 94.9773 534.971 95.0398 535.289 95.0398ZM541.135 98.8068L541.067 99.267C541.019 99.5909 540.945 99.9375 540.846 100.307C540.749 100.676 540.648 101.024 540.543 101.351C540.438 101.678 540.351 101.938 540.283 102.131H539.516C539.553 101.949 539.601 101.709 539.661 101.411C539.721 101.112 539.78 100.778 539.84 100.409C539.902 100.043 539.953 99.6676 539.993 99.2841L540.044 98.8068H541.135ZM545.602 100.119C545.04 100.119 544.538 100.023 544.098 99.8295C543.661 99.6364 543.313 99.3679 543.054 99.0241C542.798 98.6776 542.659 98.2756 542.636 97.8182H543.71C543.733 98.0994 543.83 98.3423 544 98.5469C544.17 98.7486 544.393 98.9048 544.669 99.0156C544.945 99.1264 545.25 99.1818 545.585 99.1818C545.96 99.1818 546.293 99.1165 546.582 98.9858C546.872 98.8551 547.099 98.6733 547.264 98.4403C547.429 98.2074 547.511 97.9375 547.511 97.6307C547.511 97.3097 547.432 97.027 547.273 96.7827C547.114 96.5355 546.881 96.3423 546.574 96.2031C546.267 96.0639 545.892 95.9943 545.449 95.9943H544.75V95.0568H545.449C545.795 95.0568 546.099 94.9943 546.361 94.8693C546.625 94.7443 546.831 94.5682 546.979 94.3409C547.129 94.1136 547.205 93.8466 547.205 93.5398C547.205 93.2443 547.139 92.9872 547.009 92.7685C546.878 92.5497 546.693 92.3793 546.455 92.2571C546.219 92.1349 545.94 92.0739 545.619 92.0739C545.318 92.0739 545.034 92.1293 544.767 92.2401C544.503 92.348 544.287 92.5057 544.119 92.7131C543.952 92.9176 543.861 93.1648 543.847 93.4545H542.824C542.841 92.9972 542.979 92.5966 543.237 92.2528C543.496 91.9062 543.834 91.6364 544.251 91.4432C544.672 91.25 545.134 91.1534 545.636 91.1534C546.176 91.1534 546.639 91.2628 547.026 91.4815C547.412 91.6974 547.709 91.983 547.916 92.3381C548.124 92.6932 548.227 93.0767 548.227 93.4886C548.227 93.9801 548.098 94.3991 547.839 94.7457C547.584 95.0923 547.236 95.3324 546.795 95.4659V95.5341C547.347 95.625 547.777 95.8594 548.087 96.2372C548.396 96.6122 548.551 97.0767 548.551 97.6307C548.551 98.1051 548.422 98.5312 548.163 98.9091C547.908 99.2841 547.558 99.5795 547.115 99.7955C546.672 100.011 546.168 100.119 545.602 100.119ZM553.021 100.119C552.521 100.119 552.071 100.02 551.67 99.821C551.27 99.6222 550.949 99.3494 550.707 99.0028C550.466 98.6562 550.334 98.2614 550.311 97.8182H551.334C551.374 98.2131 551.553 98.5398 551.871 98.7983C552.192 99.054 552.575 99.1818 553.021 99.1818C553.379 99.1818 553.697 99.098 553.976 98.9304C554.257 98.7628 554.477 98.5327 554.636 98.2401C554.798 97.9446 554.879 97.6108 554.879 97.2386C554.879 96.858 554.795 96.5185 554.628 96.2202C554.463 95.919 554.236 95.6818 553.946 95.5085C553.656 95.3352 553.325 95.2472 552.953 95.2443C552.686 95.2415 552.412 95.2827 552.131 95.3679C551.849 95.4503 551.618 95.5568 551.436 95.6875L550.447 95.5682L550.976 91.2727H555.51V92.2102H551.862L551.555 94.7841H551.607C551.786 94.642 552.01 94.5241 552.28 94.4304C552.55 94.3366 552.831 94.2898 553.124 94.2898C553.658 94.2898 554.134 94.4176 554.551 94.6733C554.972 94.9261 555.301 95.2727 555.54 95.7131C555.781 96.1534 555.902 96.6562 555.902 97.2216C555.902 97.7784 555.777 98.2756 555.527 98.7131C555.28 99.1477 554.939 99.4915 554.504 99.7443C554.07 99.9943 553.575 100.119 553.021 100.119Z" fill="white"/>
<defs>
<filter id="filter0_d_538_1539" x="517" y="123" width="16" height="16" filterUnits="userSpaceOnUse" color-interpolation-filters="sRGB">
<feFlood flood-opacity="0" result="BackgroundImageFix"/>
<feColorMatrix in="SourceAlpha" type="matrix" values="0 0 0 0 0 0 0 0 0 0 0 0 0 0 0 0 0 0 127 0" result="hardAlpha"/>
<feOffset dy="2"/>
<feGaussianBlur stdDeviation="1"/>
<feComposite in2="hardAlpha" operator="out"/>
<feColorMatrix type="matrix" values="0 0 0 0 0 0 0 0 0 0 0 0 0 0 0 0 0 0 0.1 0"/>
<feBlend mode="normal" in2="BackgroundImageFix" result="effect1_dropShadow_538_1539"/>
<feBlend mode="normal" in="SourceGraphic" in2="effect1_dropShadow_538_1539" result="shape"/>
</filter>
</defs>
</svg>
