<svg width="125" height="265" viewBox="0 0 125 265" fill="none" xmlns="http://www.w3.org/2000/svg">
<path d="M0 0H122C123.657 0 125 1.34315 125 3V3C125 4.65685 123.657 6 122 6H0V0Z" fill="black" fill-opacity="0.1"/>
<path d="M0 41H87C88.6569 41 90 42.3431 90 44V44C90 45.6569 88.6569 47 87 47H0V41Z" fill="black" fill-opacity="0.1"/>
<path d="M0.5 82.5H101C102.381 82.5 103.5 83.6193 103.5 85C103.5 86.3807 102.381 87.5 101 87.5H0.5V82.5Z" fill="#1C1C1C" stroke="#1C1C1C"/>
<path d="M0 123H77C78.6569 123 80 124.343 80 126V126C80 127.657 78.6569 129 77 129H0V123Z" fill="black" fill-opacity="0.1"/>
<path d="M0 164H107C108.657 164 110 165.343 110 167V167C110 168.657 108.657 170 107 170H0V164Z" fill="black" fill-opacity="0.1"/>
<path d="M0 205H83C84.6569 205 86 206.343 86 208V208C86 209.657 84.6569 211 83 211H0V205Z" fill="black" fill-opacity="0.1"/>
<path d="M0 246H101C102.657 246 104 247.343 104 249V249C104 250.657 102.657 252 101 252H0V246Z" fill="black" fill-opacity="0.1"/>
</svg>
