<svg width="82" height="222" viewBox="0 0 82 222" fill="none" xmlns="http://www.w3.org/2000/svg">
<path d="M0.702148 0H78.7021C80.359 0 81.7021 1.34315 81.7021 3C81.7021 4.65685 80.359 6 78.7021 6H0.702148V0Z" fill="black" fill-opacity="0.1"/>
<path d="M0.702148 36H43.7021C45.359 36 46.7021 37.3431 46.7021 39C46.7021 40.6569 45.359 42 43.7021 42H0.702148V36Z" fill="black" fill-opacity="0.1"/>
<path d="M1.20215 72.5H57.7021C59.0829 72.5 60.2021 73.6193 60.2021 75C60.2021 76.3807 59.0829 77.5 57.7021 77.5H1.20215V72.5Z" fill="#1C1C1C" stroke="#1C1C1C"/>
<path d="M0.702148 108H33.7021C35.359 108 36.7021 109.343 36.7021 111C36.7021 112.657 35.359 114 33.7021 114H0.702148V108Z" fill="black" fill-opacity="0.1"/>
<path d="M0.702148 144H63.7021C65.359 144 66.7021 145.343 66.7021 147C66.7021 148.657 65.359 150 63.7021 150H0.702148V144Z" fill="black" fill-opacity="0.1"/>
<path d="M0.702148 180H39.7021C41.359 180 42.7021 181.343 42.7021 183C42.7021 184.657 41.359 186 39.7021 186H0.702148V180Z" fill="black" fill-opacity="0.1"/>
<path d="M0.702148 216H57.7021C59.359 216 60.7021 217.343 60.7021 219C60.7021 220.657 59.359 222 57.7021 222H0.702148V216Z" fill="black" fill-opacity="0.1"/>
</svg>
