<svg width="127" height="78" viewBox="0 0 127 78" fill="none" xmlns="http://www.w3.org/2000/svg">
<path d="M109.073 22.2268C104.642 17.2986 97.0551 16.8955 92.1268 21.3267C87.1986 25.7578 86.7955 33.3451 91.2267 38.2733C97.1262 44.8348 100.702 53.4855 100.702 62.9999C100.702 83.4343 84.1363 99.9997 63.7019 99.9997C43.2675 99.9997 26.7021 83.4343 26.7021 62.9999C26.7021 60.9296 26.871 58.9075 27.1934 56.9445C28.2673 50.4047 23.8363 44.2325 17.2965 43.1586C10.7567 42.0846 4.58451 46.5156 3.51057 53.0554C2.97793 56.299 2.70215 59.6217 2.70215 62.9999C2.70215 96.6892 30.0127 124 63.7019 124C97.3912 124 124.702 96.6892 124.702 62.9999C124.702 47.334 118.78 33.0229 109.073 22.2268Z" fill="#BAEDBD" stroke="#F7F9FB" stroke-width="4" stroke-linecap="round" stroke-linejoin="round"/>
<path d="M35.1651 21.3267L33.8279 22.8139L35.1651 21.3267C30.2369 16.8955 22.6496 17.2986 18.2185 22.2268C13.5612 27.4066 9.773 33.3961 7.0921 39.9666C4.58838 46.1029 7.53315 53.107 13.6694 55.6108C19.8057 58.1145 26.8098 55.1697 29.3136 49.0334C30.9339 45.0621 33.23 41.4267 36.0653 38.2733C40.4964 33.3451 40.0934 25.7578 35.1651 21.3267Z" fill="#95A4FC" stroke="#F7F9FB" stroke-width="4" stroke-linecap="round" stroke-linejoin="round"/>
<path d="M42.3201 32.625C48.3083 28.4481 55.5777 26 63.4548 26C71.332 26 78.6014 28.4481 84.5896 32.625C90.0253 36.4165 97.5054 35.0837 101.297 29.648C105.088 24.2122 103.756 16.7321 98.3199 12.9406C88.4347 6.04538 76.3992 2 63.4548 2C50.5105 2 38.475 6.04538 28.5898 12.9406C23.1541 16.7321 21.8212 24.2122 25.6128 29.648C29.4043 35.0837 36.8844 36.4165 42.3201 32.625Z" fill="#C6C7F8" stroke="#F7F9FB" stroke-width="4" stroke-linecap="round" stroke-linejoin="round"/>
<path d="M109.074 22.2268C104.643 17.2986 97.0553 16.8955 92.127 21.3267C87.1988 25.7578 86.7958 33.3451 91.2269 38.2733C97.1264 44.8348 100.702 53.4855 100.702 62.9999C100.702 83.4344 84.1366 99.9997 63.7021 99.9997C57.0747 99.9997 51.7021 105.372 51.7021 112C51.7021 118.627 57.0747 124 63.7021 124C97.3914 124 124.702 96.6892 124.702 62.9999C124.702 47.334 118.781 33.0228 109.074 22.2268Z" fill="#1C1C1C" stroke="#F7F9FB" stroke-width="4" stroke-linecap="round" stroke-linejoin="round"/>
</svg>
